<svg width="551" height="385" viewBox="0 0 551 385" fill="none" xmlns="http://www.w3.org/2000/svg">
<rect x="384" width="167" height="167" fill="#45F7E1"/>
<rect x="194.5" y="0.5" width="166" height="166" fill="#231D1D" stroke="white"/>
<rect x="0.5" y="218.5" width="166" height="166" fill="#231D1D" stroke="white"/>
<rect width="167" height="167" fill="white"/>
<rect x="194" y="218" width="167" height="167" fill="white"/>
<path d="M244.551 87.6133V81.4453H240.389V87.6133H230V104.07H240.389V110.265H244.551V104.07H254.94V87.6133H244.551ZM240.389 99.9759H234.134V91.7342H240.389V99.9759ZM250.779 99.9759H244.551V91.7342H250.779V99.9759Z" fill="#45F7E1"/>
<path d="M259.404 87.6133V96.8653C259.404 98.5934 258.008 99.9759 256.29 99.9759V104.07C260.29 104.07 263.566 100.853 263.566 96.8653V91.7342H269.794V104.07H273.955V87.6133H259.404Z" fill="#45F7E1"/>
<path d="M289.123 95.855C289.123 98.1149 287.27 99.9759 284.962 99.9759C283.431 99.9759 282.089 99.1251 281.364 97.9022H284.962V93.7813H280.8V91.7342H291.217V87.6133H276.666V95.855C276.666 100.401 280.371 104.07 284.962 104.07C289.552 104.07 293.284 100.401 293.284 95.855H289.123Z" fill="#45F7E1"/>
<path d="M305.014 93.7813C306.329 92.0532 307.108 89.9263 307.108 87.6133H302.946C302.946 90.2985 301.228 92.5849 298.785 93.4357V87.6133H294.651V104.07H298.785V97.9022H307.108V104.07H311.269V93.7813H305.014Z" fill="#45F7E1"/>
<path d="M321.731 99.9759C319.449 99.9759 317.57 98.1149 317.57 95.855C317.57 93.5686 319.449 91.7342 321.731 91.7342C323.664 91.7342 325.302 93.0369 325.758 94.8182H330C329.49 90.7505 325.973 87.6133 321.731 87.6133C317.141 87.6133 313.436 91.3088 313.436 95.855C313.436 100.401 317.141 104.07 321.731 104.07C325.973 104.07 329.49 100.933 330 96.8653H325.758C325.302 98.6466 323.664 99.9759 321.731 99.9759Z" fill="#45F7E1"/>
<path d="M242.288 62V70.3468C242.288 72.6354 240.461 74.5202 238.183 74.5202C235.932 74.5202 234.078 72.6354 234.078 70.3468V62H230V70.3468C230 74.951 233.655 78.6667 238.183 78.6667C239.693 78.6667 241.096 78.2628 242.288 77.5627V78.6667H246.393V62H242.288Z" fill="#45F7E1"/>
<path d="M261.349 68.2466C262.62 66.4965 263.414 64.3425 263.414 62H249.06V66.1734H257.72C256.608 67.4389 254.966 68.2466 253.139 68.2466V72.42H261.349V74.5202H249.06V78.6667H265.453V68.2466H261.349Z" fill="#45F7E1"/>
<path d="M280.409 62V70.3468C280.409 72.6354 278.582 74.5202 276.304 74.5202C274.053 74.5202 272.199 72.6354 272.199 70.3468V62H268.121V70.3468C268.121 74.951 271.776 78.6667 276.304 78.6667C277.814 78.6667 279.217 78.2628 280.409 77.5627V78.6667H284.514V62H280.409Z" fill="#45F7E1"/>
<path d="M48.4484 87.4293V81.3047H44.3165V87.4293H34V103.771H44.3165V109.922H48.4484V103.771H58.7648V87.4293H48.4484ZM44.3165 99.7051H38.1053V91.5213H44.3165V99.7051ZM54.6329 99.7051H48.4484V91.5213H54.6329V99.7051Z" fill="#231D1D"/>
<path d="M63.1979 87.4293V96.6163C63.1979 98.3323 61.8117 99.7051 60.1056 99.7051V103.771C64.0776 103.771 67.3298 100.576 67.3298 96.6163V91.5213H73.5143V103.771H77.6463V87.4293H63.1979Z" fill="#231D1D"/>
<path d="M92.7073 95.6132C92.7073 97.8571 90.868 99.7051 88.5754 99.7051C87.0559 99.7051 85.7231 98.8603 85.0033 97.6459H88.5754V93.554H84.4435V91.5213H94.7866V87.4293H80.3382V95.6132C80.3382 100.127 84.017 103.771 88.5754 103.771C93.1338 103.771 96.8392 100.127 96.8392 95.6132H92.7073Z" fill="#231D1D"/>
<path d="M108.486 93.554C109.793 91.838 110.566 89.7261 110.566 87.4293H106.434C106.434 90.0957 104.728 92.366 102.302 93.2108V87.4293H98.1967V103.771H102.302V97.6459H110.566V103.771H114.698V93.554H108.486Z" fill="#231D1D"/>
<path d="M125.087 99.7051C122.821 99.7051 120.955 97.8571 120.955 95.6132C120.955 93.3428 122.821 91.5213 125.087 91.5213C127.006 91.5213 128.632 92.8148 129.085 94.5836H133.297C132.791 90.5445 129.299 87.4293 125.087 87.4293C120.528 87.4293 116.85 91.0989 116.85 95.6132C116.85 100.127 120.528 103.771 125.087 103.771C129.299 103.771 132.791 100.655 133.297 96.6163H129.085C128.632 98.3851 127.006 99.7051 125.087 99.7051Z" fill="#231D1D"/>
<path d="M46.2017 62V70.2881C46.2017 72.5607 44.3873 74.4322 42.1257 74.4322C39.8905 74.4322 38.0497 72.5607 38.0497 70.2881V62H34V70.2881C34 74.86 37.629 78.5496 42.1257 78.5496C43.6246 78.5496 45.0184 78.1485 46.2017 77.4534V78.5496H50.2778V62H46.2017Z" fill="#231D1D"/>
<path d="M65.1283 68.2027C66.3905 66.4649 67.1794 64.326 67.1794 62H52.9265V66.1441H61.5256C60.4212 67.4007 58.7907 68.2027 56.9763 68.2027V72.3468H65.1283V74.4322H52.9265V78.5496H69.2043V68.2027H65.1283Z" fill="#231D1D"/>
<path d="M84.0548 62V70.2881C84.0548 72.5607 82.2403 74.4322 79.9788 74.4322C77.7436 74.4322 75.9028 72.5607 75.9028 70.2881V62H71.8531V70.2881C71.8531 74.86 75.4821 78.5496 79.9788 78.5496C81.4777 78.5496 82.8715 78.1485 84.0548 77.4534V78.5496H88.1308V62H84.0548Z" fill="#231D1D"/>
<path d="M438.448 87.4293V81.3047H434.316V87.4293H424V103.771H434.316V109.922H438.448V103.771H448.765V87.4293H438.448ZM434.316 99.7051H428.105V91.5213H434.316V99.7051ZM444.633 99.7051H438.448V91.5213H444.633V99.7051Z" fill="#231D1D"/>
<path d="M453.198 87.4293V96.6163C453.198 98.3323 451.812 99.7051 450.106 99.7051V103.771C454.078 103.771 457.33 100.576 457.33 96.6163V91.5213H463.514V103.771H467.646V87.4293H453.198Z" fill="#231D1D"/>
<path d="M482.707 95.6132C482.707 97.8571 480.868 99.7051 478.575 99.7051C477.056 99.7051 475.723 98.8603 475.003 97.6459H478.575V93.554H474.443V91.5213H484.787V87.4293H470.338V95.6132C470.338 100.127 474.017 103.771 478.575 103.771C483.134 103.771 486.839 100.127 486.839 95.6132H482.707Z" fill="#231D1D"/>
<path d="M498.486 93.554C499.793 91.838 500.566 89.7261 500.566 87.4293H496.434C496.434 90.0957 494.728 92.366 492.302 93.2108V87.4293H488.197V103.771H492.302V97.6459H500.566V103.771H504.698V93.554H498.486Z" fill="#231D1D"/>
<path d="M515.087 99.7051C512.821 99.7051 510.955 97.8571 510.955 95.6132C510.955 93.3428 512.821 91.5213 515.087 91.5213C517.006 91.5213 518.632 92.8148 519.085 94.5836H523.297C522.791 90.5445 519.299 87.4293 515.087 87.4293C510.528 87.4293 506.85 91.0989 506.85 95.6132C506.85 100.127 510.528 103.771 515.087 103.771C519.299 103.771 522.791 100.655 523.297 96.6163H519.085C518.632 98.3851 517.006 99.7051 515.087 99.7051Z" fill="#231D1D"/>
<path d="M436.202 62V70.2881C436.202 72.5607 434.387 74.4322 432.126 74.4322C429.89 74.4322 428.05 72.5607 428.05 70.2881V62H424V70.2881C424 74.86 427.629 78.5496 432.126 78.5496C433.625 78.5496 435.018 78.1485 436.202 77.4534V78.5496H440.278V62H436.202Z" fill="#231D1D"/>
<path d="M455.128 68.2027C456.391 66.4649 457.179 64.326 457.179 62H442.927V66.1441H451.526C450.421 67.4007 448.791 68.2027 446.976 68.2027V72.3468H455.128V74.4322H442.927V78.5496H459.204V68.2027H455.128Z" fill="#231D1D"/>
<path d="M474.055 62V70.2881C474.055 72.5607 472.24 74.4322 469.979 74.4322C467.744 74.4322 465.903 72.5607 465.903 70.2881V62H461.853V70.2881C461.853 74.86 465.482 78.5496 469.979 78.5496C471.478 78.5496 472.871 78.1485 474.055 77.4534V78.5496H478.131V62H474.055Z" fill="#231D1D"/>
<rect x="95" y="285" width="72" height="100" fill="#BEF745"/>
<rect x="289" y="285" width="72" height="100" fill="#BEF745"/>
</svg>
