<svg width="936" height="383" viewBox="0 0 936 383" fill="none" xmlns="http://www.w3.org/2000/svg">
<path fill-rule="evenodd" clip-rule="evenodd" d="M728.071 253.385C739.523 256.642 748.583 255.233 753.644 251.493C758.903 247.605 765.564 239.673 773.053 229.892C776.741 225.075 780.618 219.825 784.617 214.412L784.777 214.196C788.83 208.708 793.006 203.056 797.227 197.53C805.666 186.481 814.303 175.91 822.531 168.117C826.646 164.221 830.672 161.005 834.534 158.772C838.393 156.54 842.122 155.269 845.63 155.31C849.104 155.351 851.873 156.298 853.983 158.04C856.09 159.778 857.494 162.269 858.316 165.312C859.953 171.378 859.31 179.761 857.178 189.225C852.91 208.178 842.602 231.767 831.989 250.568C826.739 259.868 825.27 268.428 826.297 276.043C827.323 283.663 830.855 290.379 835.672 295.973C845.327 307.184 860.071 313.8 869.857 314.114L869.824 315.164C859.713 314.839 844.705 308.067 834.881 296.66C829.959 290.945 826.319 284.046 825.26 276.184C824.2 268.316 825.729 259.527 831.079 250.051C841.663 231.3 851.92 207.81 856.158 188.993C858.279 179.572 858.874 171.397 857.306 165.587C856.524 162.692 855.215 160.415 853.319 158.851C851.427 157.29 848.903 156.399 845.618 156.36C842.366 156.322 838.825 157.503 835.057 159.682C831.291 161.86 827.331 165.016 823.249 168.881C815.085 176.613 806.491 187.127 798.058 198.169C793.842 203.687 789.671 209.332 785.617 214.821L785.456 215.04C781.459 220.451 777.577 225.707 773.883 230.532C766.41 240.292 759.663 248.348 754.264 252.338C748.846 256.342 739.411 257.702 727.786 254.395C716.143 251.084 702.238 243.08 687.787 228.239C658.888 198.558 627.767 141.496 608.122 39.6993L609.149 39.4998C628.772 141.185 659.832 198.026 688.535 227.505C702.886 242.244 716.639 250.134 728.071 253.385Z" fill="#45F7E1"/>
<path fill-rule="evenodd" clip-rule="evenodd" d="M660.426 108.527C655.619 92.6433 649.766 73.3055 642.339 49.8211L645.648 48.7484C653.14 72.4366 659.011 91.8406 663.817 107.721C670.428 129.567 675.02 144.744 679.036 155.229C682.506 164.288 685.43 169.508 688.629 172.472C691.697 175.316 695.185 176.23 700.319 176.123C703.696 176.054 706.52 173.743 708.852 169.181C711.178 164.632 712.787 158.24 713.825 150.971C715.896 136.468 715.617 119.052 714.715 107.435L718.179 107.16C719.093 118.922 719.385 136.621 717.264 151.477C716.206 158.888 714.529 165.736 711.938 170.802C709.354 175.855 705.631 179.535 700.392 179.643C694.756 179.76 690.253 178.748 686.284 175.069C682.445 171.511 679.285 165.609 675.796 156.501C671.741 145.914 667.087 130.536 660.426 108.527Z" fill="white"/>
<path fill-rule="evenodd" clip-rule="evenodd" d="M815.988 101.896C838.732 95.3303 870.339 98.5641 903.781 116.801L903.278 117.721C870.021 99.5851 838.7 96.431 816.279 102.904C793.864 109.375 780.405 125.421 782.548 145.764C783.626 155.998 787.209 163.486 792.079 168.94C796.953 174.398 803.143 177.847 809.475 179.955C815.808 182.063 822.268 182.824 827.657 182.916C833.053 183.007 837.338 182.428 839.317 181.879C845.789 180.084 854.752 175.428 858.434 173.316L858.956 174.226C855.262 176.345 846.204 181.057 839.598 182.889C837.49 183.474 833.096 184.057 827.639 183.964C822.173 183.871 815.602 183.099 809.144 180.949C802.684 178.799 796.321 175.265 791.296 169.638C786.267 164.007 782.604 156.307 781.505 145.874C779.294 124.883 793.237 108.464 815.988 101.896Z" fill="white"/>
<path fill-rule="evenodd" clip-rule="evenodd" d="M657.32 194.318C646.885 225.08 641.373 264.104 648.64 297.058L645.214 297.81C637.766 264.04 643.432 224.341 653.997 193.196C659.283 177.614 665.828 164.074 672.655 154.425C676.067 149.603 679.59 145.694 683.113 142.992C686.623 140.299 690.275 138.7 693.896 138.78C697.076 138.85 700.019 140.842 702.676 143.746C705.371 146.691 708.026 150.849 710.621 155.855C715.818 165.88 720.945 179.643 725.724 194.823C735.29 225.203 743.556 261.556 748.245 285.765L744.8 286.429C740.126 262.296 731.889 226.082 722.377 195.871C717.618 180.755 712.563 167.218 707.505 157.462C704.973 152.578 702.483 148.725 700.085 146.105C697.65 143.444 695.553 142.316 693.818 142.278C691.296 142.223 688.414 143.34 685.251 145.766C682.1 148.182 678.811 151.793 675.521 156.443C668.945 165.737 662.535 178.947 657.32 194.318Z" fill="#45F7E1"/>
<path fill-rule="evenodd" clip-rule="evenodd" d="M770.949 179.591C775.461 184.667 780.26 188.18 784.804 189.571L783.787 192.925C778.399 191.276 773.086 187.261 768.343 181.925C763.581 176.567 759.289 169.762 755.975 162.333C749.377 147.546 746.485 129.889 751.957 116.008C762.69 88.784 787.178 76.9105 802.161 75.147C808.057 74.453 827.799 73.9303 849.926 73.5539C872.115 73.1764 896.859 72.9448 912.873 72.8472L912.895 76.3536C896.89 76.4512 872.159 76.6826 849.986 77.0598C827.75 77.4381 808.242 77.9617 802.568 78.6296C788.626 80.2706 765.383 91.4809 755.205 117.299C750.222 129.938 752.755 146.539 759.162 160.9C762.35 168.045 766.456 174.536 770.949 179.591Z" fill="#45F7E1"/>
<path fill-rule="evenodd" clip-rule="evenodd" d="M595.784 189.419C594.299 188.756 593.09 187.611 592.148 186.065L595.13 184.235C595.771 185.288 596.478 185.889 597.204 186.213C597.935 186.539 598.832 186.649 599.954 186.47C602.275 186.099 605.256 184.542 608.81 181.848C615.868 176.498 624.376 167.303 633.116 157.082C637.472 151.988 641.86 146.67 646.129 141.489L646.688 140.811C650.756 135.873 654.712 131.073 658.404 126.747C662.262 122.227 665.859 118.196 669.022 115.049C672.136 111.95 674.992 109.54 677.358 108.456C679.216 107.605 680.981 108.251 682.367 109.424C683.697 110.55 684.933 112.337 686.113 114.49C688.494 118.833 691.002 125.335 693.708 133.083C695.423 137.99 697.225 143.421 699.139 149.186C703.312 161.76 708.016 175.93 713.49 189.753C721.479 209.927 730.986 229.015 742.587 240.943C748.368 246.887 754.583 250.963 761.3 252.577C767.983 254.182 775.341 253.395 783.523 249.298C808.012 237.035 828.263 226.077 844.899 217.077C851.341 213.591 857.241 210.398 862.635 207.537C872.278 202.423 880.328 198.353 886.939 195.585C893.498 192.839 898.864 191.274 903.063 191.381C904.228 191.41 905.294 191.827 906.089 192.706C906.838 193.535 907.194 194.608 907.345 195.685C907.643 197.807 907.235 200.626 906.43 203.802C904.798 210.231 901.296 218.998 896.91 228.607C888.121 247.865 875.605 270.893 866.761 286.22L863.737 284.461C872.554 269.181 885.009 246.261 893.733 227.145C898.104 217.568 901.493 209.041 903.043 202.935C903.827 199.843 904.082 197.583 903.884 196.174C903.788 195.486 903.607 195.181 903.5 195.064C903.439 194.996 903.331 194.897 902.975 194.888C899.566 194.802 894.787 196.101 888.285 198.823C881.833 201.525 873.904 205.529 864.268 210.64C858.911 213.482 853.033 216.662 846.606 220.139C829.96 229.146 809.626 240.148 785.084 252.437C776.269 256.852 768.073 257.812 760.487 255.989C752.935 254.174 746.166 249.645 740.086 243.394C727.967 230.933 718.253 211.277 710.242 191.049C704.731 177.134 699.967 162.783 695.779 150.166C693.876 144.432 692.092 139.057 690.41 134.244C687.699 126.483 685.275 120.238 683.051 116.181C681.929 114.134 680.943 112.808 680.114 112.107C679.341 111.452 679.008 111.557 678.81 111.648C677.064 112.448 674.592 114.447 671.482 117.541C668.422 120.587 664.898 124.532 661.058 129.031C657.386 133.333 653.448 138.112 649.373 143.058L648.822 143.726C644.556 148.904 640.148 154.246 635.769 159.367C627.037 169.578 618.31 179.044 610.917 184.648C607.246 187.431 603.698 189.425 600.504 189.935C598.869 190.196 597.263 190.079 595.784 189.419Z" fill="white"/>
<path fill-rule="evenodd" clip-rule="evenodd" d="M707.341 93.7049C707.61 92.7823 708.581 92.2511 709.508 92.5185C716.571 94.5538 723.006 96.4435 729.789 100.313C739.857 106.057 748.556 113.751 756.638 121.719C771.369 136.241 783.723 153.449 793.355 171.655C798.331 181.059 802.307 190.999 806.244 200.839C808.31 206.006 810.366 211.145 812.55 216.165C816.044 224.197 820.58 232.431 827.561 237.366C831.341 240.038 835.852 239.891 840.344 238.084C844.852 236.271 849.075 232.869 851.864 229.556C857.002 223.451 859.419 215.082 860.518 206.1C861.44 198.564 861.418 190.794 861.398 183.803C861.394 182.466 861.39 181.158 861.393 179.885C861.415 170.351 862.269 160.751 863.666 151.346C863.679 151.263 863.692 151.17 863.707 151.07C863.835 150.175 864.053 148.66 864.532 147.302C865.017 145.927 866.086 143.824 868.446 143.584C871.644 143.26 874.52 144.789 876.714 145.956C876.933 146.072 877.145 146.185 877.35 146.292C883.106 149.296 888.196 153.4 893.003 157.39C905.993 168.172 917.96 182.019 925.672 197.182C929.705 205.113 934.506 215.004 935.016 224.5C935.067 225.459 934.327 226.278 933.362 226.33C932.398 226.381 931.574 225.646 931.522 224.686C931.058 216.034 926.632 206.781 922.55 198.753C915.093 184.09 903.46 170.601 890.761 160.061C885.944 156.062 881.111 152.184 875.724 149.372C875.55 149.282 875.38 149.192 875.211 149.104C872.808 147.843 870.883 146.833 868.801 147.045C868.687 147.056 868.276 147.197 867.833 148.453C867.476 149.466 867.305 150.636 867.17 151.565C867.155 151.664 867.141 151.761 867.127 151.854C865.75 161.126 864.913 170.556 864.891 179.892C864.888 181.131 864.892 182.416 864.896 183.738C864.918 190.725 864.942 198.748 863.991 206.52C862.86 215.758 860.326 224.922 854.546 231.788C851.46 235.454 846.79 239.243 841.655 241.309C836.505 243.381 830.624 243.8 825.533 240.201C817.716 234.676 812.869 225.66 809.339 217.547C807.066 212.321 804.972 207.083 802.889 201.873C799.003 192.152 795.156 182.531 790.259 173.275C780.774 155.347 768.624 138.434 754.175 124.189C746.164 116.292 737.72 108.848 728.047 103.33C721.672 99.6932 715.614 97.8998 708.534 95.8595C707.606 95.5921 707.072 94.6275 707.341 93.7049Z" fill="#BEF745"/>
<path fill-rule="evenodd" clip-rule="evenodd" d="M529.781 210.691C529.971 210.473 530.303 210.45 530.522 210.641C541.214 219.954 552.189 227.538 566.478 229.965C582.527 232.691 599.227 230.873 613.008 222.013C618.656 218.382 623.664 213.97 628.61 209.425C629.392 208.706 630.173 207.983 630.955 207.26C635.107 203.419 639.281 199.557 643.795 196.098C652.689 189.28 661.683 186.419 672.884 187.566C681.109 188.408 690.138 191.427 697.537 196.442C704.937 201.458 710.746 208.498 712.436 217.389C713.278 221.819 713.172 225.99 711.661 229.426C710.14 232.885 707.223 235.534 702.587 236.947C697.617 238.462 692.469 239.047 687.38 239.626C686.534 239.722 685.69 239.818 684.849 239.918C678.922 240.622 673.107 241.529 667.624 244.072C663.539 245.967 661.468 248.586 660.522 251.718C659.563 254.889 659.743 258.632 660.281 262.793C661.835 274.783 669.341 286.152 680.063 291.933C685.173 294.689 690.996 295.523 697.003 295.628C700.005 295.68 703.043 295.551 706.052 295.393C706.651 295.361 707.251 295.328 707.848 295.296C710.242 295.165 712.61 295.036 714.903 294.988C715.193 294.982 715.433 295.212 715.439 295.502C715.445 295.792 715.215 296.031 714.925 296.037C712.651 296.084 710.306 296.212 707.914 296.343C707.314 296.376 706.712 296.409 706.107 296.44C703.094 296.599 700.026 296.73 696.985 296.677C690.906 296.571 684.888 295.728 679.564 292.857C668.531 286.907 660.834 275.237 659.24 262.928C658.699 258.751 658.488 254.815 659.516 251.415C660.555 247.976 662.845 245.132 667.182 243.12C672.828 240.501 678.788 239.581 684.725 238.876C685.576 238.774 686.427 238.678 687.276 238.581C692.369 238.001 697.41 237.428 702.281 235.943C706.658 234.609 709.315 232.152 710.699 229.004C712.094 225.834 712.224 221.9 711.404 217.585C709.781 209.045 704.191 202.22 696.947 197.31C689.703 192.4 680.843 189.435 672.776 188.61C661.865 187.493 653.133 190.262 644.434 196.93C639.963 200.357 635.83 204.181 631.678 208.022C630.894 208.747 630.109 209.473 629.321 210.197C624.37 214.747 619.306 219.212 613.576 222.896C599.517 231.934 582.533 233.757 566.302 231C551.726 228.524 540.572 220.787 529.831 211.432C529.613 211.241 529.59 210.91 529.781 210.691Z" fill="white"/>
<path fill-rule="evenodd" clip-rule="evenodd" d="M598.323 95.1868C598.328 94.1448 598.333 93.1148 598.312 92.1129C598.306 91.8224 598.536 91.5821 598.826 91.5761C599.116 91.57 599.357 91.8007 599.363 92.0912C599.385 93.1517 599.379 94.2116 599.374 95.2679C599.364 97.3622 599.353 99.4417 599.555 101.481C599.824 104.184 601.813 106.458 604.423 108.334C607.018 110.2 610.117 111.595 612.406 112.57C620.338 115.947 627.938 117.368 636.544 116.57C642.656 116.003 648.444 113.245 654.113 109.924C656.082 108.771 658.043 107.545 659.997 106.323C663.629 104.052 667.236 101.797 670.815 100.058C674.187 98.4189 678.025 96.5782 681.985 95.5347C685.951 94.4899 690.09 94.2306 694.051 95.8016C696.887 96.9264 699.447 98.7612 701.736 101.002C700.387 90.8473 700.701 80.945 707.444 72.5445C710.283 69.0079 713.381 66.9158 716.858 65.6931C720.321 64.4756 724.135 64.1292 728.387 64.0412L750.818 63.5769C751.108 63.5709 751.348 63.8015 751.354 64.092C751.36 64.3825 751.13 64.6229 750.84 64.6289L728.409 65.0932C724.187 65.1806 720.508 65.5251 717.207 66.6859C713.92 67.8415 710.983 69.8152 708.263 73.2036C701.688 81.3947 701.43 91.112 702.845 101.365C702.889 101.678 702.936 101.988 702.988 102.297C703.999 103.397 704.952 104.573 705.847 105.793C709.044 110.15 711.536 115.116 713.328 119.396C713.683 120.245 714.014 121.101 714.322 121.964C715.942 123.485 717.675 124.925 719.486 126.298C722.249 128.395 725.097 130.423 727.953 132.457C732.787 135.899 737.644 139.358 742.155 143.193C742.556 143.534 742.965 143.88 743.379 144.23C748.04 148.169 753.388 152.689 756.399 158.089C758.488 161.836 759.111 166.733 758.699 171.528C758.285 176.327 756.829 181.092 754.685 184.601C746.292 198.337 725.988 200.27 716.722 186.656C713.981 182.629 713.513 178.053 713.84 173.46C714.003 171.163 714.367 168.847 714.751 166.582C714.823 166.16 714.895 165.741 714.967 165.323C715.283 163.49 715.591 161.699 715.802 159.965C717.315 147.531 717.576 134.4 713.416 122.554C707.777 117.209 703.446 110.821 702.006 102.784C699.54 100.145 696.757 98.0068 693.663 96.7798C689.985 95.3209 686.095 95.5403 682.253 96.5523C678.406 97.5658 674.657 99.3603 671.274 101.004C667.741 102.722 664.223 104.922 660.627 107.171C658.662 108.4 656.673 109.644 654.644 110.832C648.945 114.171 642.992 117.029 636.641 117.618C627.842 118.434 620.067 116.975 611.995 113.538C609.701 112.561 606.507 111.129 603.809 109.189C601.126 107.26 598.823 104.749 598.509 101.585C598.302 99.4933 598.312 97.3149 598.323 95.1868ZM703.417 104.385C704.909 110.559 708.208 115.715 712.516 120.183C712.464 120.056 712.412 119.93 712.359 119.803C710.586 115.568 708.132 110.683 705 106.416C704.49 105.72 703.962 105.041 703.417 104.385ZM715.003 124.002C718.618 135.596 718.289 148.225 716.845 160.092C716.631 161.855 716.317 163.678 716.001 165.512C715.93 165.927 715.858 166.343 715.787 166.758C715.404 169.02 715.048 171.293 714.889 173.535C714.57 178.018 715.04 182.317 717.59 186.064C726.365 198.955 745.735 197.233 753.789 184.052C755.833 180.705 757.25 176.104 757.651 171.438C758.053 166.768 757.433 162.103 755.481 158.602C752.569 153.379 747.37 148.983 742.678 145.015C742.272 144.672 741.871 144.332 741.474 143.995C736.989 140.182 732.208 136.778 727.406 133.36C724.542 131.32 721.67 129.276 718.851 127.137C717.526 126.132 716.239 125.089 715.003 124.002Z" fill="#45F7E1"/>
<path fill-rule="evenodd" clip-rule="evenodd" d="M192.209 129.781C192.483 129.781 192.704 130.002 192.704 130.275C192.704 134.185 192.462 138.082 192.183 141.965C192.13 142.701 192.075 143.438 192.021 144.173C191.789 147.319 191.557 150.456 191.433 153.6C191.116 161.617 190.262 169.606 189.343 177.576C189.209 178.735 189.074 179.893 188.939 181.05C188.145 187.862 187.352 194.662 186.851 201.473C185.997 213.073 185.997 224.778 185.997 236.432L185.997 236.722C185.997 236.958 185.996 237.2 185.994 237.445C185.989 238.171 185.984 238.926 186.019 239.667C186.066 240.661 186.184 241.576 186.448 242.295C186.71 243.008 187.091 243.468 187.634 243.67C188.194 243.878 189.048 243.859 190.356 243.326C194.873 241.485 199.016 238.413 203.066 235.409C204.252 234.53 205.43 233.656 206.607 232.821C215.268 226.677 223.824 220.421 232.284 214.007C238.632 209.194 245.065 204.487 251.493 199.783C254.433 197.632 257.372 195.481 260.301 193.322C261.499 192.439 262.716 191.58 263.932 190.722C266.584 188.851 269.23 186.985 271.646 184.886C271.819 184.735 271.917 184.622 271.969 184.546C271.916 184.522 271.841 184.496 271.74 184.471C271.453 184.4 271.069 184.364 270.665 184.341C270.514 184.332 270.354 184.326 270.198 184.319C269.968 184.309 269.748 184.3 269.584 184.286C265.611 183.949 261.644 183.934 257.654 183.918C255.598 183.91 253.537 183.902 251.465 183.85C251.301 183.846 251.135 183.842 250.968 183.838C247.516 183.755 243.404 183.656 240.098 182.19C239.459 181.907 238.983 181.518 238.669 181.032C238.355 180.546 238.225 179.997 238.22 179.43C238.211 178.317 238.687 177.077 239.303 175.904C239.925 174.718 240.728 173.536 241.441 172.527C241.625 172.267 241.802 172.02 241.967 171.789C242.457 171.104 242.851 170.553 243.068 170.171C243.202 169.933 243.504 169.85 243.743 169.984C243.981 170.118 244.065 170.42 243.93 170.657C243.686 171.089 243.244 171.706 242.742 172.407C242.583 172.63 242.418 172.86 242.251 173.097C241.541 174.1 240.771 175.237 240.18 176.362C239.583 177.499 239.204 178.56 239.211 179.422C239.214 179.842 239.309 180.198 239.502 180.496C239.694 180.794 240.006 181.068 240.5 181.287C243.619 182.67 247.55 182.766 251.06 182.852C251.204 182.855 251.347 182.859 251.49 182.862C253.516 182.913 255.555 182.921 257.601 182.929C261.617 182.945 265.657 182.961 269.668 183.301C269.818 183.314 269.996 183.321 270.201 183.33C270.358 183.337 270.531 183.344 270.721 183.354C271.131 183.378 271.594 183.417 271.977 183.512C272.168 183.559 272.368 183.626 272.54 183.731C272.712 183.836 272.901 184.008 272.972 184.275C273.044 184.546 272.967 184.803 272.844 185.012C272.723 185.22 272.535 185.424 272.297 185.631C269.842 187.763 267.127 189.679 264.454 191.565C263.249 192.415 262.051 193.26 260.89 194.116C257.954 196.281 255.012 198.433 252.071 200.586C245.646 205.287 239.225 209.985 232.883 214.794C224.415 221.215 215.85 227.477 207.182 233.626C206.045 234.433 204.893 235.287 203.724 236.155C199.657 239.171 195.375 242.348 190.73 244.241C189.318 244.816 188.183 244.928 187.288 244.596C186.376 244.257 185.836 243.504 185.518 242.635C185.201 241.772 185.078 240.736 185.03 239.714C184.993 238.943 184.999 238.149 185.003 237.418C185.005 237.178 185.006 236.945 185.006 236.722L185.006 236.415C185.006 224.773 185.006 213.037 185.863 201.4C186.365 194.566 187.161 187.744 187.955 180.933C188.09 179.776 188.225 178.62 188.358 177.463C189.278 169.495 190.127 161.538 190.443 153.561C190.568 150.399 190.801 147.241 191.033 144.094C191.088 143.36 191.142 142.627 191.195 141.894C191.474 138.014 191.714 134.147 191.714 130.275C191.714 130.002 191.935 129.781 192.209 129.781Z" fill="#45F7E1"/>
<path fill-rule="evenodd" clip-rule="evenodd" d="M88.9187 82.0592C88.9158 81.7854 89.1355 81.5611 89.4092 81.5582C93.3319 81.5172 97.244 81.7186 101.143 81.9576C101.883 82.003 102.622 82.0497 103.361 82.0963C106.52 82.2958 109.669 82.4948 112.825 82.5861C120.872 82.8192 128.897 83.5895 136.903 84.4261C138.067 84.5477 139.23 84.6707 140.393 84.7936C147.236 85.517 154.066 86.2391 160.905 86.6692C172.553 87.4017 184.297 87.2789 195.989 87.1566L196.28 87.1535C196.518 87.151 196.76 87.1501 197.006 87.1491C197.734 87.1462 198.492 87.1432 199.236 87.1003C200.232 87.0428 201.149 86.9156 201.867 86.6439C202.58 86.3746 203.038 85.9886 203.234 85.4428C203.437 84.8801 203.409 84.0252 202.861 82.7224C200.967 78.2216 197.841 74.1074 194.785 70.0856C193.89 68.908 193.001 67.7382 192.151 66.569C185.896 57.9663 179.53 49.4695 173.006 41.0714C168.11 34.7688 163.32 28.3809 158.533 21.997C156.344 19.0777 154.156 16.1593 151.958 13.2503C151.06 12.0611 150.185 10.8517 149.312 9.64364C147.407 7.00928 145.507 4.38165 143.376 1.98552C143.223 1.81351 143.108 1.71676 143.031 1.66603C143.008 1.71882 142.982 1.79416 142.958 1.89628C142.89 2.18392 142.858 2.56795 142.839 2.9727C142.832 3.12397 142.827 3.28459 142.822 3.44046C142.815 3.67107 142.807 3.89125 142.795 4.05526C142.499 8.03513 142.525 12.005 142.551 15.998C142.565 18.0552 142.578 20.1185 142.548 22.1924C142.545 22.3566 142.543 22.5225 142.541 22.6899C142.493 26.1451 142.437 30.2617 141.001 33.5855C140.724 34.2271 140.339 34.7075 139.854 35.0272C139.369 35.3463 138.82 35.4825 138.251 35.493C137.134 35.5136 135.885 35.0512 134.702 34.447C133.506 33.8363 132.311 33.0457 131.292 32.3425C131.028 32.1609 130.779 31.9869 130.545 31.8236C129.853 31.3408 129.296 30.9519 128.911 30.7393C128.671 30.6071 128.584 30.3055 128.716 30.0658C128.848 29.826 129.15 29.7389 129.39 29.8711C129.825 30.1113 130.449 30.5467 131.158 31.0417C131.383 31.1987 131.616 31.3617 131.855 31.5263C132.869 32.2255 134.018 32.9846 135.153 33.5639C136.3 34.1498 137.368 34.5176 138.233 34.5017C138.654 34.4939 139.011 34.3952 139.308 34.1993C139.604 34.0039 139.876 33.6892 140.091 33.1923C141.446 30.0562 141.501 26.1213 141.55 22.6079C141.552 22.4638 141.554 22.3204 141.556 22.1778C141.586 20.1495 141.573 18.1085 141.56 16.0613C141.534 12.042 141.507 7.99903 141.807 3.98161C141.818 3.83092 141.823 3.65326 141.83 3.4474C141.835 3.29043 141.84 3.11707 141.849 2.92679C141.868 2.51663 141.903 2.05286 141.993 1.6685C142.039 1.477 142.104 1.27582 142.207 1.10308C142.311 0.929794 142.481 0.73896 142.749 0.66473C143.02 0.589636 143.278 0.664575 143.49 0.78504C143.699 0.904 143.906 1.09045 144.116 1.32654C146.282 3.76067 148.232 6.45706 150.152 9.11224C151.018 10.31 151.878 11.4995 152.749 12.6527C154.952 15.5677 157.142 18.4894 159.332 21.4102C164.117 27.7906 168.898 34.1673 173.789 40.4631C180.32 48.8703 186.693 57.3756 192.953 65.9859C193.774 67.1154 194.643 68.2588 195.526 69.4198C198.595 73.4576 201.827 77.7094 203.775 82.3378C204.367 83.745 204.492 84.8801 204.167 85.7793C203.837 86.6954 203.087 87.2432 202.218 87.5714C201.356 87.8972 200.318 88.031 199.293 88.0902C198.52 88.1347 197.723 88.1379 196.989 88.1408C196.749 88.1417 196.515 88.1426 196.291 88.145L195.983 88.1482C184.302 88.2704 172.527 88.3936 160.843 87.6588C153.981 87.2272 147.127 86.5026 140.285 85.7793C139.123 85.6564 137.961 85.5336 136.8 85.4122C128.795 84.5759 120.803 83.8091 112.796 83.5772C109.622 83.4853 106.452 83.285 103.291 83.0854C102.554 83.0389 101.818 82.9924 101.082 82.9473C97.1867 82.7085 93.3045 82.5091 89.4196 82.5497C89.1458 82.5526 88.9216 82.3329 88.9187 82.0592Z" fill="#45F7E1"/>
<path fill-rule="evenodd" clip-rule="evenodd" d="M376.689 220.817C376.942 220.918 377.066 221.205 376.965 221.458C375.137 226.027 373.308 230.594 371.479 235.16C361.655 259.68 351.84 284.18 342.41 308.859C341.892 310.215 341.385 311.615 340.87 313.035C338.837 318.645 336.685 324.581 333.271 329.463C331.274 332.317 329.104 333.948 326.571 334.832C324.058 335.709 321.226 335.837 317.94 335.764C310.82 335.605 303.687 334.695 296.71 333.367C268.027 327.908 240.161 317.436 212.938 307.206C212.063 306.877 211.189 306.549 210.316 306.221C186.215 297.169 162.153 287.674 139.111 276.098C136.456 274.765 133.839 273.338 131.229 271.916C130.698 271.626 130.167 271.337 129.636 271.049C126.493 269.341 123.348 267.666 120.127 266.178C119.955 266.099 119.674 265.985 119.392 265.89C120.347 267.362 121.557 268.726 122.849 270.059C123.383 270.61 123.935 271.159 124.487 271.709C125.462 272.68 126.438 273.652 127.314 274.63C131.561 279.375 135.85 284.072 140.142 288.771C143.205 292.125 146.27 295.48 149.32 298.855C149.798 299.383 150.277 299.909 150.756 300.436C154.944 305.041 159.132 309.644 162.178 315.207C162.309 315.446 162.221 315.746 161.981 315.877C161.742 316.008 161.441 315.92 161.31 315.681C158.324 310.227 154.218 305.713 150.019 301.096C149.542 300.571 149.064 300.045 148.586 299.516C145.543 296.151 142.481 292.798 139.418 289.444C135.122 284.74 130.824 280.034 126.576 275.288C125.716 274.328 124.78 273.396 123.821 272.441C123.264 271.887 122.7 271.325 122.138 270.746C120.628 269.188 119.174 267.535 118.105 265.681C118.051 265.587 117.936 265.354 118.046 265.095C118.164 264.815 118.431 264.751 118.535 264.735C118.661 264.716 118.79 264.727 118.893 264.741C119.004 264.756 119.121 264.782 119.237 264.812C119.692 264.929 120.247 265.146 120.542 265.282C123.794 266.784 126.964 268.473 130.109 270.181C130.642 270.471 131.175 270.761 131.707 271.051C134.317 272.473 136.917 273.891 139.555 275.216C162.548 286.767 186.57 296.247 210.664 305.296C211.528 305.621 212.391 305.945 213.256 306.27C240.502 316.509 268.298 326.954 296.896 332.397C303.833 333.718 310.91 334.619 317.962 334.776C321.232 334.849 323.911 334.714 326.244 333.9C328.556 333.093 330.565 331.605 332.46 328.897C335.792 324.134 337.886 318.359 339.916 312.762C340.437 311.325 340.953 309.9 341.486 308.507C350.919 283.82 360.737 259.313 370.56 234.794C372.389 230.227 374.219 225.661 376.046 221.092C376.147 220.839 376.435 220.715 376.689 220.817Z" fill="#45F7E1"/>
<path fill-rule="evenodd" clip-rule="evenodd" d="M159.5 164.781C159.776 164.781 160 165.002 160 165.275V263.288C160 263.56 159.776 263.781 159.5 263.781C159.224 263.781 159 263.56 159 263.288V165.275C159 165.002 159.224 164.781 159.5 164.781Z" fill="#45F7E1"/>
<path fill-rule="evenodd" clip-rule="evenodd" d="M492.747 121.552C493.232 122.321 492.999 123.335 492.224 123.818C437.199 158.096 382.772 193.158 328.604 228.767C326.523 230.135 324.439 231.514 322.351 232.896C308.073 242.344 293.557 251.95 277.954 259.368C274.435 261.041 269.951 263.09 265.657 263.844C264.366 264.071 263.089 263.916 262.144 263.027C261.269 262.204 261.037 261.072 260.979 260.21C260.919 259.312 261.027 258.355 261.144 257.549C261.197 257.179 261.249 256.858 261.296 256.567C261.363 256.152 261.42 255.8 261.457 255.461C261.599 254.129 261.755 252.818 261.909 251.52C262.329 247.974 262.739 244.52 262.851 240.982C262.856 240.81 262.886 240.555 262.91 240.349L262.912 240.329C262.917 240.288 262.922 240.246 262.927 240.202C262.952 239.98 262.982 239.726 263.011 239.444C263.082 238.766 263.147 237.975 263.149 237.241C263.15 236.803 263.127 236.447 263.09 236.175C260.825 236.835 258.614 238.129 256.333 239.464C255.739 239.812 255.139 240.163 254.533 240.506C240.388 248.509 226.81 257.46 213.192 266.438C212.651 266.794 212.111 267.151 211.571 267.507C210.809 268.009 209.782 267.803 209.276 267.046C208.771 266.29 208.978 265.27 209.74 264.768C210.291 264.405 210.842 264.041 211.394 263.678C224.987 254.716 238.649 245.709 252.894 237.649C253.393 237.367 253.918 237.059 254.464 236.738C256.995 235.25 259.988 233.49 263.054 232.787C263.729 232.633 264.452 232.723 265.069 233.16C265.622 233.551 265.915 234.099 266.079 234.527C266.399 235.367 266.461 236.4 266.459 237.249C266.457 238.147 266.379 239.066 266.304 239.783C266.272 240.085 266.241 240.36 266.215 240.582C266.21 240.624 266.205 240.664 266.201 240.703C266.187 240.825 266.176 240.922 266.168 240.997C266.159 241.083 266.159 241.101 266.16 241.085C266.043 244.776 265.609 248.436 265.183 252.026C265.032 253.296 264.882 254.558 264.748 255.809C264.705 256.215 264.622 256.733 264.542 257.23C264.498 257.506 264.455 257.776 264.42 258.017C264.309 258.784 264.246 259.456 264.282 259.991C264.31 260.408 264.388 260.578 264.416 260.628C264.488 260.65 264.679 260.678 265.08 260.607C268.867 259.942 272.968 258.094 276.525 256.403C291.9 249.093 306.204 239.628 320.5 230.17C322.591 228.786 324.682 227.402 326.777 226.026C380.962 190.406 435.412 155.329 490.465 121.033C491.239 120.55 492.261 120.783 492.747 121.552ZM264.379 260.612C264.379 260.611 264.387 260.614 264.399 260.623C264.385 260.617 264.379 260.613 264.379 260.612ZM262.964 235.648C262.964 235.648 262.966 235.651 262.968 235.657C262.965 235.651 262.964 235.648 262.964 235.648Z" fill="#45F7E1"/>
<path fill-rule="evenodd" clip-rule="evenodd" d="M380.571 38.3251C381.186 39.0023 381.134 40.0483 380.455 40.6614L380.397 40.7132C362.596 56.7875 345.073 72.6109 328.358 89.7645C322.164 96.121 316.04 102.596 309.904 109.083C297.564 122.129 285.176 135.226 272.078 147.513C269.339 150.082 264.287 154.566 260.681 157.005C260.629 157.04 260.566 157.084 260.494 157.135C260.144 157.378 259.579 157.773 259.033 158.03C258.432 158.312 257.082 158.798 255.894 157.838C255.461 157.487 255.264 157.034 255.17 156.765C255.066 156.465 255.01 156.156 254.976 155.888C254.909 155.348 254.906 154.741 254.921 154.201C254.938 153.65 254.976 153.103 255.008 152.671C255.014 152.596 255.019 152.526 255.024 152.461C255.034 152.33 255.043 152.216 255.05 152.114C255.055 152.039 255.059 151.979 255.061 151.932C255.064 151.881 255.064 151.861 255.064 151.862C255.064 151.666 255.085 151.22 255.11 150.657C255.123 150.374 255.138 150.062 255.152 149.738C255.195 148.716 255.239 147.461 255.244 146.243C255.248 145.149 255.221 144.135 255.144 143.362C255.036 143.425 254.919 143.498 254.793 143.583C254.341 143.884 253.964 144.188 253.584 144.495C253.385 144.656 253.185 144.817 252.974 144.979C249.178 147.879 245.494 150.952 242.015 154.201C233.733 161.938 225.764 170.024 218.285 178.512C217.982 178.855 217.641 179.189 217.262 179.424C216.912 179.639 216.177 179.979 215.34 179.634C214.544 179.306 214.261 178.598 214.163 178.288C214.05 177.926 214.017 177.552 214.005 177.262C213.982 176.668 214.04 175.975 214.091 175.428C214.1 175.329 214.108 175.236 214.117 175.147C214.16 174.678 214.191 174.348 214.191 174.131V120.479C214.191 119.566 214.934 118.825 215.85 118.825C216.765 118.825 217.508 119.566 217.508 120.479V174.131C217.508 174.217 217.506 174.309 217.501 174.406C224.561 166.527 232.025 159.001 239.748 151.787C243.317 148.453 247.086 145.31 250.956 142.353C251.053 142.279 251.184 142.173 251.34 142.048C251.765 141.706 252.372 141.218 252.948 140.833C253.72 140.318 254.899 139.65 256.185 139.694C256.839 139.716 257.306 140.054 257.578 140.356C257.831 140.637 257.977 140.947 258.065 141.172C258.242 141.629 258.34 142.167 258.403 142.662C258.532 143.683 258.566 144.992 258.561 146.257C258.555 147.537 258.509 148.841 258.465 149.877C258.447 150.313 258.43 150.686 258.416 150.989C258.395 151.443 258.381 151.741 258.381 151.862C258.381 152.068 258.354 152.416 258.329 152.74C258.325 152.801 258.32 152.86 258.316 152.918C258.284 153.342 258.251 153.826 258.237 154.297C258.233 154.428 258.231 154.553 258.231 154.672C258.312 154.618 258.394 154.561 258.48 154.501L258.537 154.461C258.629 154.398 258.727 154.33 258.819 154.267C262.19 151.988 267.078 147.662 269.805 145.103C282.834 132.881 295.1 119.913 307.397 106.912C313.55 100.406 319.711 93.8919 325.98 87.459C342.769 70.2294 360.358 54.3465 378.133 38.2952L378.228 38.2092C378.907 37.596 379.956 37.648 380.571 38.3251Z" fill="#45F7E1"/>
<path fill-rule="evenodd" clip-rule="evenodd" d="M173.533 27.8214C173.347 28.0403 173.208 28.2045 173.129 28.2923C159.91 42.9219 147.203 57.9981 134.475 73.099C131.511 76.6156 128.547 80.1334 125.574 83.6474C109.846 102.238 93.9093 120.702 76.8255 138.168C76.1879 138.82 75.1441 138.83 74.4941 138.19C73.8441 137.551 73.8341 136.504 74.4718 135.852C91.4669 118.477 107.339 100.09 123.059 81.5078C126.023 78.0045 128.982 74.4938 131.942 70.9816C144.672 55.8777 157.424 40.7476 170.686 26.0717L170.688 26.0685L170.697 26.0589C170.704 26.0506 170.714 26.0397 170.725 26.0258C170.75 25.9979 170.78 25.9623 170.817 25.9181C170.857 25.871 170.9 25.8201 170.949 25.7629C170.995 25.7083 171.046 25.6479 171.104 25.5793C171.335 25.3072 171.638 24.9517 171.986 24.5536C172.678 23.7632 173.568 22.7822 174.443 21.9394C174.881 21.5184 175.335 21.1118 175.774 20.7746C176.188 20.4573 176.697 20.1157 177.234 19.9298C177.732 19.7574 178.863 19.545 179.677 20.507C180.009 20.8987 180.141 21.3424 180.196 21.6867C180.252 22.0372 180.246 22.3959 180.212 22.7346C179.779 27.1688 178.14 31.5744 176.692 35.4686C176.615 35.6761 176.538 35.8822 176.462 36.0867C172.215 47.5319 167.064 58.5994 161.953 69.5758C159.771 74.2612 157.568 78.9304 155.368 83.5952C147.467 100.343 139.592 117.034 132.808 134.222C132.443 135.148 131.946 136.258 131.416 137.44C131.269 137.769 131.119 138.103 130.969 138.44C130.267 140.018 129.532 141.72 128.906 143.44C128.278 145.165 127.777 146.863 127.527 148.43C127.363 149.464 127.315 150.395 127.391 151.213C127.993 150.987 128.785 150.628 129.745 150.145C132.198 148.909 135.438 147.015 138.696 145.017C145.081 141.103 151.387 136.884 151.64 136.715L151.648 136.709C174.552 121.49 196.926 105.493 219.325 89.4792L220.396 88.7137C243.852 71.9441 267.611 55.7766 291.426 39.5856C292.18 39.0732 293.205 39.2706 293.716 40.0265C294.227 40.7824 294.03 41.8105 293.276 42.3229C269.457 58.5168 245.73 74.663 222.31 91.4065L221.219 92.1863C198.834 108.19 176.42 124.215 153.469 139.466C153.47 139.466 153.053 139.745 152.343 140.215C151.63 140.687 150.614 141.355 149.395 142.149C146.957 143.736 143.699 145.826 140.416 147.838C137.142 149.846 133.807 151.799 131.225 153.1C129.95 153.743 128.779 154.267 127.862 154.544C127.426 154.676 126.896 154.801 126.384 154.779C126.121 154.767 125.742 154.713 125.363 154.498C124.938 154.257 124.606 153.861 124.456 153.359C123.942 151.641 123.978 149.752 124.271 147.908C124.567 146.052 125.143 144.135 125.808 142.307C126.475 140.474 127.249 138.686 127.958 137.092C128.12 136.728 128.278 136.376 128.43 136.036C128.953 134.869 129.407 133.855 129.743 133.005C136.57 115.707 144.505 98.8871 152.413 82.125C154.608 77.474 156.8 72.8275 158.966 68.1764C164.086 57.1807 169.179 46.2329 173.372 34.9334C173.432 34.7703 173.493 34.6071 173.554 34.4439C174.795 31.1024 176.044 27.7395 176.651 24.3986C175.422 25.5922 174.188 27.0483 173.533 27.8214Z" fill="white"/>
<path fill-rule="evenodd" clip-rule="evenodd" d="M118.169 208.33C107.652 208.45 97.1295 208.571 86.6065 208.571C85.6928 208.571 84.952 207.83 84.952 206.917C84.952 206.003 85.6928 205.263 86.6065 205.263C97.0472 205.263 107.528 205.143 118.027 205.023C139.084 204.782 160.211 204.54 181.216 205.264C181.348 205.268 181.558 205.285 181.792 205.362C182.016 205.436 182.432 205.621 182.726 206.076C183.05 206.577 183.034 207.1 182.945 207.445C182.866 207.752 182.72 207.972 182.639 208.083C182.474 208.31 182.277 208.481 182.159 208.577C182.021 208.691 181.872 208.799 181.732 208.895C181.279 209.207 180.683 209.552 180.329 209.757C180.264 209.794 180.208 209.827 180.162 209.854C162.768 220.038 147.007 233.55 132.058 247.176C102.926 273.73 75.7747 302.557 49.4908 331.977C34.2331 349.055 18.9444 365.956 2.83262 382.289C2.19102 382.939 1.14345 382.946 0.492811 382.305C-0.157826 381.664 -0.165152 380.616 0.476449 379.966C16.5268 363.695 31.7691 346.847 47.0227 329.774C73.3407 300.316 100.577 271.394 129.829 244.732C144.13 231.696 159.345 218.601 176.115 208.416C156.836 207.886 137.511 208.108 118.169 208.33ZM180.077 206.005C180.077 206.005 180.075 206.008 180.068 206.013C180.074 206.008 180.077 206.005 180.077 206.005Z" fill="#BEF745"/>
<path fill-rule="evenodd" clip-rule="evenodd" d="M338.956 288.069C339.165 288.967 338.612 289.864 337.721 290.075C321.961 293.795 306.498 297.978 291.069 302.879C275.777 307.736 260.386 311.934 243.857 310.346C241.002 310.072 238.073 309.691 235.601 308.512C233.017 307.28 230.997 305.213 229.907 301.798C229.372 300.122 229.217 298.395 229.183 296.766C229.172 296.245 229.174 295.693 229.182 295.138C226.358 298.966 223.66 302.855 221.105 306.866C211.023 322.691 199.921 337.791 187.926 352.185C187.338 352.891 186.293 352.983 185.592 352.391C184.891 351.798 184.8 350.746 185.388 350.04C197.297 335.749 208.314 320.763 218.316 305.064C221.331 300.331 224.534 295.776 227.895 291.305C227.959 291.22 228.025 291.131 228.092 291.041C228.281 290.788 228.476 290.527 228.645 290.316C228.765 290.167 228.902 290.005 229.048 289.858C229.179 289.727 229.4 289.519 229.697 289.365C229.999 289.208 230.63 288.985 231.334 289.309C231.975 289.604 232.234 290.159 232.331 290.417C232.522 290.929 232.547 291.561 232.547 292.095C232.547 292.815 232.532 293.473 232.516 294.114C232.496 294.967 232.477 295.791 232.496 296.696C232.526 298.182 232.668 299.542 233.062 300.777C233.865 303.293 235.243 304.649 237.018 305.496C238.905 306.395 241.294 306.747 244.172 307.024C259.977 308.543 274.805 304.545 290.072 299.696C305.591 294.767 321.136 290.562 336.965 286.826C337.856 286.615 338.747 287.172 338.956 288.069ZM231.406 292.204C231.406 292.204 231.402 292.207 231.396 292.213C231.403 292.206 231.406 292.204 231.406 292.204Z" fill="white"/>
<path fill-rule="evenodd" clip-rule="evenodd" d="M337.896 74.9739C338.064 75.1911 338.025 75.504 337.808 75.6727C329.915 81.8228 322.01 87.9552 314.106 94.0871C291.786 111.403 269.472 128.714 247.445 146.406C221.947 166.888 196.915 187.911 171.876 208.964C169.297 211.132 166.721 213.308 164.143 215.485C151.904 225.819 139.635 236.18 126.918 245.923C126.921 245.92 126.916 245.924 126.894 245.942C126.876 245.958 126.852 245.979 126.821 246.006C126.788 246.035 126.749 246.069 126.704 246.108C126.666 246.142 126.623 246.18 126.576 246.222C126.372 246.4 126.096 246.642 125.766 246.921C125.109 247.478 124.238 248.188 123.325 248.844C122.418 249.495 121.442 250.112 120.578 250.466C120.147 250.642 119.712 250.766 119.31 250.78C118.9 250.794 118.481 250.694 118.161 250.372C117.821 250.032 117.691 249.487 117.631 248.993C117.567 248.468 117.57 247.858 117.598 247.265C117.626 246.669 117.681 246.069 117.728 245.562C117.776 245.039 117.813 244.641 117.813 244.408V213.706C117.813 212.083 117.82 210.462 117.827 208.842C117.847 204.335 117.867 199.835 117.732 195.34C117.72 194.938 117.721 194.501 117.722 194.039C117.724 193.231 117.726 192.346 117.658 191.443C117.552 190.032 117.279 188.775 116.662 187.987C116.35 187.588 115.794 187.333 114.997 187.226C114.208 187.12 113.261 187.171 112.275 187.308C110.831 187.509 109.392 187.877 108.315 188.152C107.91 188.256 107.557 188.346 107.273 188.41C106.311 188.625 105.355 188.848 104.4 189.07C99.5067 190.208 94.6683 191.334 89.5056 191.431C89.2315 191.436 89.0052 191.217 89.0001 190.942C88.995 190.667 89.213 190.44 89.4871 190.435C94.5363 190.34 99.2575 189.243 104.15 188.105C105.111 187.882 106.079 187.657 107.057 187.437C107.301 187.383 107.624 187.3 108.006 187.202C109.088 186.926 110.633 186.531 112.139 186.322C113.163 186.179 114.211 186.116 115.128 186.239C116.037 186.36 116.899 186.677 117.443 187.372C118.256 188.41 118.54 189.934 118.648 191.368C118.718 192.299 118.716 193.278 118.715 194.118C118.714 194.564 118.714 194.97 118.724 195.31C118.86 199.824 118.84 204.349 118.82 208.861C118.812 210.478 118.805 212.093 118.805 213.706V244.408C118.805 244.688 118.765 245.123 118.721 245.596L118.716 245.654C118.669 246.164 118.616 246.742 118.589 247.312C118.562 247.886 118.562 248.43 118.616 248.873C118.673 249.346 118.779 249.584 118.863 249.668C118.929 249.735 119.045 249.792 119.275 249.784C119.513 249.776 119.824 249.698 120.203 249.543C120.958 249.234 121.858 248.672 122.747 248.034C123.631 247.4 124.478 246.709 125.126 246.16C125.449 245.886 125.721 245.649 125.922 245.472C125.961 245.438 125.998 245.405 126.033 245.374C126.168 245.256 126.273 245.163 126.315 245.131C139.012 235.404 151.26 225.062 163.498 214.728C166.077 212.549 168.656 210.372 171.239 208.2C196.276 187.148 221.316 166.118 246.825 145.629C268.859 127.93 291.183 110.611 313.505 93.2942C321.408 87.1635 329.31 81.033 337.199 74.8859C337.416 74.7172 337.728 74.7566 337.896 74.9739Z" fill="#45F7E1"/>
<path fill-rule="evenodd" clip-rule="evenodd" d="M269.981 71.8431C282.612 67.7556 295.979 64.373 309.462 64.8212C310.459 64.8544 312.317 65.0353 314.189 65.4094C315.126 65.5968 316.076 65.8344 316.928 66.13C317.775 66.4235 318.556 66.7843 319.132 67.231C320.403 68.2152 320.745 69.6086 320.559 71.0815C320.375 72.5319 319.68 74.109 318.815 75.6014C317.242 78.318 315.019 80.9027 313.934 82.1643C313.825 82.2917 313.727 82.4056 313.642 82.5048C297.717 101.197 277.148 115.96 257.138 129.777C241.224 140.765 224.995 151.328 208.58 161.593C211.089 162.795 213.593 164.001 216.095 165.208C242.805 178.092 268.854 192.263 293.282 209.156C304.724 217.068 315.848 225.579 325.168 236.011C328.294 239.51 330.527 243.08 332.847 246.789C333.523 247.87 334.206 248.962 334.921 250.068C335.069 250.298 335.003 250.605 334.772 250.753C334.541 250.901 334.233 250.835 334.084 250.605C333.352 249.472 332.658 248.363 331.976 247.273C329.665 243.577 327.489 240.1 324.425 236.67C315.183 226.326 304.136 217.868 292.715 209.969C268.344 193.116 242.344 178.97 215.662 166.1C212.972 164.802 210.28 163.506 207.584 162.216C194.019 170.685 180.329 178.954 166.587 187.093C155.655 193.569 144.587 199.776 133.455 205.891C132.641 206.338 131.751 206.792 130.834 207.259L130.656 207.349C129.793 207.788 128.907 208.238 128.03 208.708C126.326 209.62 124.678 210.593 123.324 211.669C123.641 211.738 124.063 211.797 124.529 211.844C125.597 211.953 126.749 211.989 127.041 211.998C127.078 211.999 127.101 212 127.109 212C139.556 212.647 151.651 214.844 163.645 218.207C187.865 224.997 211.355 234.192 234.547 243.771C261.307 254.823 286.746 268.229 312.281 281.684C314.282 282.739 316.284 283.794 318.288 284.848C318.53 284.975 318.623 285.275 318.495 285.517C318.367 285.759 318.066 285.852 317.823 285.724C315.822 284.671 313.822 283.617 311.823 282.564C286.281 269.104 260.88 255.72 234.166 244.686C210.981 235.11 187.536 225.935 163.376 219.161C151.441 215.815 139.419 213.632 127.057 212.99C127.058 212.99 127.043 212.99 126.993 212.988C126.949 212.987 126.888 212.985 126.811 212.982C126.659 212.977 126.447 212.969 126.197 212.957C125.7 212.933 125.05 212.893 124.428 212.83C123.817 212.768 123.192 212.679 122.767 212.547C122.658 212.513 122.549 212.472 122.45 212.422C122.358 212.375 122.24 212.302 122.148 212.188C122.043 212.06 121.966 211.87 122.015 211.65C122.058 211.459 122.179 211.328 122.272 211.249C123.778 209.968 125.665 208.849 127.559 207.835C128.446 207.36 129.341 206.905 130.202 206.467L130.381 206.376C131.3 205.909 132.177 205.461 132.975 205.023C144.102 198.911 155.16 192.71 166.079 186.242C179.636 178.211 193.141 170.057 206.523 161.708C191.008 154.294 175.36 147.096 159.293 141.017C151.254 137.976 142.823 135.031 134.251 134.333C133.052 134.236 132.353 134.191 132.019 134.171C131.937 134.166 131.872 134.163 131.832 134.16C131.811 134.159 131.793 134.158 131.778 134.157C131.772 134.156 131.762 134.155 131.751 134.154C131.746 134.154 131.734 134.152 131.72 134.15C131.713 134.149 131.699 134.146 131.68 134.142L131.68 134.142C131.674 134.14 131.611 134.126 131.544 134.086C131.495 134.052 131.377 133.922 131.328 133.816C131.303 133.649 131.391 133.379 131.469 133.291C131.517 133.253 131.598 133.208 131.628 133.196C131.646 133.189 131.678 133.18 131.691 133.177C131.729 133.169 131.761 133.167 131.764 133.166L131.764 133.166C131.781 133.165 131.795 133.165 131.8 133.165C131.814 133.164 131.831 133.164 131.847 133.164C131.862 133.164 131.877 133.164 131.893 133.164C131.921 133.164 131.954 133.164 131.995 133.164C132.508 133.161 133.899 133.137 135.118 132.87C147.31 130.2 158.691 124.158 169.765 118.28C171.202 117.517 172.633 116.757 174.061 116.007C176.298 114.833 178.537 113.654 180.777 112.475C209.647 97.2789 238.8 81.9331 269.981 71.8431ZM207.52 161.086C224.106 150.723 240.5 140.059 256.571 128.962C276.587 115.142 297.053 100.445 312.884 81.8636C312.97 81.7623 313.069 81.647 313.179 81.519C314.269 80.2513 316.43 77.7368 317.954 75.1062C318.794 73.6551 319.413 72.2137 319.572 70.9578C319.727 69.7243 319.438 68.7236 318.521 68.0131C318.068 67.6622 317.404 67.3441 316.601 67.0658C315.805 66.7896 314.902 66.5626 313.993 66.3809C312.173 66.0172 310.37 65.8428 309.429 65.8115C296.124 65.3692 282.89 68.7073 270.288 72.7855C239.193 82.8478 210.113 98.1547 181.227 113.359C178.992 114.535 176.758 115.711 174.525 116.884C173.102 117.631 171.673 118.39 170.235 119.153C159.529 124.838 148.4 130.747 136.508 133.569C144.48 134.555 152.278 137.303 159.647 140.091C175.947 146.258 191.813 153.573 207.52 161.086ZM131.823 134.155C131.823 134.155 131.823 134.155 131.824 134.155C131.822 134.155 131.821 134.155 131.823 134.155ZM122.885 211.529C122.885 211.529 122.885 211.53 122.886 211.53C122.885 211.53 122.885 211.529 122.885 211.529ZM122.918 212.002C122.916 212.004 122.916 212.005 122.915 212.005L122.918 212.002ZM122.915 212.005C122.915 212.005 122.916 212.004 122.918 212.002L122.915 212.005Z" fill="#BEF745"/>
<path fill-rule="evenodd" clip-rule="evenodd" d="M170.779 262.864C170.654 263.132 170.525 263.409 170.423 263.579C168.033 267.566 165.666 271.571 163.299 275.578C159.999 281.164 156.698 286.752 153.328 292.298C147.542 301.819 142.021 311.497 136.497 321.181C136.065 321.939 135.634 322.696 135.201 323.453C129.244 333.893 123.259 344.325 116.915 354.547C116.771 354.78 116.466 354.851 116.234 354.707C116.002 354.562 115.93 354.257 116.075 354.024C122.408 343.82 128.385 333.402 134.342 322.962C134.774 322.204 135.207 321.446 135.639 320.688C141.162 311.005 146.688 301.316 152.482 291.783C155.851 286.238 159.145 280.663 162.44 275.085C164.808 271.078 167.176 267.069 169.574 263.069C169.647 262.947 169.752 262.724 169.885 262.439C169.901 262.404 169.918 262.369 169.935 262.333C170.081 262.02 170.254 261.657 170.421 261.384C170.501 261.251 170.6 261.106 170.714 260.996C170.791 260.923 171.08 260.669 171.443 260.838C171.602 260.912 171.692 261.037 171.742 261.129C171.792 261.223 171.822 261.325 171.843 261.419C171.884 261.607 171.904 261.85 171.908 262.145C172.023 271.052 172.011 279.988 171.867 288.894C171.704 299.022 171.376 309.159 171.048 319.288C170.913 323.451 170.778 327.613 170.655 331.772C170.61 333.282 170.509 334.877 170.407 336.505L170.396 336.68C170.289 338.372 170.182 340.099 170.133 341.821C170.034 345.27 170.167 348.663 170.981 351.648C171.048 351.895 171.116 352.044 171.171 352.129C171.186 352.151 171.197 352.167 171.207 352.177C171.238 352.163 171.299 352.127 171.395 352.037C171.582 351.863 171.787 351.591 171.993 351.28C172.126 351.078 172.245 350.884 172.355 350.705C172.415 350.606 172.473 350.511 172.53 350.422C175.432 345.823 178.037 341.292 180.045 336.265C180.147 336.011 180.435 335.888 180.689 335.989C180.943 336.091 181.066 336.379 180.964 336.633C178.923 341.742 176.281 346.333 173.367 350.951C173.323 351.019 173.272 351.103 173.215 351.196C173.099 351.386 172.96 351.613 172.818 351.827C172.604 352.151 172.346 352.505 172.069 352.763C171.824 352.99 171.394 353.301 170.896 353.131C170.653 353.048 170.473 352.872 170.341 352.668C170.21 352.466 170.108 352.21 170.026 351.909C169.173 348.78 169.043 345.271 169.143 341.793C169.193 340.051 169.301 338.308 169.408 336.618L169.418 336.449C169.521 334.816 169.621 333.236 169.665 331.743C169.789 327.578 169.924 323.413 170.058 319.247C170.386 309.122 170.714 298.998 170.877 288.878C171.019 280.115 171.033 271.324 170.923 262.559C170.892 262.623 170.861 262.688 170.831 262.754C170.814 262.79 170.796 262.827 170.779 262.864ZM171.41 261.702C171.41 261.702 171.407 261.706 171.401 261.71C171.407 261.704 171.41 261.702 171.41 261.702Z" fill="white"/>
<path fill-rule="evenodd" clip-rule="evenodd" d="M211.219 44.8664C211.446 44.713 211.756 44.7726 211.909 44.9994C215.539 50.3508 218.99 55.8081 222.44 61.2615C223.795 63.4047 225.15 65.5473 226.516 67.6827C235.698 82.0429 245.827 95.7256 256.038 109.394C258.764 113.042 261.531 116.679 264.304 120.324C277.122 137.174 290.067 154.191 299.577 173.153C299.942 173.881 300.277 174.685 300.607 175.478C300.699 175.7 300.791 175.92 300.883 176.138C301.269 177.051 301.663 177.927 302.12 178.692C302.532 178.463 302.946 178.225 303.363 177.986C304.137 177.542 304.921 177.092 305.726 176.679C320.388 169.145 335.135 161.759 349.879 154.375C358.018 150.298 366.156 146.222 374.278 142.122C374.523 141.999 374.822 142.096 374.946 142.341C375.07 142.585 374.972 142.883 374.727 143.007C366.599 147.11 358.458 151.187 350.318 155.265C335.578 162.647 320.839 170.029 306.182 177.56C305.391 177.966 304.649 178.393 303.894 178.826C303.425 179.095 302.952 179.367 302.459 179.638L302.45 179.643C302.403 179.669 302.269 179.745 302.115 179.771C302.022 179.787 301.895 179.79 301.758 179.739C301.616 179.685 301.507 179.586 301.433 179.471C300.861 178.575 300.396 177.54 299.967 176.523C299.869 176.293 299.774 176.065 299.68 175.839C299.352 175.051 299.035 174.29 298.687 173.596C289.223 154.725 276.346 137.797 263.53 120.949C260.752 117.297 257.977 113.65 255.241 109.986C245.03 96.3194 234.881 82.6102 225.677 68.2158C224.306 66.0713 222.947 63.9233 221.59 61.7772C218.144 56.3288 214.705 50.8923 211.085 45.5549C210.932 45.328 210.991 45.0198 211.219 44.8664Z" fill="#45F7E1"/>
</svg>
