<svg width="155" height="75" viewBox="0 0 155 75" fill="none" xmlns="http://www.w3.org/2000/svg">
<path d="M22.5534 39.701V30.1406H16.1037V39.701H0V65.2092H16.1037V74.8108H22.5534V65.2092H38.6571V39.701H22.5534ZM16.1037 58.863H6.40817V46.0884H16.1037V58.863ZM32.2073 58.863H22.5534V46.0884H32.2073V58.863Z" fill="#45F7E1"/>
<path d="M45.577 39.701V54.0416C45.577 56.7202 43.4132 58.863 40.75 58.863V65.2092C46.9501 65.2092 52.0268 60.2229 52.0268 54.0416V46.0884H61.6806V65.2092H68.1304V39.701H45.577Z" fill="#45F7E1"/>
<path d="M91.6403 52.4757C91.6403 55.9784 88.7691 58.863 85.1905 58.863C82.8186 58.863 80.7381 57.5443 79.6145 55.6488H85.1905V49.2614H78.7407V46.0884H94.886V39.701H72.3325V52.4757C72.3325 59.5224 78.0749 65.2092 85.1905 65.2092C92.3061 65.2092 98.0901 59.5224 98.0901 52.4757H91.6403Z" fill="#45F7E1"/>
<path d="M116.271 49.2614C118.31 46.5829 119.517 43.2862 119.517 39.701H113.067C113.067 43.8631 110.404 47.407 106.617 48.7257V39.701H100.209V65.2092H106.617V55.6488H119.517V65.2092H125.967V49.2614H116.271Z" fill="#45F7E1"/>
<path d="M142.184 58.863C138.647 58.863 135.734 55.9784 135.734 52.4757C135.734 48.9317 138.647 46.0884 142.184 46.0884C145.18 46.0884 147.718 48.1076 148.425 50.8686H155C154.209 44.5636 148.758 39.701 142.184 39.701C135.068 39.701 129.326 45.429 129.326 52.4757C129.326 59.5224 135.068 65.2092 142.184 65.2092C148.758 65.2092 154.209 60.3465 155 54.0416H148.425C147.718 56.8026 145.18 58.863 142.184 58.863Z" fill="#45F7E1"/>
<path d="M19.0465 0V12.9375C19.0465 16.4849 16.2142 19.4063 12.684 19.4063C9.19488 19.4063 6.32148 16.4849 6.32148 12.9375V0H0V12.9375C0 20.074 5.6647 25.8333 12.684 25.8333C15.0238 25.8333 17.1993 25.2073 19.0465 24.1222V25.8333H25.4091V0H19.0465Z" fill="#45F7E1"/>
<path d="M48.5903 9.68228C50.5606 6.96957 51.7921 3.63086 51.7921 0H29.5437V6.46877H42.9666C41.2426 8.43026 38.6976 9.68228 35.8652 9.68228V16.151H48.5903V19.4063H29.5437V25.8333H54.9528V9.68228H48.5903Z" fill="#45F7E1"/>
<path d="M78.134 0V12.9375C78.134 16.4849 75.3016 19.4063 71.7715 19.4063C68.2823 19.4063 65.4089 16.4849 65.4089 12.9375V0H59.0875V12.9375C59.0875 20.074 64.7522 25.8333 71.7715 25.8333C74.1112 25.8333 76.2868 25.2073 78.134 24.1222V25.8333H84.4965V0H78.134Z" fill="#45F7E1"/>
</svg>
