<svg width="540" height="40" viewBox="0 0 540 40" fill="none" xmlns="http://www.w3.org/2000/svg">
<path d="M15.552 28.9C23.58 28.9 29.268 23.284 29.268 15.292C29.268 7.372 23.58 1.72 15.552 1.72C7.524 1.72 1.836 7.372 1.836 15.292C1.836 23.284 7.524 28.9 15.552 28.9ZM15.552 26.02C9.468 26.02 5.112 21.52 5.112 15.292C5.112 9.064 9.468 4.6 15.552 4.6C21.636 4.6 25.956 9.064 25.956 15.292C25.956 21.52 21.636 26.02 15.552 26.02ZM43.4613 28.72C48.7533 28.72 52.8573 24.58 52.8573 18.892C52.8573 13.204 48.7893 9.1 43.4973 9.1C40.5813 9.1 38.1333 10.324 36.8013 12.52H36.4773V1.54H33.4893V28H36.4773V25.192H36.8013C38.1333 27.424 40.4733 28.72 43.4613 28.72ZM43.1373 26.02C39.2133 26.02 36.3693 22.888 36.3693 18.892C36.3693 14.896 39.2133 11.8 43.1373 11.8C47.0253 11.8 49.8693 14.896 49.8693 18.892C49.8693 22.96 47.0253 26.02 43.1373 26.02ZM58.9058 6.364C60.1658 6.364 61.0658 5.464 61.0658 4.204C61.0658 2.98 60.1658 2.116 58.9058 2.116C57.6458 2.116 56.7458 2.98 56.7458 4.204C56.7458 5.464 57.6458 6.364 58.9058 6.364ZM55.5218 36.1C58.3658 36.1 60.4178 33.76 60.4178 30.52V9.82H57.4298V30.52C57.4298 32.212 56.3498 33.4 54.6938 33.4C53.9738 33.4 53.0378 33.292 52.3538 33.076V35.632C53.1818 35.92 54.4058 36.1 55.5218 36.1ZM75.022 28.72C79.054 28.72 82.33 26.848 83.806 23.752L81.322 22.492C80.17 24.652 77.794 26.02 75.094 26.02C71.386 26.02 68.722 23.572 68.29 19.9H84.382C84.418 19.504 84.418 19.072 84.418 18.712C84.418 13.132 80.422 9.1 74.878 9.1C69.262 9.1 65.23 13.132 65.23 18.676C65.23 24.508 69.334 28.72 75.022 28.72ZM68.326 17.272C68.83 13.996 71.386 11.8 74.734 11.8C78.19 11.8 80.746 13.996 81.286 17.272H68.326ZM97.1536 28.72C101.51 28.72 105.254 25.948 106.082 22.096L103.13 21.7C102.41 24.256 99.9976 26.02 97.1536 26.02C93.4456 26.02 90.6736 23.104 90.6736 18.892C90.6376 14.716 93.4816 11.8 97.1896 11.8C99.9616 11.8 102.446 13.564 103.094 16.192L106.01 15.796C105.326 11.908 101.618 9.1 97.1536 9.1C91.6456 9.1 87.6856 13.204 87.6856 18.892C87.6496 24.58 91.6456 28.72 97.1536 28.72ZM116.153 28.684C117.053 28.684 118.241 28.504 119.105 28.216V25.804C118.421 26.02 117.485 26.164 116.945 26.164C115.217 26.164 114.137 24.94 114.137 23.212V12.196H118.817V9.82H114.137L114.173 3.952H111.833L111.149 9.82H108.197V12.196H111.149V23.32C111.149 26.524 113.093 28.684 116.153 28.684ZM141.88 28.9C148.108 28.9 151.744 25.912 151.744 21.16C151.744 15.4 146.524 14.392 141.916 13.636C138.172 13.06 134.788 12.448 134.788 9.1C134.788 6.364 137.02 4.6 141.124 4.6C145.48 4.6 148 6.724 148 10.324H151.168C151.132 4.96 147.352 1.72 141.124 1.72C135.004 1.72 131.512 4.708 131.512 9.28C131.512 14.788 136.552 15.976 141.124 16.696C144.94 17.308 148.468 17.884 148.468 21.376C148.468 24.22 146.056 26.02 141.916 26.02C137.164 26.02 134.392 23.68 134.356 19.756H131.116C131.116 25.408 135.22 28.9 141.88 28.9ZM161.231 28.576C164.147 28.576 166.271 27.424 167.567 25.336H167.891V28H170.879V15.94C170.879 11.8 167.891 9.136 163.175 9.136C158.603 9.136 155.615 11.584 155.615 15.436H158.639C158.603 13.168 160.403 11.836 163.139 11.836C166.127 11.836 167.891 13.42 167.891 15.868V16.588L162.851 17.2C157.451 17.812 154.715 20.188 154.715 23.392C154.715 26.524 157.307 28.576 161.231 28.576ZM161.663 26.092C159.215 26.092 157.703 25.048 157.703 23.32C157.703 21.628 159.143 20.188 162.851 19.72L167.891 19.144V20.764C167.891 23.824 165.371 26.092 161.663 26.092ZM175.657 28H178.645V17.38C178.645 14.212 181.273 11.836 184.333 11.836C187.465 11.836 189.301 14.068 189.301 17.128V28H192.289V17.128C192.289 12.52 189.337 9.136 184.729 9.136C182.317 9.136 180.301 10.288 179.005 12.304H178.645V9.82H175.657V28ZM204.51 28.72C209.154 28.72 211.926 26.668 211.926 23.104C211.926 18.748 208.002 17.884 204.582 17.452C201.882 17.128 199.434 16.948 199.434 14.68C199.434 12.808 201.234 11.62 203.862 11.62C206.67 11.62 208.578 13.024 208.614 15.256H211.53C211.53 11.512 208.434 9.1 203.898 9.1C199.542 9.1 196.59 11.26 196.59 14.788C196.59 18.928 200.514 19.828 203.898 20.224C206.634 20.584 209.118 20.764 209.118 23.14C209.118 25.048 207.354 26.2 204.618 26.2C201.198 26.2 199.182 24.436 199.146 21.844H196.266C196.266 26.164 199.29 28.72 204.51 28.72Z" fill="white"/>
<path d="M297.924 8.716C295.908 8.716 294 9.256 292.344 10.228V8.716H286.8V39.388H292.344V29.524C294 30.46 295.908 31 297.924 31C304.08 31 309.084 26.032 309.084 19.876C309.084 13.72 304.08 8.716 297.924 8.716ZM297.924 25.456C294.864 25.456 292.344 22.936 292.344 19.876C292.344 16.78 294.864 14.296 297.924 14.296C301.02 14.296 303.504 16.78 303.504 19.876C303.504 22.936 301.02 25.456 297.924 25.456ZM317.155 10.228V8.716H311.611V31H317.155V19.876C317.155 16.78 319.675 14.296 322.735 14.296V8.716C320.719 8.716 318.811 9.256 317.155 10.228ZM340.172 8.716V10.228C338.552 9.256 336.644 8.716 334.592 8.716C328.436 8.716 323.468 13.72 323.468 19.876C323.468 26.032 328.436 31 334.592 31C336.644 31 338.552 30.46 340.172 29.524V31H345.752V8.716H340.172ZM334.592 25.456C331.532 25.456 329.012 22.936 329.012 19.876C329.012 16.78 331.532 14.296 334.592 14.296C337.688 14.296 340.172 16.78 340.172 19.876C340.172 22.936 337.688 25.456 334.592 25.456ZM359.403 25.456C356.343 25.456 353.823 22.936 353.823 19.876C353.823 16.78 356.343 14.296 359.403 14.296C361.995 14.296 364.191 16.06 364.803 18.472H370.491C369.807 12.964 365.091 8.716 359.403 8.716C353.247 8.716 348.279 13.72 348.279 19.876C348.279 26.032 353.247 31 359.403 31C365.091 31 369.807 26.752 370.491 21.244H364.803C364.191 23.656 361.995 25.456 359.403 25.456ZM379.623 25.456V14.296H382.395V8.716H379.623V0.364H374.043V8.716H371.271V14.296H374.043V31H383.799V25.456H379.623ZM390.77 31V8.716H385.226V31H390.77ZM390.77 5.908V0.364H385.226V5.908H390.77ZM404.41 25.456C401.35 25.456 398.83 22.936 398.83 19.876C398.83 16.78 401.35 14.296 404.41 14.296C407.002 14.296 409.198 16.06 409.81 18.472H415.498C414.814 12.964 410.098 8.716 404.41 8.716C398.254 8.716 393.286 13.72 393.286 19.876C393.286 26.032 398.254 31 404.41 31C410.098 31 414.814 26.752 415.498 21.244H409.81C409.198 23.656 407.002 25.456 404.41 25.456ZM434.783 19.876C434.783 22.936 432.299 25.456 429.203 25.456C427.151 25.456 425.351 24.304 424.379 22.648H429.203V17.068H423.623V14.296H437.591V8.716H418.079V19.876C418.079 26.032 423.047 31 429.203 31C435.359 31 440.363 26.032 440.363 19.876H434.783ZM464.084 22.648V17.068H441.8V22.648H464.084ZM478.042 5.908V0.364C473.11 0.364 469.042 4 468.394 8.716H465.514V14.296H468.286V31H473.866V14.296H476.638V8.716H474.082C474.658 7.096 476.206 5.908 478.042 5.908ZM489.873 8.716C483.717 8.716 478.749 13.72 478.749 19.876C478.749 26.032 483.717 31 489.873 31C496.029 31 501.033 26.032 501.033 19.876C501.033 13.72 496.029 8.716 489.873 8.716ZM489.873 25.456C486.813 25.456 484.293 22.936 484.293 19.876C484.293 16.78 486.813 14.296 489.873 14.296C492.969 14.296 495.453 16.78 495.453 19.876C495.453 22.936 492.969 25.456 489.873 25.456ZM514.666 8.716C512.65 8.716 510.742 9.256 509.086 10.228V8.716H503.542V31H509.086V19.876C509.086 16.78 511.606 14.296 514.666 14.296C517.762 14.296 520.246 16.78 520.246 19.876V31H525.826V19.876C525.826 13.72 520.822 8.716 514.666 8.716ZM535.608 25.456V14.296H538.38V8.716H535.608V0.364H530.028V8.716H527.256V14.296H530.028V31H539.784V25.456H535.608Z" fill="white"/>
</svg>
