<svg width="859" height="419" viewBox="0 0 859 419" fill="none" xmlns="http://www.w3.org/2000/svg">
<path d="M13.0254 128.277C11.2085 128.277 9.48895 128.747 7.99649 129.594V128.277H3V155H7.99649V146.406C9.48895 147.221 11.2085 147.692 13.0254 147.692C18.5735 147.692 23.0833 143.363 23.0833 138C23.0833 132.637 18.5735 128.277 13.0254 128.277ZM13.0254 142.862C10.2676 142.862 7.99649 140.666 7.99649 138C7.99649 135.303 10.2676 133.138 13.0254 133.138C15.8157 133.138 18.0544 135.303 18.0544 138C18.0544 140.666 15.8157 142.862 13.0254 142.862Z" fill="white"/>
<path d="M30.3573 129.594V128.277H25.3608V147.692H30.3573V138C30.3573 135.303 32.6284 133.138 35.3862 133.138V128.277C33.5693 128.277 31.8497 128.747 30.3573 129.594Z" fill="white"/>
<path d="M51.1009 128.277V129.594C49.6409 128.747 47.9213 128.277 46.0719 128.277C40.5239 128.277 36.0465 132.637 36.0465 138C36.0465 143.363 40.5239 147.692 46.0719 147.692C47.9213 147.692 49.6409 147.221 51.1009 146.406V147.692H56.1298V128.277H51.1009ZM46.0719 142.862C43.3141 142.862 41.043 140.666 41.043 138C41.043 135.303 43.3141 133.138 46.0719 133.138C48.8622 133.138 51.1009 135.303 51.1009 138C51.1009 140.666 48.8622 142.862 46.0719 142.862Z" fill="white"/>
<path d="M68.4327 142.862C65.6749 142.862 63.4038 140.666 63.4038 138C63.4038 135.303 65.6749 133.138 68.4327 133.138C70.7688 133.138 72.7479 134.675 73.2994 136.777H78.4257C77.8093 131.978 73.559 128.277 68.4327 128.277C62.8847 128.277 58.4073 132.637 58.4073 138C58.4073 143.363 62.8847 147.692 68.4327 147.692C73.559 147.692 77.8093 143.991 78.4257 139.192H73.2994C72.7479 141.293 70.7688 142.862 68.4327 142.862Z" fill="white"/>
<path d="M86.6565 142.862V133.138H89.1548V128.277H86.6565V121H81.6276V128.277H79.1294V133.138H81.6276V147.692H90.4201V142.862H86.6565Z" fill="white"/>
<path d="M96.7025 147.692V128.277H91.706V147.692H96.7025ZM96.7025 125.83V121H91.706V125.83H96.7025Z" fill="white"/>
<path d="M108.995 142.862C106.237 142.862 103.966 140.666 103.966 138C103.966 135.303 106.237 133.138 108.995 133.138C111.331 133.138 113.31 134.675 113.862 136.777H118.988C118.372 131.978 114.122 128.277 108.995 128.277C103.447 128.277 98.9698 132.637 98.9698 138C98.9698 143.363 103.447 147.692 108.995 147.692C114.122 147.692 118.372 143.991 118.988 139.192H113.862C113.31 141.293 111.331 142.862 108.995 142.862Z" fill="white"/>
<path d="M136.369 138C136.369 140.666 134.13 142.862 131.34 142.862C129.49 142.862 127.868 141.858 126.992 140.415H131.34V135.554H126.311V133.138H138.899V128.277H121.314V138C121.314 143.363 125.792 147.692 131.34 147.692C136.888 147.692 141.397 143.363 141.397 138H136.369Z" fill="white"/>
<path d="M162.776 140.415V135.554H142.693V140.415H162.776Z" fill="white"/>
<path d="M175.356 125.83V121C170.911 121 167.245 124.168 166.661 128.277H164.065V133.138H166.563V147.692H171.592V133.138H174.09V128.277H171.787C172.306 126.865 173.701 125.83 175.356 125.83Z" fill="white"/>
<path d="M186.018 128.277C180.47 128.277 175.993 132.637 175.993 138C175.993 143.363 180.47 147.692 186.018 147.692C191.566 147.692 196.076 143.363 196.076 138C196.076 132.637 191.566 128.277 186.018 128.277ZM186.018 142.862C183.26 142.862 180.989 140.666 180.989 138C180.989 135.303 183.26 133.138 186.018 133.138C188.808 133.138 191.047 135.303 191.047 138C191.047 140.666 188.808 142.862 186.018 142.862Z" fill="white"/>
<path d="M208.362 128.277C206.546 128.277 204.826 128.747 203.334 129.594V128.277H198.337V147.692H203.334V138C203.334 135.303 205.605 133.138 208.362 133.138C211.153 133.138 213.391 135.303 213.391 138V147.692H218.42V138C218.42 132.637 213.91 128.277 208.362 128.277Z" fill="white"/>
<path d="M227.236 142.862V133.138H229.735V128.277H227.236V121H222.207V128.277H219.709V133.138H222.207V147.692H231V142.862H227.236Z" fill="white"/>
<path d="M13.0254 76.4908C11.2085 76.4908 9.48895 76.9751 7.99649 77.8469V76.4908H3V104H7.99649V95.1531C9.48895 95.9926 11.2085 96.4769 13.0254 96.4769C18.5735 96.4769 23.0833 92.0212 23.0833 86.5C23.0833 80.9788 18.5735 76.4908 13.0254 76.4908ZM13.0254 91.5046C10.2676 91.5046 7.99649 89.2445 7.99649 86.5C7.99649 83.7232 10.2676 81.4954 13.0254 81.4954C15.8157 81.4954 18.0544 83.7232 18.0544 86.5C18.0544 89.2445 15.8157 91.5046 13.0254 91.5046Z" fill="white"/>
<path d="M30.3573 77.8469V76.4908H25.3608V96.4769H30.3573V86.5C30.3573 83.7232 32.6284 81.4954 35.3862 81.4954V76.4908C33.5693 76.4908 31.8497 76.9751 30.3573 77.8469Z" fill="white"/>
<path d="M51.1009 76.4908V77.8469C49.6409 76.9751 47.9213 76.4908 46.0719 76.4908C40.5239 76.4908 36.0465 80.9788 36.0465 86.5C36.0465 92.0212 40.5239 96.4769 46.0719 96.4769C47.9213 96.4769 49.6409 95.9926 51.1009 95.1531V96.4769H56.1298V76.4908H51.1009ZM46.0719 91.5046C43.3141 91.5046 41.043 89.2445 41.043 86.5C41.043 83.7232 43.3141 81.4954 46.0719 81.4954C48.8622 81.4954 51.1009 83.7232 51.1009 86.5C51.1009 89.2445 48.8622 91.5046 46.0719 91.5046Z" fill="white"/>
<path d="M68.4327 91.5046C65.6749 91.5046 63.4038 89.2445 63.4038 86.5C63.4038 83.7232 65.6749 81.4954 68.4327 81.4954C70.7688 81.4954 72.7479 83.0775 73.2994 85.2408H78.4257C77.8093 80.3007 73.559 76.4908 68.4327 76.4908C62.8847 76.4908 58.4073 80.9788 58.4073 86.5C58.4073 92.0212 62.8847 96.4769 68.4327 96.4769C73.559 96.4769 77.8093 92.667 78.4257 87.7269H73.2994C72.7479 89.8902 70.7688 91.5046 68.4327 91.5046Z" fill="white"/>
<path d="M86.6565 91.5046V81.4954H89.1548V76.4908H86.6565V69H81.6276V76.4908H79.1294V81.4954H81.6276V96.4769H90.4201V91.5046H86.6565Z" fill="white"/>
<path d="M96.7025 96.4769V76.4908H91.706V96.4769H96.7025ZM96.7025 73.9723V69H91.706V73.9723H96.7025Z" fill="white"/>
<path d="M108.995 91.5046C106.237 91.5046 103.966 89.2445 103.966 86.5C103.966 83.7232 106.237 81.4954 108.995 81.4954C111.331 81.4954 113.31 83.0775 113.862 85.2408H118.988C118.372 80.3007 114.122 76.4908 108.995 76.4908C103.447 76.4908 98.9698 80.9788 98.9698 86.5C98.9698 92.0212 103.447 96.4769 108.995 96.4769C114.122 96.4769 118.372 92.667 118.988 87.7269H113.862C113.31 89.8902 111.331 91.5046 108.995 91.5046Z" fill="white"/>
<path d="M136.369 86.5C136.369 89.2445 134.13 91.5046 131.34 91.5046C129.49 91.5046 127.868 90.4714 126.992 88.9862H131.34V83.9815H126.311V81.4954H138.899V76.4908H121.314V86.5C121.314 92.0212 125.792 96.4769 131.34 96.4769C136.888 96.4769 141.397 92.0212 141.397 86.5H136.369Z" fill="white"/>
<path d="M162.776 88.9862V83.9815H142.693V88.9862H162.776Z" fill="white"/>
<path d="M175.356 73.9723V69C170.911 69 167.245 72.2611 166.661 76.4908H164.065V81.4954H166.563V96.4769H171.592V81.4954H174.09V76.4908H171.787C172.306 75.0378 173.701 73.9723 175.356 73.9723Z" fill="white"/>
<path d="M186.018 76.4908C180.47 76.4908 175.993 80.9788 175.993 86.5C175.993 92.0212 180.47 96.4769 186.018 96.4769C191.566 96.4769 196.076 92.0212 196.076 86.5C196.076 80.9788 191.566 76.4908 186.018 76.4908ZM186.018 91.5046C183.26 91.5046 180.989 89.2445 180.989 86.5C180.989 83.7232 183.26 81.4954 186.018 81.4954C188.808 81.4954 191.047 83.7232 191.047 86.5C191.047 89.2445 188.808 91.5046 186.018 91.5046Z" fill="white"/>
<path d="M208.362 76.4908C206.546 76.4908 204.826 76.9751 203.334 77.8469V76.4908H198.337V96.4769H203.334V86.5C203.334 83.7232 205.605 81.4954 208.362 81.4954C211.153 81.4954 213.391 83.7232 213.391 86.5V96.4769H218.42V86.5C218.42 80.9788 213.91 76.4908 208.362 76.4908Z" fill="white"/>
<path d="M227.236 91.5046V81.4954H229.735V76.4908H227.236V69H222.207V76.4908H219.709V81.4954H222.207V96.4769H231V91.5046H227.236Z" fill="white"/>
<path d="M738.264 142.418H740.439L746.483 127.258V126H736V127.863H744.087L738.264 142.418Z" fill="white"/>
<path d="M753.374 143C756.649 143 759 140.741 759 137.667C759 134.756 756.868 132.614 754.099 132.358L758.407 127.421V126H748.451V127.863H755.352V128.096L751.22 132.8L751.814 134.36C752.165 134.197 752.781 134.058 753.286 134.058C755.418 134.058 757 135.571 757 137.644C757 139.67 755.462 141.137 753.352 141.137C751.22 141.137 749.594 139.344 749.594 136.922H747.572C747.704 140.438 750.144 143 753.374 143Z" fill="white"/>
<path d="M13.7304 412.019C21.188 412.019 26.9917 407.47 28.2711 400.299C29.5192 393.065 25.2132 388.485 17.7244 388.485C10.2981 388.485 4.46312 393.002 3.215 400.173C1.96688 407.407 6.2417 412.019 13.7304 412.019ZM14.5729 406.554C11.0782 406.554 9.11238 404.058 9.79885 400.299C10.4541 396.477 13.356 393.918 16.8819 393.918C20.3767 393.918 22.3425 396.414 21.6872 400.173C21.0007 404.027 18.1301 406.554 14.5729 406.554Z" fill="white"/>
<path d="M39.0456 411.956C43.2892 411.956 46.6904 408.67 47.5953 403.458C48.5002 398.246 46.1911 394.834 41.9475 394.834C39.9193 394.834 38.2343 395.624 36.9238 397.109L36.6118 397.14L38.2031 387.979H32.337L28.2494 411.545H34.0843L34.4276 409.65L34.7708 409.618C35.5509 411.103 36.9238 411.956 39.0456 411.956ZM37.8287 406.996C35.9877 406.996 34.9268 405.48 35.2701 403.458C35.6133 401.373 37.2983 399.794 39.2016 399.794C41.0738 399.794 42.1347 401.342 41.7915 403.332C41.4171 405.417 39.7633 406.996 37.8287 406.996Z" fill="white"/>
<path d="M54.1667 393.476C56.0701 393.476 57.6614 392.149 58.0047 390.285C58.3167 388.358 57.1622 387 55.1964 387C53.3242 387 51.7016 388.295 51.3896 390.159C51.0464 392.086 52.2009 393.476 54.1667 393.476ZM46.7091 419C50.2039 419 53.0434 416.441 53.6986 412.619L56.7253 395.245H50.8904L47.9885 411.924C47.77 413.156 46.7403 414.04 45.4298 414.04C44.8682 414.04 44.1505 413.977 43.6824 413.851L42.9336 418.431C43.9321 418.747 45.3986 419 46.7091 419Z" fill="white"/>
<path d="M64.8125 411.956C68.9001 411.956 72.5509 410.092 73.8614 407.059L68.9625 406.08C68.3073 407.122 67.184 407.881 65.7174 407.881C64.0012 407.881 63.034 406.807 62.9715 405.038H74.7351C74.8599 404.722 75.0159 403.9 75.0783 403.458C76.0144 398.214 73.0813 394.834 67.7456 394.834C62.4411 394.834 58.1351 398.119 57.2614 403.269C56.3253 408.544 59.4456 411.956 64.8125 411.956ZM63.4708 401.879C64.0949 400.078 65.4054 398.909 67.0279 398.909C68.6817 398.909 69.6178 400.204 69.4618 401.815L63.4708 401.879Z" fill="white"/>
<path d="M83.9088 411.956C88.4957 411.956 92.24 409.555 93.4881 405.48L88.2148 404.753C87.622 406.175 86.1866 407.217 84.6889 407.217C82.8791 407.217 81.8182 405.669 82.1926 403.458C82.6295 401.184 84.3144 399.573 86.1242 399.573C87.5284 399.573 88.6205 400.552 88.6829 402.005L94.1746 401.373C94.393 397.298 91.4287 394.834 86.7795 394.834C81.4438 394.834 77.2938 398.119 76.3889 403.332C75.484 408.544 78.6043 411.956 83.9088 411.956Z" fill="white"/>
<path d="M100.871 411.956C101.838 411.956 103.367 411.766 104.459 411.387L105.115 407.28C104.615 407.407 103.96 407.501 103.523 407.501C102.369 407.501 101.807 406.68 101.994 405.417L103.055 399.446H106.456L107.174 395.245H103.773L104.678 390.159H100.091L98.1564 395.245H95.8474L95.1297 399.446H97.2203L96.1282 405.638C95.4729 409.397 97.3139 411.956 100.871 411.956Z" fill="white"/>
<path d="M123.167 412.019C129.346 412.019 133.932 409.144 134.713 404.69C135.649 399.193 130.625 398.341 126.912 397.772C124.384 397.424 122.262 397.14 122.543 395.466C122.762 394.171 124.228 393.255 126.319 393.255C128.534 393.255 129.814 394.36 129.439 396.35L135.399 396.414C136.21 391.738 132.809 388.485 126.849 388.485C120.983 388.485 116.677 391.391 115.897 395.845C114.867 401.657 120.64 402.163 124.415 402.7C126.6 403.016 128.347 403.363 128.066 404.974C127.817 406.396 126.288 407.217 124.135 407.217C121.482 407.217 120.172 406.017 120.484 404.121L114.306 404.058C113.526 408.733 117.02 412.019 123.167 412.019Z" fill="white"/>
<path d="M141.942 411.956C144.22 411.956 145.905 411.008 147.34 409.176L147.653 409.144L147.216 411.545H153.082L155.921 395.245H150.086L149.65 397.709L149.306 397.74C148.495 395.94 147.184 394.834 144.844 394.834C140.601 394.834 137.168 398.183 136.295 403.332C135.359 408.607 137.605 411.956 141.942 411.956ZM144.688 406.996C142.816 406.996 141.755 405.511 142.13 403.458C142.473 401.342 144.127 399.794 146.061 399.794C147.902 399.794 148.994 401.278 148.62 403.332C148.277 405.448 146.623 406.996 144.688 406.996Z" fill="white"/>
<path d="M155.496 411.545H161.362L162.922 402.605C163.203 400.994 164.482 399.825 165.887 399.825C167.228 399.825 167.884 400.868 167.603 402.447L166.011 411.545H171.878L173.625 401.405C174.311 397.614 172.408 394.866 169.038 394.866C167.166 394.866 165.668 395.719 164.077 397.614L163.796 397.646L164.202 395.245H158.367L155.496 411.545Z" fill="white"/>
<path d="M181.284 412.082C186.37 412.082 189.896 409.902 190.52 406.301C191.206 402.384 187.587 401.657 184.716 401.342C182.625 401.089 180.753 401.057 180.972 399.857C181.128 398.941 182.188 398.309 183.53 398.309C184.997 398.309 185.902 399.036 185.746 400.173L190.925 400.236C191.518 396.887 188.523 394.739 184.029 394.739C179.474 394.739 176.135 396.856 175.511 400.299C174.731 404.816 178.975 405.101 181.845 405.385C183.499 405.543 184.841 405.701 184.622 406.838C184.435 407.849 183.343 408.481 181.939 408.481C180.129 408.481 179.131 407.565 179.38 406.206L174.388 406.175C173.764 409.808 176.447 412.082 181.284 412.082Z" fill="white"/>
<path d="M594.348 143.182C598.009 143.182 600.648 140.808 600.648 137.541C600.648 134.415 598.199 132.111 594.799 132.111C594.276 132.111 593.635 132.205 592.969 132.487L597.914 126L595.323 126.024L589.831 133.169C588.547 134.838 588 136.389 588 137.776C588 140.761 590.663 143.182 594.348 143.182ZM594.395 141.278C591.923 141.301 590.163 139.726 590.163 137.564C590.163 135.449 591.923 133.897 594.419 133.921C596.773 133.921 598.485 135.449 598.485 137.541C598.485 139.703 596.773 141.254 594.395 141.278Z" fill="white"/>
<path d="M610.628 142.594H612.792V138.927H614.884V137.047H612.792V126.024H609.487L602.355 137.564V138.927H610.628V142.594ZM604.97 137.047L610.39 128.186H610.604V137.047H604.97Z" fill="white"/>
<path d="M624.259 130.254C622.286 130.254 620.741 131.1 619.861 132.534H619.647V130.724H617.674V148H619.647V140.831H619.861C620.741 142.241 622.357 143.064 624.283 143.064C627.778 143.064 630.464 140.361 630.464 136.647C630.464 132.934 627.754 130.254 624.259 130.254ZM624.045 132.017C626.613 132.017 628.491 133.991 628.491 136.647C628.491 139.256 626.613 141.301 624.045 141.301C621.454 141.301 619.576 139.256 619.576 136.647C619.576 134.038 621.454 132.017 624.045 132.017Z" fill="white"/>
<path d="M631.493 142.594H633.68L637.128 137.752H637.365L640.813 142.594H643L638.483 136.412L642.762 130.724H640.646L637.365 135.143H637.128L633.847 130.724H631.731L636.01 136.412L631.493 142.594Z" fill="white"/>
<path d="M297 410.574H302.845L304.439 401.631C304.721 399.988 305.971 398.819 307.377 398.819C308.721 398.819 309.409 399.893 309.128 401.473L307.534 410.574H313.379L315.161 400.399C315.817 396.638 313.941 393.857 310.566 393.857C308.69 393.857 307.19 394.71 305.596 396.607H305.314L306.971 387H301.095L297 410.574Z" fill="white"/>
<path d="M323.988 410.985C328.083 410.985 331.74 409.12 333.053 406.087L328.145 405.107C327.489 406.15 326.364 406.908 324.895 406.908C323.176 406.908 322.207 405.834 322.144 404.064H333.928C334.053 403.748 334.209 402.927 334.272 402.484C335.21 397.239 332.271 393.857 326.926 393.857C321.613 393.857 317.299 397.144 316.424 402.295C315.486 407.572 318.612 410.985 323.988 410.985ZM322.644 400.904C323.269 399.103 324.582 397.934 326.208 397.934C327.864 397.934 328.802 399.229 328.646 400.841L322.644 400.904Z" fill="white"/>
<path d="M341.242 410.985C343.524 410.985 345.212 410.037 346.65 408.204L346.962 408.172L346.525 410.574H352.401L355.246 394.268H349.4L348.963 396.733L348.619 396.765C347.806 394.963 346.494 393.857 344.149 393.857C339.898 393.857 336.46 397.207 335.585 402.358C334.647 407.635 336.898 410.985 341.242 410.985ZM343.993 406.023C342.118 406.023 341.055 404.538 341.43 402.484C341.774 400.367 343.43 398.819 345.368 398.819C347.212 398.819 348.306 400.304 347.931 402.358C347.588 404.475 345.931 406.023 343.993 406.023Z" fill="white"/>
<path d="M358.914 410.574H367.416L375.606 394.268H369.385L364.165 405.676H363.853L362.634 394.268H356.414L358.914 410.574Z" fill="white"/>
<path d="M377.359 418C380.735 418 383.079 415.914 385.517 411.364L394.613 394.268H388.58L384.204 403.274H383.892L381.829 394.268H375.515L380.547 410.795C379.828 412.059 378.703 413.292 376.89 413.292C376.109 413.292 375.077 413.102 374.421 412.818L373.671 417.4C374.514 417.747 376.171 418 377.359 418Z" fill="white"/>
<path d="M407.375 411.111C412.47 411.111 416.002 408.931 416.628 405.328C417.315 401.41 413.689 400.683 410.814 400.367C408.72 400.114 406.844 400.083 407.063 398.882C407.219 397.965 408.282 397.333 409.626 397.333C411.095 397.333 412.002 398.06 411.845 399.198L417.034 399.261C417.628 395.911 414.627 393.762 410.126 393.762C405.563 393.762 402.218 395.88 401.593 399.324C400.811 403.843 405.062 404.127 407.938 404.412C409.595 404.57 410.939 404.728 410.72 405.865C410.532 406.877 409.438 407.509 408.032 407.509C406.219 407.509 405.219 406.592 405.469 405.233L400.468 405.202C399.842 408.836 402.531 411.111 407.375 411.111Z" fill="white"/>
<path d="M417.485 410.574H423.33L427.456 387H421.58L417.485 410.574Z" fill="white"/>
<path d="M432.188 410.985C434.47 410.985 436.158 410.037 437.596 408.204L437.908 408.172L437.471 410.574H443.347L446.191 394.268H440.346L439.909 396.733L439.565 396.765C438.752 394.963 437.439 393.857 435.095 393.857C430.844 393.857 427.406 397.207 426.531 402.358C425.593 407.635 427.843 410.985 432.188 410.985ZM434.939 406.023C433.063 406.023 432.001 404.538 432.376 402.484C432.72 400.367 434.376 398.819 436.314 398.819C438.158 398.819 439.252 400.304 438.877 402.358C438.533 404.475 436.877 406.023 434.939 406.023Z" fill="white"/>
<path d="M445.765 410.574H451.642L453.205 401.631C453.486 400.019 454.767 398.85 456.174 398.85C457.518 398.85 458.174 399.893 457.893 401.473L456.299 410.574H462.175L463.926 400.43C464.613 396.638 462.707 393.889 459.331 393.889C457.456 393.889 455.955 394.742 454.361 396.638L454.08 396.67L454.486 394.268H448.641L445.765 410.574Z" fill="white"/>
<path d="M471.285 410.985C472.254 410.985 473.786 410.795 474.88 410.416L475.536 406.308C475.036 406.434 474.38 406.529 473.942 406.529C472.786 406.529 472.223 405.707 472.41 404.443L473.473 398.471H476.88L477.599 394.268H474.192L475.099 389.18H470.504L468.566 394.268H466.253L465.534 398.471H467.628L466.534 404.665C465.878 408.425 467.722 410.985 471.285 410.985Z" fill="white"/>
<path d="M484.742 410.985C488.837 410.985 492.494 409.12 493.807 406.087L488.9 405.107C488.243 406.15 487.118 406.908 485.649 406.908C483.93 406.908 482.961 405.834 482.898 404.064H494.682C494.807 403.748 494.964 402.927 495.026 402.484C495.964 397.239 493.026 393.857 487.681 393.857C482.367 393.857 478.053 397.144 477.178 402.295C476.24 407.572 479.366 410.985 484.742 410.985ZM483.398 400.904C484.024 399.103 485.336 397.934 486.962 397.934C488.618 397.934 489.556 399.229 489.4 400.841L483.398 400.904Z" fill="white"/>
<path d="M502.028 410.985C504.122 410.985 505.716 410.195 507.06 408.709L507.373 408.678L507.029 410.574H512.905L517 387H511.124L509.561 396.164L509.217 396.196C508.435 394.71 506.998 393.857 504.935 393.857C500.715 393.857 497.245 397.207 496.339 402.358C495.432 407.635 497.745 410.985 502.028 410.985ZM504.778 406.023C502.903 406.023 501.84 404.507 502.184 402.484C502.559 400.399 504.216 398.819 506.122 398.819C507.998 398.819 509.061 400.367 508.717 402.358C508.373 404.443 506.685 406.023 504.778 406.023Z" fill="white"/>
<path d="M13.1088 228.75C19.9814 228.75 25.6412 223.969 26.854 217.125C28.0668 210.125 23.9308 205.156 16.9338 205.156C10.0612 205.156 4.40148 209.969 3.21977 216.781C1.97586 223.781 6.11184 228.75 13.1088 228.75ZM13.2332 226.25C8.0399 226.25 5.05453 222.437 5.98745 217.125C6.95148 211.625 11.4606 207.656 16.8094 207.656C22.0027 207.656 24.9881 211.437 24.0552 216.781C23.0911 222.281 18.5509 226.25 13.2332 226.25Z" fill="white"/>
<path d="M37.2175 228.594C41.7577 228.594 45.8315 225.094 46.6712 220.25C47.5419 215.219 44.5876 211.562 39.9541 211.562C37.4974 211.562 35.2583 212.531 33.7657 214.437L33.5169 214.531L35.1961 205H32.615L28.5723 227.969H31.1535L31.5888 225.531L31.9309 225.469C32.7705 227.375 34.6053 228.594 37.2175 228.594ZM37.0309 226.25C33.7346 226.25 31.8065 223.625 32.4285 220.25C33.0504 216.687 36.098 213.906 39.5498 213.906C42.8462 213.906 44.7431 216.5 44.1523 219.906C43.5303 223.5 40.4827 226.25 37.0309 226.25Z" fill="white"/>
<path d="M53.9796 209.187C55.0058 209.187 55.8144 208.5 56.0009 207.5C56.1875 206.344 55.5034 205.5 54.3217 205.5C53.3265 205.5 52.518 206.156 52.3625 207.156C52.1448 208.344 52.829 209.187 53.9796 209.187ZM46.5473 235C48.9107 235 50.932 233.031 51.4607 230.219L54.6326 212.188H52.0515L48.9107 230.062C48.6619 231.562 47.418 232.656 45.9253 232.656C45.3656 232.656 44.5881 232.594 44.0284 232.406L43.8107 234.562C44.4948 234.812 45.521 235 46.5473 235Z" fill="white"/>
<path d="M64.5115 228.594C67.9011 228.594 70.9798 227.062 72.7213 224.344L70.6999 223.094C69.3938 224.969 67.0926 226.25 64.667 226.25C61.5572 226.25 59.6914 224.219 59.8468 221.031H73.7786C73.8719 220.687 73.9341 220.312 73.9652 220.094C74.8359 215.156 71.9127 211.562 67.0615 211.562C62.2725 211.562 58.2609 214.969 57.4523 219.687C56.5505 224.844 59.5359 228.594 64.5115 228.594ZM60.3133 218.75C61.2462 215.906 63.8895 213.906 66.8438 213.906C69.767 213.906 71.5707 215.719 71.5085 218.562L60.3133 218.75Z" fill="white"/>
<path d="M83.6293 228.594C87.2988 228.594 90.9061 226.281 92.1811 222.937L89.6933 222.406C88.6982 224.625 86.2725 226.25 83.6914 226.25C80.6128 226.25 78.7158 223.812 79.3067 220.25C79.9908 216.531 82.9762 213.906 86.2414 213.906C88.5738 213.906 90.4085 215.344 90.564 217.625L93.0518 217.469C93.0829 214.094 90.2219 211.562 86.3036 211.562C81.639 211.562 77.6585 215.062 76.8189 219.906C75.917 224.906 78.8091 228.594 83.6293 228.594Z" fill="white"/>
<path d="M100.073 228.562C100.757 228.562 101.814 228.437 102.561 228.187L102.809 226.062C102.187 226.25 101.348 226.375 100.788 226.375C99.3887 226.375 98.7045 225.406 98.9844 223.875L100.695 214.25H104.706L105.048 212.188H101.037L101.97 207.094H99.9174L98.4558 212.188H95.9058L95.5637 214.25H98.1137L96.4033 223.812C95.9369 226.625 97.3362 228.562 100.073 228.562Z" fill="white"/>
<path d="M122.265 228.75C127.551 228.75 131.034 226.219 131.719 222.187C132.62 217.125 128.236 216.187 124.255 215.531C121.208 215.031 118.44 214.562 118.937 211.75C119.342 209.281 121.674 207.656 125.312 207.656C128.951 207.656 130.786 209.406 130.195 212.562L132.9 212.719C133.74 208.062 130.848 205.156 125.406 205.156C120.181 205.156 116.823 207.656 116.139 211.531C115.268 216.406 119.559 217.531 123.447 218.125C126.587 218.656 129.448 219.094 128.92 222.031C128.484 224.625 126.059 226.25 122.389 226.25C118.347 226.25 116.387 224.312 116.978 220.906L114.18 220.719C113.34 225.625 116.419 228.75 122.265 228.75Z" fill="white"/>
<path d="M141.842 228.594C144.392 228.594 146.476 227.469 148.186 225.469L148.435 225.375L147.969 227.969H150.55L153.348 212.188H150.767L150.301 214.75L149.959 214.844C148.933 212.844 147.222 211.562 144.517 211.562C139.883 211.562 135.965 215.062 135.125 219.906C134.254 224.906 137.084 228.594 141.842 228.594ZM142.247 226.25C138.95 226.25 137.022 223.719 137.644 220.25C138.266 216.562 141.283 213.906 144.765 213.906C148.062 213.906 149.99 216.406 149.368 219.906C148.746 223.562 145.698 226.25 142.247 226.25Z" fill="white"/>
<path d="M155.025 227.969H157.606L159.223 218.844C159.69 216.094 162.395 213.937 165.132 213.937C167.744 213.937 168.926 215.781 168.459 218.469L166.78 227.969H169.361L171.009 218.625C171.725 214.625 169.61 211.594 165.536 211.594C163.546 211.594 161.68 212.5 160.281 214.25L160.001 214.344L160.374 212.188H157.793L155.025 227.969Z" fill="white"/>
<path d="M179.98 228.594C183.898 228.594 186.542 226.906 187.07 223.875C187.755 220.031 184.396 219.187 181.411 218.844C179.234 218.531 177.212 218.469 177.555 216.594C177.834 214.875 179.669 213.75 182.033 213.75C184.365 213.75 185.733 214.875 185.422 216.812L187.91 217C188.501 213.719 186.137 211.562 182.126 211.562C178.456 211.562 175.658 213.344 175.129 216.312C174.476 220.031 177.772 220.875 180.758 221.187C182.966 221.531 185.049 221.594 184.676 223.562C184.365 225.344 182.592 226.406 180.136 226.406C177.275 226.406 175.844 224.969 176.217 222.719L173.761 222.531C173.108 226.281 175.409 228.594 179.98 228.594Z" fill="white"/>
<path d="M8.68279 267.667C12.5463 267.667 15.728 265.117 16.4098 261.467C17.0916 257.733 14.7665 255.083 10.8331 255.083C6.96956 255.083 3.78786 257.65 3.12354 261.283C2.42427 265.017 4.74936 267.667 8.68279 267.667ZM8.75272 266.333C5.83324 266.333 4.15498 264.3 4.67943 261.467C5.22137 258.533 7.75625 256.417 10.7631 256.417C13.6826 256.417 15.3609 258.433 14.8364 261.283C14.2945 264.217 11.7421 266.333 8.75272 266.333Z" fill="white"/>
<path d="M22.2358 267.583C24.7881 267.583 27.0783 265.717 27.5503 263.133C28.0398 260.45 26.379 258.5 23.7742 258.5C22.3931 258.5 21.1344 259.017 20.2953 260.033L20.1554 260.083L21.0995 255H19.6485L17.3758 267.25H18.8268L19.0716 265.95L19.2639 265.917C19.7359 266.933 20.7673 267.583 22.2358 267.583ZM22.1309 266.333C20.2778 266.333 19.1939 264.933 19.5436 263.133C19.8932 261.233 21.6064 259.75 23.5469 259.75C25.4 259.75 26.4664 261.133 26.1342 262.95C25.7846 264.867 24.0714 266.333 22.1309 266.333Z" fill="white"/>
<path d="M31.6588 257.233C32.2357 257.233 32.6902 256.867 32.7951 256.333C32.9 255.717 32.5154 255.267 31.8511 255.267C31.2917 255.267 30.8371 255.617 30.7497 256.15C30.6274 256.783 31.012 257.233 31.6588 257.233ZM27.4806 271C28.8092 271 29.9456 269.95 30.2428 268.45L32.0259 258.833H30.5749L28.8092 268.367C28.6694 269.167 27.9701 269.75 27.131 269.75C26.8163 269.75 26.3793 269.717 26.0646 269.617L25.9422 270.767C26.3268 270.9 26.9037 271 27.4806 271Z" fill="white"/>
<path d="M37.5794 267.583C39.485 267.583 41.2157 266.767 42.1947 265.317L41.0583 264.65C40.3241 265.65 39.0304 266.333 37.6668 266.333C35.9186 266.333 34.8697 265.25 34.9571 263.55H42.789C42.8415 263.367 42.8764 263.167 42.8939 263.05C43.3834 260.417 41.7401 258.5 39.0129 258.5C36.3207 258.5 34.0656 260.317 33.611 262.833C33.1041 265.583 34.7823 267.583 37.5794 267.583ZM35.2194 262.333C35.7438 260.817 37.2298 259.75 38.8906 259.75C40.5339 259.75 41.5478 260.717 41.5129 262.233L35.2194 262.333Z" fill="white"/>
<path d="M48.3267 267.583C50.3896 267.583 52.4175 266.35 53.1342 264.567L51.7357 264.283C51.1763 265.467 49.8127 266.333 48.3617 266.333C46.631 266.333 45.5646 265.033 45.8967 263.133C46.2813 261.15 47.9596 259.75 49.7952 259.75C51.1063 259.75 52.1378 260.517 52.2252 261.733L53.6237 261.65C53.6412 259.85 52.0329 258.5 49.8302 258.5C47.2079 258.5 44.9702 260.367 44.4982 262.95C43.9912 265.617 45.617 267.583 48.3267 267.583Z" fill="white"/>
<path d="M57.5707 267.567C57.9553 267.567 58.5497 267.5 58.9692 267.367L59.1091 266.233C58.7594 266.333 58.2874 266.4 57.9728 266.4C57.1861 266.4 56.8015 265.883 56.9588 265.067L57.9203 259.933H60.1755L60.3678 258.833H58.1126L58.6371 256.117H57.4833L56.6616 258.833H55.2281L55.0358 259.933H56.4693L55.5078 265.033C55.2456 266.533 56.0323 267.567 57.5707 267.567Z" fill="white"/>
<path d="M70.0462 267.667C73.0181 267.667 74.9761 266.317 75.3607 264.167C75.8677 261.467 73.4027 260.967 71.165 260.617C69.4518 260.35 67.8959 260.1 68.1756 258.6C68.4029 257.283 69.714 256.417 71.7594 256.417C73.8048 256.417 74.8362 257.35 74.5041 259.033L76.025 259.117C76.497 256.633 74.8712 255.083 71.8119 255.083C68.8749 255.083 66.9869 256.417 66.6023 258.483C66.1128 261.083 68.5253 261.683 70.7105 262C72.4762 262.283 74.0845 262.517 73.7873 264.083C73.5426 265.467 72.179 266.333 70.1161 266.333C67.8435 266.333 66.7421 265.3 67.0743 263.483L65.5009 263.383C65.0289 266 66.7596 267.667 70.0462 267.667Z" fill="white"/>
<path d="M81.0519 267.583C82.4854 267.583 83.6567 266.983 84.6182 265.917L84.758 265.867L84.4958 267.25H85.9468L87.5202 258.833H86.0692L85.807 260.2L85.6147 260.25C85.0378 259.183 84.0763 258.5 82.5553 258.5C79.9505 258.5 77.7478 260.367 77.2758 262.95C76.7863 265.617 78.3771 267.583 81.0519 267.583ZM81.2791 266.333C79.4261 266.333 78.3422 264.983 78.6918 263.133C79.0415 261.167 80.7372 259.75 82.6952 259.75C84.5483 259.75 85.6321 261.083 85.2825 262.95C84.9329 264.9 83.2196 266.333 81.2791 266.333Z" fill="white"/>
<path d="M88.4628 267.25H89.9138L90.8229 262.383C91.0851 260.917 92.6061 259.767 94.1445 259.767C95.6129 259.767 96.2773 260.75 96.015 262.183L95.071 267.25H96.522L97.4485 262.267C97.8506 260.133 96.6619 258.517 94.3717 258.517C93.2529 258.517 92.204 259 91.4173 259.933L91.26 259.983L91.4697 258.833H90.0187L88.4628 267.25Z" fill="white"/>
<path d="M102.492 267.583C104.694 267.583 106.18 266.683 106.477 265.067C106.862 263.017 104.974 262.567 103.296 262.383C102.072 262.217 100.936 262.183 101.128 261.183C101.285 260.267 102.317 259.667 103.645 259.667C104.956 259.667 105.726 260.267 105.551 261.3L106.949 261.4C107.282 259.65 105.953 258.5 103.698 258.5C101.635 258.5 100.062 259.45 99.7643 261.033C99.3972 263.017 101.25 263.467 102.929 263.633C104.17 263.817 105.341 263.85 105.131 264.9C104.956 265.85 103.96 266.417 102.579 266.417C100.971 266.417 100.166 265.65 100.376 264.45L98.9951 264.35C98.628 266.35 99.9217 267.583 102.492 267.583Z" fill="white"/>
<path d="M742.043 269C745.453 269 747.902 266.608 747.902 263.353C747.902 260.271 745.682 258.003 742.798 257.732L747.284 252.504V251H736.916V252.973H744.103V253.219L739.8 258.2L740.418 259.852C740.784 259.679 741.425 259.532 741.951 259.532C744.171 259.532 745.819 261.134 745.819 263.329C745.819 265.474 744.217 267.027 742.02 267.027C739.8 267.027 738.106 265.129 738.106 262.564H736C736.137 266.288 738.678 269 742.043 269Z" fill="white"/>
<path d="M751.44 268.384H753.706L760 252.332V251H749.082V252.973H757.505L751.44 268.384Z" fill="white"/>
<path d="M594.268 268.182C597.805 268.182 600.346 265.902 600.346 262.799C600.346 259.861 598.043 257.699 595.051 257.44L599.705 252.457V251.024H588.95V252.904H596.405V253.139L591.941 257.887L592.582 259.462C592.962 259.297 593.627 259.156 594.173 259.156C596.476 259.156 598.185 260.684 598.185 262.776C598.185 264.821 596.523 266.301 594.244 266.301C591.941 266.301 590.184 264.491 590.184 262.047H588C588.142 265.596 590.778 268.182 594.268 268.182Z" fill="white"/>
<path d="M608.644 268.182C612.301 268.182 614.936 265.808 614.936 262.541C614.936 259.415 612.49 257.111 609.095 257.111C608.573 257.111 607.932 257.205 607.267 257.487L612.206 251L609.618 251.024L604.133 258.169C602.851 259.838 602.305 261.389 602.305 262.776C602.305 265.761 604.964 268.182 608.644 268.182ZM608.692 266.278C606.223 266.301 604.466 264.726 604.466 262.564C604.466 260.449 606.223 258.897 608.716 258.921C611.066 258.921 612.775 260.449 612.775 262.541C612.775 264.703 611.066 266.254 608.692 266.278Z" fill="white"/>
<path d="M624.285 255.254C622.315 255.254 620.771 256.1 619.893 257.534H619.679V255.724H617.709V273H619.679V265.831H619.893C620.771 267.241 622.386 268.064 624.309 268.064C627.799 268.064 630.482 265.361 630.482 261.647C630.482 257.934 627.775 255.254 624.285 255.254ZM624.071 257.017C626.635 257.017 628.511 258.991 628.511 261.647C628.511 264.256 626.635 266.301 624.071 266.301C621.484 266.301 619.608 264.256 619.608 261.647C619.608 259.038 621.484 257.017 624.071 257.017Z" fill="white"/>
<path d="M631.509 267.594H633.693L637.136 262.752H637.373L640.816 267.594H643L638.489 261.412L642.763 255.724H640.65L637.373 260.143H637.136L633.859 255.724H631.746L636.02 261.412L631.509 267.594Z" fill="white"/>
<path d="M303.327 227C307.243 227 309.886 225.355 310.414 222.4C311.098 218.653 307.741 217.83 304.757 217.495C302.58 217.191 300.56 217.13 300.902 215.302C301.182 213.626 303.016 212.53 305.378 212.53C307.71 212.53 309.078 213.626 308.767 215.515L311.254 215.698C311.844 212.499 309.482 210.397 305.472 210.397C301.803 210.397 299.005 212.134 298.477 215.028C297.824 218.653 301.119 219.475 304.104 219.78C306.311 220.115 308.394 220.176 308.021 222.095C307.71 223.832 305.938 224.868 303.482 224.868C300.622 224.868 299.192 223.466 299.565 221.273L297.109 221.09C296.456 224.746 298.757 227 303.327 227Z" fill="white"/>
<path d="M313.427 226.391H316.007L320.049 204H317.469L313.427 226.391Z" fill="white"/>
<path d="M327.768 227C330.318 227 332.4 225.903 334.11 223.954L334.359 223.862L333.893 226.391H336.473L339.271 211.007H336.69L336.224 213.505L335.882 213.596C334.856 211.646 333.146 210.397 330.442 210.397C325.81 210.397 321.893 213.809 321.054 218.531C320.183 223.405 323.012 227 327.768 227ZM328.173 224.715C324.877 224.715 322.95 222.248 323.572 218.866C324.194 215.272 327.209 212.682 330.691 212.682C333.986 212.682 335.913 215.119 335.291 218.531C334.67 222.095 331.623 224.715 328.173 224.715Z" fill="white"/>
<path d="M340.947 226.391H343.527L345.144 217.495C345.61 214.815 348.314 212.713 351.05 212.713C353.661 212.713 354.843 214.51 354.376 217.13L352.698 226.391H355.278L356.925 217.282C357.64 213.383 355.527 210.428 351.454 210.428C349.465 210.428 347.599 211.311 346.201 213.017L345.921 213.109L346.294 211.007H343.714L340.947 226.391Z" fill="white"/>
<path d="M365.178 226.97C365.862 226.97 366.919 226.848 367.665 226.604L367.914 224.532C367.292 224.715 366.453 224.837 365.893 224.837C364.494 224.837 363.81 223.893 364.09 222.4L365.8 213.017H369.81L370.152 211.007H366.142L367.074 206.041H365.023L363.561 211.007H361.012L360.67 213.017H363.22L361.51 222.339C361.043 225.081 362.442 226.97 365.178 226.97Z" fill="white"/>
<path d="M378.33 227C381.718 227 384.796 225.507 386.537 222.857L384.516 221.638C383.211 223.466 380.91 224.715 378.485 224.715C375.377 224.715 373.511 222.735 373.667 219.628H387.594C387.687 219.293 387.749 218.927 387.78 218.714C388.651 213.901 385.729 210.397 380.879 210.397C376.092 210.397 372.081 213.718 371.273 218.318C370.372 223.344 373.356 227 378.33 227ZM374.133 217.404C375.066 214.632 377.708 212.682 380.661 212.682C383.584 212.682 385.387 214.449 385.324 217.221L374.133 217.404Z" fill="white"/>
<path d="M397.379 227C399.897 227 402.073 225.964 403.534 224.106L403.814 224.015L403.379 226.391H405.959L410 204H407.42L405.741 213.291L405.368 213.352C404.591 211.525 402.632 210.397 400.052 210.397C395.545 210.397 391.472 213.809 390.633 218.531C389.763 223.405 392.747 227 397.379 227ZM397.752 224.715C394.488 224.715 392.529 222.217 393.151 218.866C393.773 215.393 396.819 212.682 400.27 212.682C403.565 212.682 405.492 215.211 404.871 218.531C404.28 222.004 401.234 224.715 397.752 224.715Z" fill="white"/>
<path d="M300.583 268C302.802 268 304.298 267.07 304.597 265.4C304.985 263.282 303.083 262.817 301.393 262.628C300.161 262.456 299.016 262.421 299.21 261.388C299.368 260.441 300.407 259.821 301.745 259.821C303.066 259.821 303.84 260.441 303.664 261.509L305.073 261.612C305.407 259.804 304.069 258.616 301.798 258.616C299.72 258.616 298.136 259.597 297.837 261.233C297.467 263.282 299.333 263.747 301.023 263.919C302.273 264.109 303.453 264.143 303.242 265.228C303.066 266.209 302.062 266.795 300.671 266.795C299.051 266.795 298.241 266.003 298.453 264.763L297.062 264.66C296.692 266.726 297.995 268 300.583 268Z" fill="white"/>
<path d="M306.304 267.656H307.765L310.054 255H308.593L306.304 267.656Z" fill="white"/>
<path d="M314.426 268C315.87 268 317.05 267.38 318.018 266.278L318.159 266.226L317.895 267.656H319.356L320.941 258.96H319.48L319.215 260.372L319.022 260.424C318.441 259.322 317.472 258.616 315.941 258.616C313.317 258.616 311.099 260.544 310.623 263.213C310.13 265.968 311.733 268 314.426 268ZM314.655 266.709C312.789 266.709 311.697 265.314 312.05 263.403C312.402 261.371 314.109 259.907 316.081 259.907C317.948 259.907 319.039 261.285 318.687 263.213C318.335 265.228 316.61 266.709 314.655 266.709Z" fill="white"/>
<path d="M321.89 267.656H323.352L324.267 262.628C324.531 261.113 326.063 259.925 327.612 259.925C329.091 259.925 329.76 260.94 329.496 262.421L328.546 267.656H330.007L330.94 262.507C331.345 260.303 330.148 258.633 327.841 258.633C326.714 258.633 325.658 259.132 324.866 260.097L324.707 260.148L324.919 258.96H323.457L321.89 267.656Z" fill="white"/>
<path d="M335.614 267.983C336.001 267.983 336.6 267.914 337.023 267.776L337.163 266.605C336.811 266.709 336.336 266.777 336.019 266.777C335.227 266.777 334.839 266.244 334.998 265.4L335.966 260.097H338.237L338.431 258.96H336.16L336.688 256.154H335.526L334.699 258.96H333.255L333.061 260.097H334.505L333.537 265.366C333.272 266.915 334.065 267.983 335.614 267.983Z" fill="white"/>
<path d="M343.063 268C344.982 268 346.725 267.156 347.711 265.658L346.567 264.97C345.827 266.003 344.524 266.709 343.151 266.709C341.39 266.709 340.334 265.589 340.422 263.833H348.31C348.363 263.644 348.398 263.437 348.415 263.317C348.908 260.596 347.253 258.616 344.507 258.616C341.795 258.616 339.524 260.493 339.066 263.093C338.556 265.934 340.246 268 343.063 268ZM340.686 262.576C341.214 261.009 342.711 259.907 344.383 259.907C346.038 259.907 347.06 260.906 347.024 262.473L340.686 262.576Z" fill="white"/>
<path d="M353.852 268C355.278 268 356.51 267.415 357.338 266.364L357.496 266.313L357.25 267.656H358.711L361 255H359.539L358.588 260.252L358.377 260.286C357.936 259.253 356.827 258.616 355.366 258.616C352.813 258.616 350.506 260.544 350.031 263.213C349.538 265.968 351.228 268 353.852 268ZM354.063 266.709C352.214 266.709 351.105 265.297 351.457 263.403C351.809 261.44 353.535 259.907 355.489 259.907C357.355 259.907 358.447 261.336 358.095 263.213C357.76 265.176 356.035 266.709 354.063 266.709Z" fill="white"/>
<path d="M748.862 14V1.31H746.522L740.51 11.84H740.348V1.31H738.692V14H741.05L747.062 3.47H747.224V14H748.862ZM751.974 14H753.468V10.076H758.778V14H760.272V4.91H758.778V8.726H753.468V4.91H751.974V14ZM765.335 14H766.829V6.26H770.105V4.91H762.041V6.26H765.335V14ZM776.143 14.36C778.159 14.36 779.797 13.424 780.517 11.876L779.275 11.246C778.717 12.326 777.529 13.01 776.161 13.01C774.325 13.01 772.993 11.786 772.777 9.95H780.823C780.841 9.752 780.841 9.536 780.841 9.356C780.841 6.566 778.825 4.55 776.053 4.55C773.245 4.55 771.229 6.566 771.229 9.338C771.229 12.254 773.299 14.36 776.143 14.36ZM772.795 8.636C773.047 6.998 774.307 5.9 775.999 5.9C777.709 5.9 779.005 6.998 779.257 8.636H772.795ZM788.108 4.55C786.614 4.55 785.444 5.198 784.778 6.296H784.616V4.91H783.122V18.14H784.616V12.65H784.778C785.444 13.73 786.668 14.36 788.126 14.36C790.772 14.36 792.806 12.29 792.806 9.446C792.806 6.602 790.754 4.55 788.108 4.55ZM787.946 5.9C789.89 5.9 791.312 7.412 791.312 9.446C791.312 11.444 789.89 13.01 787.946 13.01C785.984 13.01 784.562 11.444 784.562 9.446C784.562 7.448 785.984 5.9 787.946 5.9ZM793.764 14C795.312 14 796.59 13.208 796.896 10.994L797.562 6.26H800.874V14H802.368V4.91H796.23L795.582 10.13C795.366 11.84 795.042 12.74 793.764 12.74V14ZM805.13 14H806.948L811.772 7.052H811.952V14H813.446V4.91H811.628L806.786 11.876H806.624V4.91H805.13V14ZM816.204 14H817.698V10.076H823.008V14H824.502V4.91H823.008V8.726H817.698V4.91H816.204V14ZM827.261 14H831.257C833.453 14 834.893 12.758 834.893 10.832C834.893 8.96 833.453 7.7 831.257 7.7H828.755V4.91H827.261V14ZM828.755 12.65V9.05H831.257C832.553 9.05 833.417 9.752 833.417 10.85C833.417 11.948 832.571 12.65 831.257 12.65H828.755ZM836.496 14H838.332L841.05 10.652H842.634V14H844.128V4.91H840.096C837.936 4.91 836.514 6.08 836.514 7.772C836.514 9.212 837.486 10.454 839.394 10.634L836.496 14ZM840.096 9.302C838.818 9.302 838.008 8.69 838.008 7.772C838.008 6.854 838.836 6.26 840.096 6.26H842.634V9.302H840.096ZM845.564 14H847.346L850.856 9.698H851.036V14H852.53V9.698H852.692L856.22 14H857.984L854.042 9.266L857.822 4.91H856.094L852.692 8.852H852.53V4.91H851.036V8.852H850.856L847.454 4.91H845.744L849.506 9.266L845.564 14Z" fill="white"/>
<path d="M589.71 14H591.312V9.086H594.768C597.468 9.086 599.322 7.592 599.322 5.198C599.34 2.768 597.54 1.31 594.768 1.31H589.71V14ZM591.312 7.628V2.75H594.768C596.604 2.75 597.702 3.704 597.702 5.198C597.702 6.674 596.604 7.628 594.768 7.628H591.312ZM603.965 14.288C605.423 14.288 606.485 13.712 607.133 12.668H607.295V14H608.789V7.97C608.789 5.9 607.295 4.568 604.937 4.568C602.651 4.568 601.157 5.792 601.157 7.718H602.669C602.651 6.584 603.551 5.918 604.919 5.918C606.413 5.918 607.295 6.71 607.295 7.934V8.294L604.775 8.6C602.075 8.906 600.707 10.094 600.707 11.696C600.707 13.262 602.003 14.288 603.965 14.288ZM604.181 13.046C602.957 13.046 602.201 12.524 602.201 11.66C602.201 10.814 602.921 10.094 604.775 9.86L607.295 9.572V10.382C607.295 11.912 606.035 13.046 604.181 13.046ZM614.886 14.36C617.01 14.36 618.54 13.19 618.54 11.48C618.54 10.364 617.874 9.554 616.794 9.32V9.14C617.73 8.906 618.288 8.258 618.288 7.268C618.288 5.648 616.794 4.55 614.76 4.55C612.564 4.55 611.016 5.846 611.034 7.646H612.474C612.474 6.62 613.392 5.9 614.724 5.9C615.948 5.9 616.83 6.476 616.83 7.34C616.83 8.096 616.146 8.618 615.192 8.618H613.554V9.968H615.174C616.254 9.968 617.046 10.436 617.046 11.372C617.046 12.344 616.146 13.01 614.868 13.01C613.41 13.01 612.384 12.146 612.384 10.94H610.89C610.89 12.92 612.564 14.36 614.886 14.36ZM620.657 14H622.151V6.998H622.313L625.553 14H626.885L630.125 6.998H630.305V14H631.799V4.91H629.621L626.291 12.128H626.111L622.817 4.91H620.657V14ZM639.008 14.36C641.024 14.36 642.662 13.424 643.382 11.876L642.14 11.246C641.582 12.326 640.394 13.01 639.026 13.01C637.19 13.01 635.858 11.786 635.642 9.95H643.688C643.706 9.752 643.706 9.536 643.706 9.356C643.706 6.566 641.69 4.55 638.918 4.55C636.11 4.55 634.094 6.566 634.094 9.338C634.094 12.254 636.164 14.36 639.008 14.36ZM635.66 8.636C635.912 6.998 637.172 5.9 638.864 5.9C640.574 5.9 641.87 6.998 642.122 8.636H635.66ZM650.974 4.55C649.48 4.55 648.31 5.198 647.644 6.296H647.482V4.91H645.988V18.14H647.482V12.65H647.644C648.31 13.73 649.534 14.36 650.992 14.36C653.638 14.36 655.672 12.29 655.672 9.446C655.672 6.602 653.62 4.55 650.974 4.55ZM650.812 5.9C652.756 5.9 654.178 7.412 654.178 9.446C654.178 11.444 652.756 13.01 650.812 13.01C648.85 13.01 647.428 11.444 647.428 9.446C647.428 7.448 648.85 5.9 650.812 5.9Z" fill="white"/>
<path d="M4.692 14H19.128V1.31H17.49V12.56H12.738V1.31H11.1V12.56H6.348V1.31H4.692V14ZM27.2138 4.55C25.7198 4.55 24.5498 5.198 23.8838 6.296H23.7218V4.91H22.2278V18.14H23.7218V12.65H23.8838C24.5498 13.73 25.7738 14.36 27.2318 14.36C29.8778 14.36 31.9118 12.29 31.9118 9.446C31.9118 6.602 29.8598 4.55 27.2138 4.55ZM27.0518 5.9C28.9958 5.9 30.4178 7.412 30.4178 9.446C30.4178 11.444 28.9958 13.01 27.0518 13.01C25.0898 13.01 23.6678 11.444 23.6678 9.446C23.6678 7.448 25.0898 5.9 27.0518 5.9ZM34.2161 14H36.0341L40.8581 7.052H41.0381V14H42.5321V4.91H40.7141L35.8721 11.876H35.7101V4.91H34.2161V14ZM49.9163 18.158H51.4103V14.36C54.3263 14.252 56.5043 12.182 56.5043 9.428C56.5043 6.71 54.3263 4.658 51.4103 4.55V0.751999H49.9163V4.55C46.9823 4.658 44.8043 6.71 44.8043 9.428C44.8043 12.2 46.9823 14.252 49.9163 14.36V18.158ZM49.9163 13.01C47.8823 12.92 46.2983 11.372 46.2983 9.428C46.2983 7.52 47.8823 5.99 49.9163 5.9V13.01ZM51.4103 13.01V5.9C53.4083 6.008 55.0103 7.538 55.0103 9.428C55.0103 11.354 53.4083 12.92 51.4103 13.01ZM60.9185 14H62.4125V6.26H65.6885V4.91H57.6245V6.26H60.9185V14Z" fill="white"/>
<path d="M298.692 14H300.348V8.096H307.188V14H308.826V1.31H307.188V6.656H300.348V1.31H298.692V14ZM314.459 14.288C315.917 14.288 316.979 13.712 317.627 12.668H317.789V14H319.283V7.97C319.283 5.9 317.789 4.568 315.431 4.568C313.145 4.568 311.651 5.792 311.651 7.718H313.163C313.145 6.584 314.045 5.918 315.413 5.918C316.907 5.918 317.789 6.71 317.789 7.934V8.294L315.269 8.6C312.569 8.906 311.201 10.094 311.201 11.696C311.201 13.262 312.497 14.288 314.459 14.288ZM314.675 13.046C313.451 13.046 312.695 12.524 312.695 11.66C312.695 10.814 313.415 10.094 315.269 9.86L317.789 9.572V10.382C317.789 11.912 316.529 13.046 314.675 13.046ZM327.738 14H329.196V4.928H327.702V8.528C327.252 9.392 326.154 9.986 324.948 9.986C323.544 9.986 322.734 9.158 322.734 7.682V4.91H321.24V7.682C321.24 9.932 322.68 11.354 324.624 11.354C325.866 11.354 327.144 10.76 327.738 9.914V14ZM336.389 14.36C338.405 14.36 340.043 13.424 340.763 11.876L339.521 11.246C338.963 12.326 337.775 13.01 336.407 13.01C334.571 13.01 333.239 11.786 333.023 9.95H341.069C341.087 9.752 341.087 9.536 341.087 9.356C341.087 6.566 339.071 4.55 336.299 4.55C333.491 4.55 331.475 6.566 331.475 9.338C331.475 12.254 333.545 14.36 336.389 14.36ZM333.041 8.636C333.293 6.998 334.553 5.9 336.245 5.9C337.955 5.9 339.251 6.998 339.503 8.636H333.041ZM348.354 4.55C346.86 4.55 345.69 5.198 345.024 6.296H344.862V4.91H343.368V18.14H344.862V12.65H345.024C345.69 13.73 346.914 14.36 348.372 14.36C351.018 14.36 353.052 12.29 353.052 9.446C353.052 6.602 351 4.55 348.354 4.55ZM348.192 5.9C350.136 5.9 351.558 7.412 351.558 9.446C351.558 11.444 350.136 13.01 348.192 13.01C346.23 13.01 344.808 11.444 344.808 9.446C344.808 7.448 346.23 5.9 348.192 5.9ZM357.485 14H358.979V6.26H362.255V4.91H354.191V6.26H357.485V14ZM366.561 14.288C368.019 14.288 369.081 13.712 369.729 12.668H369.891V14H371.385V7.97C371.385 5.9 369.891 4.568 367.533 4.568C365.247 4.568 363.753 5.792 363.753 7.718H365.265C365.247 6.584 366.147 5.918 367.515 5.918C369.009 5.918 369.891 6.71 369.891 7.934V8.294L367.371 8.6C364.671 8.906 363.303 10.094 363.303 11.696C363.303 13.262 364.599 14.288 366.561 14.288ZM366.777 13.046C365.553 13.046 364.797 12.524 364.797 11.66C364.797 10.814 365.517 10.094 367.371 9.86L369.891 9.572V10.382C369.891 11.912 368.631 13.046 366.777 13.046ZM373.972 14H375.466V10.076H380.776V14H382.27V4.91H380.776V8.726H375.466V4.91H373.972V14ZM385.029 14H386.847L391.671 7.052H391.851V14H393.345V4.91H391.527L386.685 11.876H386.523V4.91H385.029V14ZM400.549 14.36C402.565 14.36 404.203 13.424 404.923 11.876L403.681 11.246C403.123 12.326 401.935 13.01 400.567 13.01C398.731 13.01 397.399 11.786 397.183 9.95H405.229C405.247 9.752 405.247 9.536 405.247 9.356C405.247 6.566 403.231 4.55 400.459 4.55C397.651 4.55 395.635 6.566 395.635 9.338C395.635 12.254 397.705 14.36 400.549 14.36ZM397.201 8.636C397.453 6.998 398.713 5.9 400.405 5.9C402.115 5.9 403.411 6.998 403.663 8.636H397.201Z" fill="white"/>
<path d="M301.518 129.089V127.849H297V146.122H301.518V137C301.518 134.461 303.571 132.424 306.065 132.424V127.849C304.422 127.849 302.867 128.292 301.518 129.089Z" fill="white"/>
<path d="M320.86 137C320.86 139.509 318.836 141.576 316.313 141.576C314.641 141.576 313.174 140.631 312.382 139.273H316.313V134.697H311.766V132.424H323.148V127.849H307.248V137C307.248 142.048 311.297 146.122 316.313 146.122C321.329 146.122 325.407 142.048 325.407 137H320.86Z" fill="white"/>
<path d="M339.603 127.849V129.089C338.283 128.292 336.728 127.849 335.056 127.849C330.04 127.849 325.991 131.952 325.991 137C325.991 142.048 330.04 146.122 335.056 146.122C336.728 146.122 338.283 145.679 339.603 144.911V148.424H328.25V153H344.15V127.849H339.603ZM335.056 141.576C332.562 141.576 330.509 139.509 330.509 137C330.509 134.461 332.562 132.424 335.056 132.424C337.579 132.424 339.603 134.461 339.603 137C339.603 139.509 337.579 141.576 335.056 141.576Z" fill="white"/>
<path d="M360.407 127.849V137C360.407 139.509 358.383 141.576 355.86 141.576C353.367 141.576 351.313 139.509 351.313 137V127.849H346.796V137C346.796 142.048 350.844 146.122 355.86 146.122C360.877 146.122 364.954 142.048 364.954 137V127.849H360.407Z" fill="white"/>
<path d="M372.104 138.122V121H367.587V138.122C367.587 142.55 371.136 146.122 375.536 146.122V141.576C373.63 141.576 372.104 140.041 372.104 138.122Z" fill="white"/>
<path d="M389.742 127.849V129.089C388.422 128.292 386.868 127.849 385.196 127.849C380.179 127.849 376.131 131.952 376.131 137C376.131 142.048 380.179 146.122 385.196 146.122C386.868 146.122 388.422 145.679 389.742 144.911V146.122H394.289V127.849H389.742ZM385.196 141.576C382.702 141.576 380.649 139.509 380.649 137C380.649 134.461 382.702 132.424 385.196 132.424C387.718 132.424 389.742 134.461 389.742 137C389.742 139.509 387.718 141.576 385.196 141.576Z" fill="white"/>
<path d="M401.453 129.089V127.849H396.935V146.122H401.453V137C401.453 134.461 403.506 132.424 406 132.424V127.849C404.357 127.849 402.802 128.292 401.453 129.089Z" fill="white"/>
<path d="M301.518 77.0886V75.8487H297V94.1218H301.518V85C301.518 82.4613 303.571 80.4244 306.065 80.4244V75.8487C304.422 75.8487 302.867 76.2915 301.518 77.0886Z" fill="white"/>
<path d="M320.86 85C320.86 87.5092 318.836 89.5756 316.313 89.5756C314.641 89.5756 313.174 88.631 312.382 87.2731H316.313V82.6974H311.766V80.4244H323.148V75.8487H307.248V85C307.248 90.048 311.297 94.1218 316.313 94.1218C321.329 94.1218 325.407 90.048 325.407 85H320.86Z" fill="white"/>
<path d="M339.603 75.8487V77.0886C338.283 76.2915 336.728 75.8487 335.056 75.8487C330.04 75.8487 325.991 79.952 325.991 85C325.991 90.048 330.04 94.1218 335.056 94.1218C336.728 94.1218 338.283 93.679 339.603 92.9114V96.4244H328.25V101H344.15V75.8487H339.603ZM335.056 89.5756C332.562 89.5756 330.509 87.5092 330.509 85C330.509 82.4613 332.562 80.4244 335.056 80.4244C337.579 80.4244 339.603 82.4613 339.603 85C339.603 87.5092 337.579 89.5756 335.056 89.5756Z" fill="white"/>
<path d="M360.407 75.8487V85C360.407 87.5092 358.383 89.5756 355.86 89.5756C353.367 89.5756 351.313 87.5092 351.313 85V75.8487H346.796V85C346.796 90.048 350.844 94.1218 355.86 94.1218C360.877 94.1218 364.954 90.048 364.954 85V75.8487H360.407Z" fill="white"/>
<path d="M372.104 86.1218V69H367.587V86.1218C367.587 90.5498 371.136 94.1218 375.536 94.1218V89.5756C373.63 89.5756 372.104 88.0406 372.104 86.1218Z" fill="white"/>
<path d="M389.742 75.8487V77.0886C388.422 76.2915 386.868 75.8487 385.196 75.8487C380.179 75.8487 376.131 79.952 376.131 85C376.131 90.048 380.179 94.1218 385.196 94.1218C386.868 94.1218 388.422 93.679 389.742 92.9114V94.1218H394.289V75.8487H389.742ZM385.196 89.5756C382.702 89.5756 380.649 87.5092 380.649 85C380.649 82.4613 382.702 80.4244 385.196 80.4244C387.718 80.4244 389.742 82.4613 389.742 85C389.742 87.5092 387.718 89.5756 385.196 89.5756Z" fill="white"/>
<path d="M401.453 77.0886V75.8487H396.935V94.1218H401.453V85C401.453 82.4613 403.506 80.4244 406 80.4244V75.8487C404.357 75.8487 402.802 76.2915 401.453 77.0886Z" fill="white"/>
<path d="M594.153 408.963C597.555 408.963 600.072 406.554 600.072 403.213C600.072 399.822 597.672 397.364 593.896 397.364H591.519L591.962 392.99H598.744V391.025H590.237L589.375 399.33H593.686C596.39 399.33 597.998 401.001 597.998 403.262C597.998 405.424 596.367 406.997 594.129 406.997C591.869 406.997 590.144 405.105 590.121 402.549H588C588.14 406.26 590.727 408.963 594.153 408.963Z" fill="white"/>
<path d="M608.763 408.963C612.352 408.963 614.939 406.481 614.939 403.065C614.939 399.797 612.539 397.389 609.206 397.389C608.693 397.389 608.064 397.487 607.412 397.782L612.259 391L609.719 391.025L604.335 398.495C603.077 400.239 602.541 401.861 602.541 403.311C602.541 406.432 605.151 408.963 608.763 408.963ZM608.81 406.972C606.386 406.997 604.662 405.35 604.662 403.09C604.662 400.878 606.386 399.256 608.833 399.281C611.14 399.281 612.818 400.878 612.818 403.065C612.818 405.326 611.14 406.948 608.81 406.972Z" fill="white"/>
<path d="M624.373 395.448C622.438 395.448 620.924 396.332 620.061 397.831H619.852V395.939H617.917V414H619.852V406.505H620.061C620.924 407.98 622.508 408.84 624.396 408.84C627.822 408.84 630.455 406.014 630.455 402.131C630.455 398.249 627.799 395.448 624.373 395.448ZM624.163 397.291C626.68 397.291 628.521 399.355 628.521 402.131C628.521 404.859 626.68 406.997 624.163 406.997C621.623 406.997 619.782 404.859 619.782 402.131C619.782 399.404 621.623 397.291 624.163 397.291Z" fill="white"/>
<path d="M631.72 408.348H633.864L637.244 403.286H637.477L640.856 408.348H643L638.572 401.886L642.767 395.939H640.693L637.477 400.559H637.244L634.028 395.939H631.953L636.148 401.886L631.72 408.348Z" fill="white"/>
<path d="M594.153 226.182C597.555 226.182 600.072 223.878 600.072 220.682C600.072 217.438 597.672 215.088 593.896 215.088H591.519L591.962 210.904H598.744V209.024H590.237L589.375 216.968H593.686C596.39 216.968 597.998 218.566 597.998 220.729C597.998 222.797 596.367 224.301 594.129 224.301C591.869 224.301 590.144 222.491 590.121 220.047H588C588.14 223.596 590.727 226.182 594.153 226.182Z" fill="white"/>
<path d="M608.763 226.182C612.352 226.182 614.939 223.808 614.939 220.541C614.939 217.415 612.539 215.111 609.206 215.111C608.693 215.111 608.064 215.205 607.412 215.487L612.259 209L609.719 209.024L604.335 216.169C603.077 217.838 602.541 219.389 602.541 220.776C602.541 223.761 605.151 226.182 608.763 226.182ZM608.81 224.278C606.386 224.301 604.662 222.726 604.662 220.564C604.662 218.449 606.386 216.897 608.833 216.921C611.14 216.921 612.818 218.449 612.818 220.541C612.818 222.703 611.14 224.254 608.81 224.278Z" fill="white"/>
<path d="M624.373 213.254C622.438 213.254 620.924 214.1 620.061 215.534H619.852V213.724H617.917V231H619.852V223.831H620.061C620.924 225.241 622.508 226.064 624.396 226.064C627.822 226.064 630.455 223.361 630.455 219.647C630.455 215.934 627.799 213.254 624.373 213.254ZM624.163 215.017C626.68 215.017 628.521 216.991 628.521 219.647C628.521 222.256 626.68 224.301 624.163 224.301C621.623 224.301 619.782 222.256 619.782 219.647C619.782 217.038 621.623 215.017 624.163 215.017Z" fill="white"/>
<path d="M631.72 225.594H633.864L637.244 220.752H637.477L640.856 225.594H643L638.572 219.412L642.767 213.724H640.693L637.477 218.143H637.244L634.028 213.724H631.953L636.148 219.412L631.72 225.594Z" fill="white"/>
<path d="M741.857 411C745.096 411 747.492 408.796 747.492 405.738C747.492 402.635 745.207 400.386 741.613 400.386H739.35L739.772 396.384H746.228V394.585H738.13L737.309 402.185H741.413C743.987 402.185 745.518 403.714 745.518 405.783C745.518 407.762 743.965 409.201 741.835 409.201C739.683 409.201 738.041 407.47 738.019 405.131H736C736.133 408.526 738.596 411 741.857 411Z" fill="white"/>
<path d="M756.054 410.978C759.515 410.978 762 409.021 762 406.278C762 404.231 760.647 402.545 758.739 402.095V401.87C760.159 401.376 761.334 399.937 761.334 398.272C761.334 395.754 759.116 394 756.054 394C752.97 394 750.752 395.754 750.752 398.272C750.752 399.937 751.928 401.376 753.325 401.87V402.095C751.44 402.545 750.086 404.231 750.086 406.278C750.086 408.999 752.593 410.978 756.054 410.978ZM756.054 401.173C754.146 401.173 752.793 400.026 752.793 398.475C752.793 396.923 754.146 395.799 756.054 395.799C757.918 395.799 759.293 396.923 759.293 398.475C759.293 400.026 757.918 401.173 756.054 401.173ZM756.054 409.179C753.88 409.179 752.305 407.874 752.305 406.075C752.305 404.276 753.88 402.972 756.054 402.972C758.184 402.972 759.804 404.276 759.804 406.075C759.804 407.874 758.206 409.179 756.054 409.179Z" fill="white"/>
<path d="M741.857 226C745.096 226 747.492 223.796 747.492 220.738C747.492 217.635 745.207 215.386 741.613 215.386H739.35L739.772 211.384H746.228V209.585H738.13L737.309 217.185H741.413C743.987 217.185 745.518 218.714 745.518 220.783C745.518 222.762 743.965 224.201 741.835 224.201C739.683 224.201 738.041 222.47 738.019 220.131H736C736.133 223.526 738.596 226 741.857 226Z" fill="white"/>
<path d="M756.054 225.978C759.515 225.978 762 224.021 762 221.278C762 219.231 760.647 217.545 758.739 217.095V216.87C760.159 216.376 761.334 214.937 761.334 213.272C761.334 210.754 759.116 209 756.054 209C752.97 209 750.752 210.754 750.752 213.272C750.752 214.937 751.928 216.376 753.325 216.87V217.095C751.44 217.545 750.086 219.231 750.086 221.278C750.086 223.999 752.593 225.978 756.054 225.978ZM756.054 216.173C754.146 216.173 752.793 215.026 752.793 213.475C752.793 211.923 754.146 210.799 756.054 210.799C757.918 210.799 759.293 211.923 759.293 213.475C759.293 215.026 757.918 216.173 756.054 216.173ZM756.054 224.179C753.88 224.179 752.305 222.874 752.305 221.075C752.305 219.276 753.88 217.972 756.054 217.972C758.184 217.972 759.804 219.276 759.804 221.075C759.804 222.874 758.206 224.179 756.054 224.179Z" fill="white"/>
<path d="M12.8427 349.019C20.4781 349.019 25.6535 344.438 25.6535 337.236C25.6535 330.034 20.4781 325.485 12.8427 325.485C5.17542 325.485 0 330.034 0 337.236C0 344.438 5.17542 349.019 12.8427 349.019ZM12.8427 343.554C9.2327 343.554 6.74083 341.058 6.74083 337.236C6.74083 333.445 9.2327 330.918 12.8427 330.918C16.4527 330.918 18.9127 333.445 18.9127 337.236C18.9127 341.058 16.4527 343.554 12.8427 343.554Z" fill="white"/>
<path d="M39.081 348.956C43.4577 348.956 46.3969 345.639 46.3969 340.395C46.3969 335.214 43.4258 331.834 39.1129 331.834C37.0044 331.834 35.4071 332.655 34.3209 334.14H34.0014V324.979H28.0273V348.545H34.0014V346.65H34.3209C35.4071 348.134 36.9405 348.956 39.081 348.956ZM37.0683 343.996C35.1515 343.996 33.7458 342.448 33.7458 340.395C33.7458 338.342 35.1515 336.794 37.0683 336.794C39.0171 336.794 40.3908 338.342 40.3908 340.395C40.3908 342.448 39.0171 343.996 37.0683 343.996Z" fill="white"/>
<path d="M51.6235 330.476C53.6042 330.476 55.0098 329.117 55.0098 327.222C55.0098 325.327 53.6042 324 51.6235 324C49.6747 324 48.2371 325.327 48.2371 327.222C48.2371 329.117 49.6747 330.476 51.6235 330.476ZM48.5565 356C52.1666 356 54.6265 353.41 54.6265 349.619V332.245H48.6204V348.956C48.6204 350.188 47.7579 351.04 46.448 351.04C45.841 351.04 45.1063 350.977 44.5951 350.851V355.431C45.6813 355.779 47.2467 356 48.5565 356Z" fill="white"/>
<path d="M66.1651 348.956C70.3821 348.956 73.7685 347.092 74.5991 344.028L69.4557 343.112C68.9445 344.154 67.9222 344.881 66.4846 344.881C64.6955 344.881 63.4816 343.775 63.0982 342.006H75.1422C75.2061 341.69 75.2381 340.869 75.2381 340.395C75.2381 335.183 71.66 331.834 66.229 331.834C60.7661 331.834 56.9324 335.151 56.9324 340.332C56.9324 345.576 60.7022 348.956 66.1651 348.956ZM63.0343 338.847C63.3538 337.046 64.44 335.909 66.1012 335.909C67.7944 335.909 69.0403 337.236 69.2001 338.847H63.0343Z" fill="white"/>
<path d="M86.0681 348.956C90.7643 348.956 94.2146 346.523 94.7577 342.448L89.2309 341.785C88.9114 343.206 87.6335 344.217 86.132 344.217C84.2471 344.217 82.8734 342.638 82.8734 340.395C82.8734 338.152 84.2791 336.573 86.164 336.573C87.6016 336.573 88.9114 337.583 89.2309 339.037L94.7577 338.342C94.2466 334.267 90.7963 331.834 86.0681 331.834C80.5732 331.834 76.8993 335.151 76.8993 340.395C76.8993 345.576 80.6691 348.956 86.0681 348.956Z" fill="white"/>
<path d="M103.786 348.956C104.809 348.956 106.342 348.766 107.396 348.387V344.28C106.885 344.407 106.246 344.501 105.799 344.501C104.617 344.501 103.85 343.649 103.85 342.385V336.446H107.3V332.245H103.85V327.159H99.1539L98.0677 332.245H95.7356V336.446H97.8441V342.669C97.8441 346.428 100.176 348.956 103.786 348.956Z" fill="white"/>
<path d="M127.317 349.019C133.706 349.019 137.891 346.113 137.891 341.627C137.891 336.162 132.62 335.341 128.723 334.772C126.071 334.393 123.803 334.109 123.803 332.403C123.803 331.139 125.081 330.255 127.221 330.255C129.521 330.255 131.023 331.392 131.023 333.382H137.125C137.125 328.707 133.067 325.485 126.998 325.485C120.96 325.485 117.062 328.391 117.062 332.877C117.062 338.689 123.004 339.163 126.934 339.7C129.266 340.016 131.151 340.395 131.151 342.038C131.151 343.427 129.745 344.217 127.573 344.217C124.825 344.217 123.26 342.985 123.228 341.09H116.902C116.902 345.765 121.055 349.019 127.317 349.019Z" fill="white"/>
<path d="M144.756 348.924C146.896 348.924 148.877 348.134 149.803 346.618H150.123V348.545H156.129V337.836C156.129 334.172 152.902 331.834 148.014 331.834C143.095 331.834 139.932 334.172 139.932 337.805H145.714C145.714 336.415 146.641 335.593 147.951 335.593C149.324 335.593 150.123 336.415 150.123 337.615V338.342L147.248 338.689C141.849 339.416 139.261 341.09 139.261 344.249C139.261 347.218 141.497 348.924 144.756 348.924ZM147.088 345.354C145.778 345.354 145.011 344.691 145.011 343.68C145.011 342.732 145.714 342.069 147.471 341.848L150.123 341.469V342.448C150.123 344.122 148.877 345.354 147.088 345.354Z" fill="white"/>
<path d="M158.748 348.545H164.722V339.574C164.722 337.962 165.808 336.825 167.214 336.825C168.62 336.825 169.514 337.899 169.514 339.479V348.545H175.488V338.373C175.488 334.614 173.092 331.866 169.674 331.866C167.725 331.866 166.352 332.75 165.042 334.646H164.722V332.245H158.748V348.545Z" fill="white"/>
<path d="M185.534 349.082C190.773 349.082 194 346.871 194 343.238C194 339.384 190.23 338.657 187.227 338.342C185.023 338.089 183.074 338.026 183.074 336.794C183.074 335.909 184.033 335.309 185.374 335.309C186.908 335.309 187.994 336.067 188.026 337.204H193.329C193.329 333.856 189.943 331.739 185.374 331.739C180.678 331.739 177.579 333.887 177.579 337.331C177.579 341.848 181.956 342.101 184.927 342.385C186.652 342.543 188.058 342.732 188.058 343.901C188.058 344.881 187.067 345.481 185.662 345.481C183.777 345.481 182.563 344.565 182.563 343.175H177.483C177.483 346.839 180.582 349.082 185.534 349.082Z" fill="white"/>
<path d="M298 347.334H303.965V338.07C303.965 336.374 305.018 335.2 306.421 335.2C307.825 335.2 308.718 336.341 308.718 337.94V347.334H314.715V336.831C314.715 332.916 312.322 330.078 308.909 330.078C306.963 330.078 305.56 330.992 304.284 332.916H303.965V323H298V347.334Z" fill="white"/>
<path d="M325.893 347.758C330.103 347.758 333.485 345.834 334.314 342.67L329.178 341.724C328.668 342.8 327.647 343.55 326.212 343.55C324.425 343.55 323.213 342.409 322.83 340.582H334.856C334.92 340.256 334.952 339.408 334.952 338.918C334.952 333.536 331.379 330.078 325.956 330.078C320.502 330.078 316.674 333.504 316.674 338.853C316.674 344.268 320.438 347.758 325.893 347.758ZM322.767 337.32C323.086 335.461 324.17 334.286 325.829 334.286C327.52 334.286 328.764 335.656 328.923 337.32H322.767Z" fill="white"/>
<path d="M341.72 347.726C343.857 347.726 345.834 346.91 346.759 345.345H347.078V347.334H353.075V336.276C353.075 332.492 349.854 330.078 344.973 330.078C340.061 330.078 336.903 332.492 336.903 336.244H342.676C342.676 334.808 343.602 333.96 344.909 333.96C346.281 333.96 347.078 334.808 347.078 336.048V336.798L344.208 337.157C338.817 337.907 336.233 339.636 336.233 342.898C336.233 345.964 338.466 347.726 341.72 347.726ZM344.048 344.04C342.74 344.04 341.975 343.355 341.975 342.311C341.975 341.332 342.676 340.647 344.431 340.419L347.078 340.028V341.039C347.078 342.768 345.834 344.04 344.048 344.04Z" fill="white"/>
<path d="M359.152 347.334H367.86L373.283 330.503H366.935L363.65 342.278H363.331L360.045 330.503H353.729L359.152 347.334Z" fill="white"/>
<path d="M379.571 355C383.048 355 385.057 352.814 386.748 348.117L393 330.503H386.876L384.005 339.799H383.686L379.985 330.503H373.51L381.58 347.595C381.134 348.9 380.177 350.14 378.359 350.14C377.529 350.14 376.445 349.944 375.743 349.65V354.38C376.668 354.772 378.359 355 379.571 355Z" fill="white"/>
<path d="M592.369 350.342H594.667V333H592.823L588 336.518V339.15L592.116 336.099H592.369V350.342Z" fill="white"/>
<path d="M606.647 350.342H608.945V346.505H611.167V344.537H608.945V333H605.435L597.859 345.078V346.505H606.647V350.342ZM600.637 344.537L606.395 335.263H606.622V344.537H600.637Z" fill="white"/>
<path d="M622.06 350.342H624.358V346.505H626.58V344.537H624.358V333H620.848L613.272 345.078V346.505H622.06V350.342ZM616.05 344.537L621.808 335.263H622.035V344.537H616.05Z" fill="white"/>
<path d="M636.816 337.428C634.72 337.428 633.079 338.313 632.145 339.814H631.917V337.92H629.822V356H631.917V348.497H632.145C633.079 349.973 634.796 350.834 636.842 350.834C640.554 350.834 643.407 348.005 643.407 344.119C643.407 340.232 640.529 337.428 636.816 337.428ZM636.589 339.273C639.316 339.273 641.311 341.339 641.311 344.119C641.311 346.849 639.316 348.989 636.589 348.989C633.837 348.989 631.842 346.849 631.842 344.119C631.842 341.388 633.837 339.273 636.589 339.273Z" fill="white"/>
<path d="M644.778 350.342H647.101L650.763 345.275H651.015L654.677 350.342H657L652.202 343.873L656.747 337.92H654.5L651.015 342.544H650.763L647.278 337.92H645.03L649.576 343.873L644.778 350.342Z" fill="white"/>
<path d="M592.369 93.3422H594.667V76H592.823L588 79.5176V82.1497L592.116 79.0995H592.369V93.3422Z" fill="white"/>
<path d="M606.647 93.3422H608.945V89.5048H611.167V87.5369H608.945V76H605.435L597.859 88.0781V89.5048H606.647V93.3422ZM600.637 87.5369L606.395 78.2631H606.622V87.5369H600.637Z" fill="white"/>
<path d="M622.06 93.3422H624.358V89.5048H626.58V87.5369H624.358V76H620.848L613.272 88.0781V89.5048H622.06V93.3422ZM616.05 87.5369L621.808 78.2631H622.035V87.5369H616.05Z" fill="white"/>
<path d="M636.816 80.4278C634.72 80.4278 633.079 81.3134 632.145 82.8139H631.917V80.9198H629.822V99H631.917V91.4973H632.145C633.079 92.9733 634.796 93.8342 636.842 93.8342C640.554 93.8342 643.407 91.0053 643.407 87.1187C643.407 83.2321 640.529 80.4278 636.816 80.4278ZM636.589 82.2727C639.316 82.2727 641.311 84.339 641.311 87.1187C641.311 89.8492 639.316 91.9893 636.589 91.9893C633.837 91.9893 631.842 89.8492 631.842 87.1187C631.842 84.3882 633.837 82.2727 636.589 82.2727Z" fill="white"/>
<path d="M644.778 93.3422H647.101L650.763 88.2749H651.015L654.677 93.3422H657L652.202 86.8727L656.747 80.9198H654.5L651.015 85.5444H650.763L647.278 80.9198H645.03L649.576 86.8727L644.778 93.3422Z" fill="white"/>
<path d="M740.348 352H742.635V333.676H740.8L736 337.393V340.174L740.097 336.951H740.348V352Z" fill="white"/>
<path d="M754.559 352H756.846V347.945H759.057V345.866H756.846V333.676H753.352L745.813 346.438V347.945H754.559V352ZM748.577 345.866L754.307 336.067H754.533V345.866H748.577Z" fill="white"/>
<path d="M768.29 333C764.419 333 761.604 335.599 761.604 339.212C761.604 342.669 764.218 345.216 767.812 345.216C768.34 345.216 769.019 345.138 769.722 344.8L764.495 351.974H767.259L773.065 344.047C774.397 342.201 775 340.486 775 338.978C775 335.677 772.185 333 768.29 333ZM768.214 335.079C770.828 335.053 772.713 336.821 772.713 339.212C772.713 341.525 770.828 343.241 768.214 343.215C765.726 343.215 763.892 341.525 763.892 339.212C763.892 336.847 765.701 335.105 768.214 335.079Z" fill="white"/>
<path d="M740.124 92.4186H742.293V76.0233H740.553L736 79.3488V81.8372L739.885 78.9535H740.124V92.4186Z" fill="white"/>
<path d="M752.124 93C755.795 93 758.441 90.6512 758.441 87.4186C758.441 84.3256 755.986 82.0465 752.577 82.0465C752.053 82.0465 751.409 82.1395 750.742 82.4186L755.7 76L753.101 76.0233L747.595 83.093C746.308 84.7442 745.76 86.2791 745.76 87.6512C745.76 90.6047 748.429 93 752.124 93ZM752.172 91.1163C749.693 91.1395 747.929 89.5814 747.929 87.4419C747.929 85.3488 749.693 83.814 752.196 83.8372C754.555 83.8372 756.272 85.3488 756.272 87.4186C756.272 89.5581 754.555 91.093 752.172 91.1163Z" fill="white"/>
<path d="M766.898 93C770.449 93 773 90.7442 773 87.6744C773 84.7674 770.688 82.6279 767.684 82.3721L772.356 77.4419V76.0233H761.558V77.8837H769.043V78.1163L764.562 82.814L765.205 84.3721C765.587 84.2093 766.254 84.0698 766.802 84.0698C769.115 84.0698 770.831 85.5814 770.831 87.6512C770.831 89.6744 769.162 91.1395 766.874 91.1395C764.562 91.1395 762.798 89.3488 762.798 86.9302H760.605C760.748 90.4419 763.394 93 766.898 93Z" fill="white"/>
</svg>
