<svg width="668" height="173" viewBox="0 0 668 173" fill="none" xmlns="http://www.w3.org/2000/svg">
<path d="M18.344 165H19.512L20.552 161.096H23.288L22.248 165H23.416L24.44 161.096H28.6V160.12H24.696L25.32 157.768H29.4V156.776H25.592L26.536 153.224H25.368L24.424 156.776H21.704L22.648 153.224H21.48L20.536 156.776H16.616V157.768H20.28L19.656 160.12H15.816V161.096H19.4L18.344 165ZM20.808 160.12L21.432 157.768H24.168L23.544 160.12H20.808ZM31.5628 165H33.0348V159.8H38.1068V158.52H33.0348V155H38.7468V153.72H31.5628V165ZM40.6055 165H42.0775V159.8H47.1495V158.52H42.0775V155H47.7895V153.72H40.6055V165ZM49.6483 165H51.1203V159.8H56.1923V158.52H51.1203V155H56.8323V153.72H49.6483V165ZM58.691 165H60.163V159.8H65.235V158.52H60.163V155H65.875V153.72H58.691V165ZM67.7337 165H69.2057V159.8H74.2777V158.52H69.2057V155H74.9177V153.72H67.7337V165ZM76.7765 165H78.2485V159.8H83.3205V158.52H78.2485V155H83.9605V153.72H76.7765V165Z" fill="white"/>
<path d="M25.504 133H30.032C32.592 133 34.16 131.672 34.16 129.528C34.16 127.368 32.656 126.056 30.144 126.056H26.976V122.984H33.344V121.72H25.504V133ZM26.976 131.72V127.336H29.904C31.632 127.336 32.704 128.216 32.704 129.528C32.704 130.856 31.616 131.72 29.792 131.72H26.976ZM39.8205 133.32C41.6125 133.32 43.0685 132.488 43.7085 131.112L42.6045 130.552C42.1085 131.512 41.0525 132.12 39.8365 132.12C38.2045 132.12 37.0205 131.032 36.8285 129.4H43.9805C43.9965 129.224 43.9965 129.032 43.9965 128.872C43.9965 126.392 42.2045 124.6 39.7405 124.6C37.2445 124.6 35.4525 126.392 35.4525 128.856C35.4525 131.448 37.2925 133.32 39.8205 133.32ZM36.8445 128.232C37.0685 126.776 38.1885 125.8 39.6925 125.8C41.2125 125.8 42.3645 126.776 42.5885 128.232H36.8445ZM44.6521 133C46.0281 133 47.1641 132.296 47.4361 130.328L48.0281 126.12H50.9721V133H52.3001V124.92H46.8441L46.2681 129.56C46.0761 131.08 45.7881 131.88 44.6521 131.88V133ZM54.579 133H57.635C59.587 133 60.867 131.896 60.867 130.184C60.867 128.52 59.587 127.4 57.635 127.4H55.907V124.92H54.579V133ZM62.035 133H63.363V124.92H62.035V133ZM55.907 131.8V128.6H57.635C58.787 128.6 59.555 129.224 59.555 130.2C59.555 131.176 58.803 131.8 57.635 131.8H55.907ZM69.285 123.384C70.533 123.384 71.429 122.488 71.429 121.24H70.309C70.309 121.928 69.925 122.408 69.285 122.408C68.645 122.408 68.277 121.928 68.277 121.24H67.157C67.157 122.488 68.037 123.384 69.285 123.384ZM65.653 133H67.269L71.557 126.824H71.717V133H73.045V124.92H71.429L67.125 131.112H66.981V124.92H65.653V133Z" fill="white"/>
<path d="M185.224 133H186.68V121.72H185.224V126.488C184.696 127.464 183.48 128.2 182.376 128.2C180.744 128.2 179.496 127.304 179.496 125.272V121.72H178.024V125.416C178.024 128.088 179.784 129.4 182.056 129.4C183.272 129.4 184.568 128.856 185.224 127.912V133ZM193.211 133.32C195.003 133.32 196.459 132.488 197.099 131.112L195.995 130.552C195.499 131.512 194.443 132.12 193.227 132.12C191.595 132.12 190.411 131.032 190.219 129.4H197.371C197.387 129.224 197.387 129.032 197.387 128.872C197.387 126.392 195.595 124.6 193.131 124.6C190.635 124.6 188.843 126.392 188.843 128.856C188.843 131.448 190.683 133.32 193.211 133.32ZM190.235 128.232C190.459 126.776 191.579 125.8 193.083 125.8C194.603 125.8 195.755 126.776 195.979 128.232H190.235ZM203.671 124.6C202.343 124.6 201.303 125.176 200.711 126.152H200.567V124.92H199.239V136.68H200.567V131.8H200.711C201.303 132.76 202.391 133.32 203.687 133.32C206.039 133.32 207.847 131.48 207.847 128.952C207.847 126.424 206.023 124.6 203.671 124.6ZM203.527 125.8C205.255 125.8 206.519 127.144 206.519 128.952C206.519 130.728 205.255 132.12 203.527 132.12C201.783 132.12 200.519 130.728 200.519 128.952C200.519 127.176 201.783 125.8 203.527 125.8ZM209.72 133H211.048V129.512H215.768V133H217.096V124.92H215.768V128.312H211.048V124.92H209.72V133ZM219.372 133H222.428C224.38 133 225.66 131.896 225.66 130.184C225.66 128.52 224.38 127.4 222.428 127.4H220.7V124.92H219.372V133ZM226.828 133H228.156V124.92H226.828V133ZM220.7 131.8V128.6H222.428C223.58 128.6 224.348 129.224 224.348 130.2C224.348 131.176 223.596 131.8 222.428 131.8H220.7ZM234.078 123.384C235.326 123.384 236.222 122.488 236.222 121.24H235.102C235.102 121.928 234.718 122.408 234.078 122.408C233.438 122.408 233.07 121.928 233.07 121.24H231.95C231.95 122.488 232.83 123.384 234.078 123.384ZM230.446 133H232.062L236.35 126.824H236.51V133H237.838V124.92H236.222L231.918 131.112H231.774V124.92H230.446V133ZM243.937 133H245.265V126.12H249.553V124.92H243.937V133ZM255.522 124.6C254.194 124.6 253.154 125.176 252.562 126.152H252.418V124.92H251.09V136.68H252.418V131.8H252.562C253.154 132.76 254.242 133.32 255.538 133.32C257.89 133.32 259.698 131.48 259.698 128.952C259.698 126.424 257.874 124.6 255.522 124.6ZM255.378 125.8C257.106 125.8 258.37 127.144 258.37 128.952C258.37 130.728 257.106 132.12 255.378 132.12C253.634 132.12 252.37 130.728 252.37 128.952C252.37 127.176 253.634 125.8 255.378 125.8ZM263.826 133.256C265.122 133.256 266.066 132.744 266.642 131.816H266.786V133H268.114V127.64C268.114 125.8 266.786 124.616 264.69 124.616C262.658 124.616 261.33 125.704 261.33 127.416H262.674C262.658 126.408 263.458 125.816 264.674 125.816C266.002 125.816 266.786 126.52 266.786 127.608V127.928L264.546 128.2C262.146 128.472 260.93 129.528 260.93 130.952C260.93 132.344 262.082 133.256 263.826 133.256ZM264.018 132.152C262.93 132.152 262.258 131.688 262.258 130.92C262.258 130.168 262.898 129.528 264.546 129.32L266.786 129.064V129.784C266.786 131.144 265.666 132.152 264.018 132.152ZM274.35 136.696H275.678V133.32C278.27 133.224 280.206 131.384 280.206 128.936C280.206 126.52 278.27 124.696 275.678 124.6V121.224H274.35V124.6C271.742 124.696 269.806 126.52 269.806 128.936C269.806 131.4 271.742 133.224 274.35 133.32V136.696ZM274.35 132.12C272.542 132.04 271.134 130.664 271.134 128.936C271.134 127.24 272.542 125.88 274.35 125.8V132.12ZM275.678 132.12V125.8C277.454 125.896 278.878 127.256 278.878 128.936C278.878 130.648 277.454 132.04 275.678 132.12ZM282.062 133H283.678L287.966 126.824H288.126V133H289.454V124.92H287.838L283.534 131.112H283.39V124.92H282.062V133ZM293.777 133H295.105V126.12H298.017V124.92H290.849V126.12H293.777V133Z" fill="white"/>
<path d="M406.904 133.48H408.36V132.152C411.576 132.104 413.64 129.976 413.64 127.304C413.64 124.616 411.592 122.488 408.376 122.44V121.24H406.92V122.44C403.688 122.536 401.656 124.664 401.656 127.304C401.656 129.912 403.704 132.04 406.904 132.152V133.48ZM406.92 130.872C404.648 130.792 403.112 129.144 403.112 127.288C403.112 125.432 404.616 123.8 406.92 123.736V130.872ZM408.376 130.872V123.736C410.648 123.736 412.184 125.4 412.184 127.288C412.184 129.224 410.648 130.872 408.376 130.872ZM414.125 133C415.501 133 416.637 132.296 416.909 130.328L417.501 126.12H420.445V133H421.773V124.92H416.317L415.741 129.56C415.549 131.08 415.261 131.88 414.125 131.88V133ZM428.004 133.32C429.796 133.32 431.252 132.488 431.892 131.112L430.788 130.552C430.292 131.512 429.236 132.12 428.02 132.12C426.388 132.12 425.204 131.032 425.012 129.4H432.164C432.18 129.224 432.18 129.032 432.18 128.872C432.18 126.392 430.388 124.6 427.924 124.6C425.428 124.6 423.636 126.392 423.636 128.856C423.636 131.448 425.476 133.32 428.004 133.32ZM425.028 128.232C425.252 126.776 426.372 125.8 427.876 125.8C429.396 125.8 430.548 126.776 430.772 128.232H425.028ZM434.032 133H435.36V129.24H435.52L439.056 133H440.832L436.752 128.792L440.736 124.92H438.976L435.52 128.376H435.36V124.92H434.032V133ZM445.273 133.32C447.193 133.32 448.873 132.088 449.241 130.36L447.945 130.2C447.609 131.336 446.537 132.12 445.273 132.12C443.625 132.12 442.393 130.824 442.393 128.952C442.377 127.096 443.641 125.8 445.289 125.8C446.521 125.8 447.625 126.584 447.929 127.752L449.209 127.576C448.921 125.848 447.257 124.6 445.273 124.6C442.841 124.6 441.065 126.424 441.065 128.952C441.049 131.48 442.825 133.32 445.273 133.32Z" fill="white"/>
<path d="M566.32 135.4H567.632V133H577.632V135.4H578.96V131.72H577.248V121.72H570.08L569.232 128.136C568.992 129.864 568.416 130.968 567.424 131.72H566.32V135.4ZM569.088 131.72V131.56C569.824 130.872 570.4 129.944 570.608 128.408L571.376 123H575.792V131.72H569.088ZM580.478 133H582.094L586.382 126.824H586.542V133H587.87V124.92H586.254L581.95 131.112H581.806V124.92H580.478V133ZM590.146 133H591.474V129.24H591.634L595.17 133H596.946L592.866 128.792L596.85 124.92H595.09L591.634 128.376H591.474V124.92H590.146V133ZM598.017 133H599.633L603.921 126.824H604.081V133H605.409V124.92H603.793L599.489 131.112H599.345V124.92H598.017V133ZM611.316 123.384C612.564 123.384 613.46 122.488 613.46 121.24H612.34C612.34 121.928 611.956 122.408 611.316 122.408C610.676 122.408 610.308 121.928 610.308 121.24H609.188C609.188 122.488 610.068 123.384 611.316 123.384ZM607.684 133H609.3L613.588 126.824H613.748V133H615.076V124.92H613.46L609.156 131.112H609.012V124.92H607.684V133ZM625.288 136.696H626.616V133.32C629.208 133.224 631.144 131.384 631.144 128.936C631.144 126.52 629.208 124.696 626.616 124.6V121.224H625.288V124.6C622.68 124.696 620.744 126.52 620.744 128.936C620.744 131.4 622.68 133.224 625.288 133.32V136.696ZM625.288 132.12C623.48 132.04 622.072 130.664 622.072 128.936C622.072 127.24 623.48 125.88 625.288 125.8V132.12ZM626.616 132.12V125.8C628.392 125.896 629.816 127.256 629.816 128.936C629.816 130.648 628.392 132.04 626.616 132.12ZM631.803 133C633.179 133 634.315 132.296 634.587 130.328L635.179 126.12H638.123V133H639.451V124.92H633.995L633.419 129.56C633.227 131.08 632.939 131.88 631.803 131.88V133ZM645.682 133.32C647.474 133.32 648.93 132.488 649.57 131.112L648.466 130.552C647.97 131.512 646.914 132.12 645.698 132.12C644.066 132.12 642.882 131.032 642.69 129.4H649.842C649.858 129.224 649.858 129.032 649.858 128.872C649.858 126.392 648.066 124.6 645.602 124.6C643.106 124.6 641.314 126.392 641.314 128.856C641.314 131.448 643.154 133.32 645.682 133.32ZM642.706 128.232C642.93 126.776 644.05 125.8 645.554 125.8C647.074 125.8 648.226 126.776 648.45 128.232H642.706ZM651.711 133H653.039V129.24H653.199L656.735 133H658.511L654.431 128.792L658.415 124.92H656.655L653.199 128.376H653.039V124.92H651.711V133ZM662.951 133.32C664.871 133.32 666.551 132.088 666.919 130.36L665.623 130.2C665.287 131.336 664.215 132.12 662.951 132.12C661.303 132.12 660.071 130.824 660.071 128.952C660.055 127.096 661.319 125.8 662.967 125.8C664.199 125.8 665.303 126.584 665.607 127.752L666.887 127.576C666.599 125.848 664.935 124.6 662.951 124.6C660.519 124.6 658.743 126.424 658.743 128.952C658.727 131.48 660.503 133.32 662.951 133.32Z" fill="white"/>
<path d="M205.344 165H206.512L207.552 161.096H210.288L209.248 165H210.416L211.44 161.096H215.6V160.12H211.696L212.32 157.768H216.4V156.776H212.592L213.536 153.224H212.368L211.424 156.776H208.704L209.648 153.224H208.48L207.536 156.776H203.616V157.768H207.28L206.656 160.12H202.816V161.096H206.4L205.344 165ZM207.808 160.12L208.432 157.768H211.168L210.544 160.12H207.808ZM218.035 165H225.763V163.72H220.515V163.56L223.571 160.696C225.123 159.224 225.955 158.168 225.955 156.84C225.955 154.792 224.323 153.32 222.099 153.32C219.763 153.32 218.051 155.064 218.051 157.464H219.459C219.539 155.816 220.643 154.6 222.115 154.6C223.459 154.6 224.499 155.592 224.499 156.936C224.499 158.056 223.683 158.776 222.755 159.688L218.035 164.216V165ZM231.34 165.4C233.724 165.4 235.436 163.848 235.436 161.736C235.436 159.736 233.884 158.264 231.868 158.088L235.004 154.696V153.72H227.756V155H232.78V155.16L229.772 158.392L230.204 159.464C230.46 159.352 230.908 159.256 231.276 159.256C232.828 159.256 233.98 160.296 233.98 161.72C233.98 163.112 232.86 164.12 231.324 164.12C229.772 164.12 228.588 162.888 228.588 161.224H227.116C227.212 163.64 228.988 165.4 231.34 165.4ZM239.349 165H240.805V153.72H239.637L236.581 156.008V157.72L239.189 155.736H239.349V165ZM243.66 165H247.276C251.18 165 253.772 162.76 253.772 159.352C253.772 155.944 251.18 153.72 247.276 153.72H243.66V165ZM245.116 163.72V155H247.276C250.284 155 252.332 156.664 252.332 159.352C252.332 162.056 250.3 163.72 247.276 163.72H245.116ZM257.84 165H259.296V153.72H258.128L255.072 156.008V157.72L257.68 155.736H257.84V165ZM262.152 165H265.768C269.672 165 272.264 162.76 272.264 159.352C272.264 155.944 269.672 153.72 265.768 153.72H262.152V165ZM263.608 163.72V155H265.768C268.776 155 270.824 156.664 270.824 159.352C270.824 162.056 268.792 163.72 265.768 163.72H263.608Z" fill="white"/>
<path d="M394.344 165H395.512L396.552 161.096H399.288L398.248 165H399.416L400.44 161.096H404.6V160.12H400.696L401.32 157.768H405.4V156.776H401.592L402.536 153.224H401.368L400.424 156.776H397.704L398.648 153.224H397.48L396.536 156.776H392.616V157.768H396.28L395.656 160.12H391.816V161.096H395.4L394.344 165ZM396.808 160.12L397.432 157.768H400.168L399.544 160.12H396.808ZM412.123 165H413.579V162.504H414.987V161.224H413.579V153.72H411.355L406.555 161.576V162.504H412.123V165ZM408.315 161.224L411.963 155.192H412.107V161.224H408.315ZM420.736 165.4C423.072 165.4 424.8 163.832 424.8 161.656C424.8 159.448 423.152 157.848 420.56 157.848H418.928L419.232 155H423.888V153.72H418.048L417.456 159.128H420.416C422.272 159.128 423.376 160.216 423.376 161.688C423.376 163.096 422.256 164.12 420.72 164.12C419.168 164.12 417.984 162.888 417.968 161.224H416.512C416.608 163.64 418.384 165.4 420.736 165.4ZM427.023 165H428.495V159.8H433.567V158.52H428.495V155H434.207V153.72H427.023V165ZM436.514 165H438.098L442.498 154.584V153.72H434.866V155H440.754L436.514 165ZM444.171 165H452.075V163.72H445.643V159.8H451.275V158.52H445.643V155H451.915V153.72H444.171V165ZM456.102 165H457.558V153.72H456.39L453.334 156.008V157.72L455.942 155.736H456.102V165Z" fill="white"/>
<path d="M584.344 165H585.512L586.552 161.096H589.288L588.248 165H589.416L590.44 161.096H594.6V160.12H590.696L591.32 157.768H595.4V156.776H591.592L592.536 153.224H591.368L590.424 156.776H587.704L588.648 153.224H587.48L586.536 156.776H582.616V157.768H586.28L585.656 160.12H581.816V161.096H585.4L584.344 165ZM586.808 160.12L587.432 157.768H590.168L589.544 160.12H586.808ZM597.563 165H602.459C604.715 165 606.347 163.656 606.347 161.832C606.347 160.616 605.531 159.56 604.379 159.24V159.08C605.339 158.776 606.027 157.816 606.027 156.744C606.027 154.984 604.539 153.72 602.459 153.72H597.563V165ZM599.019 158.568V155H602.283C603.627 155 604.587 155.752 604.587 156.792C604.587 157.832 603.627 158.568 602.283 158.568H599.019ZM599.019 163.72V159.848H602.251C603.803 159.848 604.907 160.648 604.907 161.752C604.907 162.888 603.803 163.72 602.251 163.72H599.019ZM608.543 165H616.447V163.72H610.015V159.8H615.647V158.52H610.015V155H616.287V153.72H608.543V165ZM618.586 165H620.058V159.8H625.13V158.52H620.058V155H625.77V153.72H618.586V165ZM628.077 165H629.661L634.061 154.584V153.72H626.429V155H632.317L628.077 165ZM640.294 165H641.75V162.504H643.158V161.224H641.75V153.72H639.526L634.726 161.576V162.504H640.294V165ZM636.486 161.224L640.134 155.192H640.278V161.224H636.486ZM648.907 165.4C651.243 165.4 652.971 163.832 652.971 161.656C652.971 159.448 651.323 157.848 648.731 157.848H647.099L647.403 155H652.059V153.72H646.219L645.627 159.128H648.587C650.443 159.128 651.547 160.216 651.547 161.688C651.547 163.096 650.427 164.12 648.891 164.12C647.339 164.12 646.155 162.888 646.139 161.224H644.683C644.779 163.64 646.555 165.4 648.907 165.4Z" fill="white"/>
<rect x="376" width="100" height="100" fill="#45F7E1"/>
<rect x="566" width="100" height="100" fill="#BEF745"/>
<rect x="188.5" y="0.5" width="99" height="99" fill="#231D1D" stroke="white"/>
<rect width="100" height="100" fill="white"/>
</svg>
