<svg width="885" height="198" viewBox="0 0 885 198" fill="none" xmlns="http://www.w3.org/2000/svg">
<rect width="198" height="198" fill="white"/>
<rect x="231.5" y="0.5" width="197" height="197" stroke="white"/>
<path d="M254.021 29.8788V26.0547H251.441V29.8788H245V40.0821H251.441V43.9227H254.021V40.0821H260.463V29.8788H254.021ZM251.441 37.5436H247.563V32.4338H251.441V37.5436ZM257.883 37.5436H254.021V32.4338H257.883V37.5436Z" fill="#45F7E1"/>
<path d="M263.231 29.8788V35.6151C263.231 36.6865 262.365 37.5436 261.3 37.5436V40.0821C263.78 40.0821 265.811 38.0876 265.811 35.6151V32.4338H269.672V40.0821H272.252V29.8788H263.231Z" fill="#45F7E1"/>
<path d="M281.656 34.9887C281.656 36.3898 280.508 37.5436 279.076 37.5436C278.127 37.5436 277.295 37.0162 276.846 36.2579H279.076V33.703H276.496V32.4338H282.954V29.8788H273.933V34.9887C273.933 37.8074 276.23 40.0821 279.076 40.0821C281.922 40.0821 284.236 37.8074 284.236 34.9887H281.656Z" fill="#45F7E1"/>
<path d="M291.508 33.703C292.324 32.6316 292.807 31.3129 292.807 29.8788H290.227C290.227 31.5437 289.162 32.9613 287.647 33.4887V29.8788H285.084V40.0821H287.647V36.2579H292.807V40.0821H295.387V33.703H291.508Z" fill="#45F7E1"/>
<path d="M301.873 37.5436C300.459 37.5436 299.294 36.3898 299.294 34.9887C299.294 33.5711 300.459 32.4338 301.873 32.4338C303.072 32.4338 304.087 33.2415 304.37 34.3459H307C306.684 31.8239 304.503 29.8788 301.873 29.8788C299.027 29.8788 296.73 32.17 296.73 34.9887C296.73 37.8074 299.027 40.0821 301.873 40.0821C304.503 40.0821 306.684 38.1371 307 35.6151H304.37C304.087 36.7195 303.072 37.5436 301.873 37.5436Z" fill="#45F7E1"/>
<path d="M252.619 14V19.175C252.619 20.594 251.486 21.7625 250.074 21.7625C248.678 21.7625 247.529 20.594 247.529 19.175V14H245V19.175C245 22.0296 247.266 24.3333 250.074 24.3333C251.01 24.3333 251.88 24.0829 252.619 23.6489V24.3333H255.164V14H252.619Z" fill="#45F7E1"/>
<path d="M264.436 17.8729C265.224 16.7878 265.717 15.4523 265.717 14H256.817V16.5875H262.187C261.497 17.3721 260.479 17.8729 259.346 17.8729V20.4604H264.436V21.7625H256.817V24.3333H266.981V17.8729H264.436Z" fill="#45F7E1"/>
<path d="M276.254 14V19.175C276.254 20.594 275.121 21.7625 273.709 21.7625C272.313 21.7625 271.164 20.594 271.164 19.175V14H268.635V19.175C268.635 22.0296 270.901 24.3333 273.709 24.3333C274.644 24.3333 275.515 24.0829 276.254 23.6489V24.3333H278.799V14H276.254Z" fill="#45F7E1"/>
<path d="M21.0214 29.8788V26.0547H18.4415V29.8788H12V40.0821H18.4415V43.9227H21.0214V40.0821H27.4628V29.8788H21.0214ZM18.4415 37.5436H14.5633V32.4338H18.4415V37.5436ZM24.8829 37.5436H21.0214V32.4338H24.8829V37.5436Z" fill="#231D1D"/>
<path d="M30.2308 29.8788V35.6151C30.2308 36.6865 29.3653 37.5436 28.3 37.5436V40.0821C30.7801 40.0821 32.8107 38.0876 32.8107 35.6151V32.4338H36.6723V40.0821H39.2522V29.8788H30.2308Z" fill="#231D1D"/>
<path d="M48.6561 34.9887C48.6561 36.3898 47.5076 37.5436 46.0762 37.5436C45.1275 37.5436 44.2952 37.0162 43.8458 36.2579H46.0762V33.703H43.4963V32.4338H49.9544V29.8788H40.933V34.9887C40.933 37.8074 43.23 40.0821 46.0762 40.0821C48.9224 40.0821 51.236 37.8074 51.236 34.9887H48.6561Z" fill="#231D1D"/>
<path d="M58.5084 33.703C59.324 32.6316 59.8067 31.3129 59.8067 29.8788H57.2268C57.2268 31.5437 56.1615 32.9613 54.6469 33.4887V29.8788H52.0836V40.0821H54.6469V36.2579H59.8067V40.0821H62.3866V33.703H58.5084Z" fill="#231D1D"/>
<path d="M68.8735 37.5436C67.4587 37.5436 66.2935 36.3898 66.2935 34.9887C66.2935 33.5711 67.4587 32.4338 68.8735 32.4338C70.0719 32.4338 71.0872 33.2415 71.3702 34.3459H74C73.6838 31.8239 71.5033 29.8788 68.8735 29.8788C66.0272 29.8788 63.7303 32.17 63.7303 34.9887C63.7303 37.8074 66.0272 40.0821 68.8735 40.0821C71.5033 40.0821 73.6838 38.1371 74 35.6151H71.3702C71.0872 36.7195 70.0719 37.5436 68.8735 37.5436Z" fill="#231D1D"/>
<path d="M19.6186 14V19.175C19.6186 20.594 18.4857 21.7625 17.0736 21.7625C15.678 21.7625 14.5286 20.594 14.5286 19.175V14H12V19.175C12 22.0296 14.2659 24.3333 17.0736 24.3333C18.0095 24.3333 18.8797 24.0829 19.6186 23.6489V24.3333H22.1636V14H19.6186Z" fill="#231D1D"/>
<path d="M31.4361 17.8729C32.2242 16.7878 32.7168 15.4523 32.7168 14H23.8175V16.5875H29.1866C28.497 17.3721 27.479 17.8729 26.3461 17.8729V20.4604H31.4361V21.7625H23.8175V24.3333H33.9811V17.8729H31.4361Z" fill="#231D1D"/>
<path d="M43.2536 14V19.175C43.2536 20.594 42.1207 21.7625 40.7086 21.7625C39.3129 21.7625 38.1636 20.594 38.1636 19.175V14H35.635V19.175C35.635 22.0296 37.9009 24.3333 40.7086 24.3333C41.6445 24.3333 42.5147 24.0829 43.2536 23.6489V24.3333H45.7986V14H43.2536Z" fill="#231D1D"/>
<circle cx="570" cy="99" r="94" fill="white"/>
<circle cx="791" cy="99" r="93.5" fill="#231D1D" stroke="white"/>
<path d="M547.747 69V79.517C547.747 82.4006 545.495 84.7754 542.687 84.7754C539.912 84.7754 537.627 82.4006 537.627 79.517V69H532.6V79.517C532.6 85.3183 537.105 90 542.687 90C544.548 90 546.278 89.4911 547.747 88.609V90H552.807V69H547.747Z" fill="#231D1D"/>
<path d="M571.243 76.8708C572.81 74.6656 573.79 71.9515 573.79 69H556.096V74.2585H566.771C565.4 75.853 563.376 76.8708 561.123 76.8708V82.1292H571.243V84.7754H556.096V90H576.304V76.8708H571.243Z" fill="#231D1D"/>
<path d="M594.739 69V79.517C594.739 82.4006 592.487 84.7754 589.679 84.7754C586.904 84.7754 584.619 82.4006 584.619 79.517V69H579.592V79.517C579.592 85.3183 584.097 90 589.679 90C591.54 90 593.27 89.4911 594.739 88.609V90H599.8V69H594.739Z" fill="#231D1D"/>
<path d="M525.897 101.178V93.6016H520.779V101.178H508V121.393H520.779V129.002H525.897V121.393H538.676V101.178H525.897ZM520.779 116.363H513.085V106.24H520.779V116.363ZM533.558 116.363H525.897V106.24H533.558V116.363Z" fill="#231D1D"/>
<path d="M544.168 101.178V112.543C544.168 114.665 542.45 116.363 540.337 116.363V121.393C545.257 121.393 549.286 117.441 549.286 112.543V106.24H556.947V121.393H562.065V101.178H544.168Z" fill="#231D1D"/>
<path d="M580.721 111.302C580.721 114.077 578.443 116.363 575.603 116.363C573.721 116.363 572.07 115.318 571.178 113.816H575.603V108.754H570.485V106.24H583.297V101.178H565.399V111.302C565.399 116.886 569.956 121.393 575.603 121.393C581.249 121.393 585.839 116.886 585.839 111.302H580.721Z" fill="#231D1D"/>
<path d="M600.267 108.754C601.885 106.632 602.842 104.019 602.842 101.178H597.724C597.724 104.476 595.611 107.285 592.606 108.33V101.178H587.521V121.393H592.606V113.816H602.842V121.393H607.961V108.754H600.267Z" fill="#231D1D"/>
<path d="M620.83 116.363C618.023 116.363 615.711 114.077 615.711 111.302C615.711 108.493 618.023 106.24 620.83 106.24C623.207 106.24 625.221 107.84 625.783 110.028H631C630.373 105.031 626.047 101.178 620.83 101.178C615.183 101.178 610.626 105.717 610.626 111.302C610.626 116.886 615.183 121.393 620.83 121.393C626.047 121.393 630.373 117.539 631 112.543H625.783C625.221 114.731 623.207 116.363 620.83 116.363Z" fill="#231D1D"/>
<path d="M768.747 69V79.517C768.747 82.4006 766.495 84.7754 763.687 84.7754C760.912 84.7754 758.627 82.4006 758.627 79.517V69H753.6V79.517C753.6 85.3183 758.105 90 763.687 90C765.548 90 767.278 89.4911 768.747 88.609V90H773.807V69H768.747Z" fill="#45F7E1"/>
<path d="M792.243 76.8708C793.81 74.6656 794.79 71.9515 794.79 69H777.096V74.2585H787.771C786.4 75.853 784.376 76.8708 782.123 76.8708V82.1292H792.243V84.7754H777.096V90H797.304V76.8708H792.243Z" fill="#45F7E1"/>
<path d="M815.739 69V79.517C815.739 82.4006 813.487 84.7754 810.679 84.7754C807.904 84.7754 805.619 82.4006 805.619 79.517V69H800.592V79.517C800.592 85.3183 805.097 90 810.679 90C812.54 90 814.27 89.4911 815.739 88.609V90H820.8V69H815.739Z" fill="#45F7E1"/>
<path d="M746.897 101.178V93.6016H741.779V101.178H729V121.393H741.779V129.002H746.897V121.393H759.676V101.178H746.897ZM741.779 116.363H734.085V106.24H741.779V116.363ZM754.558 116.363H746.897V106.24H754.558V116.363Z" fill="#45F7E1"/>
<path d="M765.168 101.178V112.543C765.168 114.665 763.45 116.363 761.337 116.363V121.393C766.257 121.393 770.286 117.441 770.286 112.543V106.24H777.947V121.393H783.065V101.178H765.168Z" fill="#45F7E1"/>
<path d="M801.721 111.302C801.721 114.077 799.443 116.363 796.603 116.363C794.721 116.363 793.07 115.318 792.178 113.816H796.603V108.754H791.485V106.24H804.297V101.178H786.399V111.302C786.399 116.886 790.956 121.393 796.603 121.393C802.249 121.393 806.839 116.886 806.839 111.302H801.721Z" fill="#45F7E1"/>
<path d="M821.267 108.754C822.885 106.632 823.842 104.019 823.842 101.178H818.724C818.724 104.476 816.611 107.285 813.606 108.33V101.178H808.521V121.393H813.606V113.816H823.842V121.393H828.961V108.754H821.267Z" fill="#45F7E1"/>
<path d="M841.83 116.363C839.023 116.363 836.711 114.077 836.711 111.302C836.711 108.493 839.023 106.24 841.83 106.24C844.207 106.24 846.221 107.84 846.783 110.028H852C851.373 105.031 847.047 101.178 841.83 101.178C836.183 101.178 831.626 105.717 831.626 111.302C831.626 116.886 836.183 121.393 841.83 121.393C847.047 121.393 851.373 117.539 852 112.543H846.783C846.221 114.731 844.207 116.363 841.83 116.363Z" fill="#45F7E1"/>
</svg>
