<svg width="222" height="246" viewBox="0 0 222 246" fill="none" xmlns="http://www.w3.org/2000/svg">
<path fill-rule="evenodd" clip-rule="evenodd" d="M83.6449 26.5672C93.4705 19.2223 103.228 19 114.82 19C115.008 19 115.16 19.1529 115.16 19.3415C115.16 19.5301 115.008 19.683 114.82 19.683C103.223 19.683 93.677 19.9185 84.0491 27.1157C73.4533 35.0364 66.7772 47.1304 66.6794 60.4342C66.6246 67.8803 68.4393 74.3439 72.0988 79.4069C75.7565 84.4676 81.2765 88.1557 88.6822 90.0204C92.1565 90.8952 95.8812 91.4739 99.7528 91.7683C112.176 78.2677 129.517 69.3374 147.906 70.0638C149.645 70.1325 151.356 70.3443 152.827 70.712C154.289 71.0775 155.553 71.6061 156.361 72.3337C156.769 72.7012 157.072 73.1294 157.215 73.6226C157.359 74.1191 157.333 74.6532 157.128 75.2141C156.724 76.3169 155.626 77.5395 153.713 78.9019C145.199 84.9676 133.902 89.1695 122.245 91.228C114.788 92.5448 107.172 92.9866 100.028 92.4735C93.4501 99.6846 88.2804 108.197 85.1174 117.234C85.0596 117.399 84.999 117.571 84.9361 117.75C84.1475 119.99 83.0037 123.239 82.5342 126.436C82.0242 129.908 82.3318 133.171 84.5785 135.049C88.3831 138.229 93.7564 140.022 99.3938 141.03C105.025 142.037 110.879 142.254 115.617 142.31C145.148 142.66 173.432 128.789 199.512 115.975C199.68 115.893 199.883 115.963 199.966 116.133C200.048 116.302 199.978 116.507 199.81 116.589C173.761 129.388 145.329 143.346 115.609 142.993C110.862 142.937 104.963 142.72 99.2753 141.703C93.5939 140.686 88.0836 138.866 84.1454 135.574C81.6023 133.449 81.348 129.844 81.8634 126.336C82.343 123.07 83.5084 119.761 84.2949 117.527C84.3585 117.346 84.4197 117.173 84.4778 117.007C87.611 108.055 92.6983 99.6059 99.1716 92.4072C95.4538 92.0987 91.8723 91.5277 88.5178 90.6831C80.9791 88.7848 75.3141 85.016 71.5505 79.8089C67.7886 74.6042 65.9456 67.9893 66.0012 60.4292C66.1008 46.8909 72.8949 34.6033 83.6449 26.5672ZM100.623 91.8295C107.544 92.2777 114.906 91.8304 122.127 90.5553C133.714 88.5094 144.909 84.3374 153.322 78.3443C155.204 77.003 156.161 75.8806 156.491 74.978C156.653 74.5363 156.663 74.1527 156.564 73.8141C156.465 73.4722 156.248 73.1478 155.909 72.843C155.224 72.226 154.088 71.731 152.664 71.375C151.249 71.0212 149.585 70.8137 147.88 70.7463C129.902 70.0362 112.901 78.6836 100.623 91.8295Z" fill="white"/>
<path fill-rule="evenodd" clip-rule="evenodd" d="M82.1862 74.419C82.5831 74.9059 82.5098 75.622 82.0225 76.0185C81.3978 76.5268 80.7731 77.0349 80.1484 77.5429C53.5606 99.166 27.159 120.638 12.1453 152.121C5.77449 165.481 2.66165 179.97 2.32596 194.726C2.23462 198.741 2.21237 203.371 2.76563 207.879C3.31998 212.397 4.44247 216.703 6.57935 220.113C10.1786 225.858 16.8486 227.569 24.3106 227.298C31.7429 227.027 39.6021 224.793 45.0691 223.059C46.0611 222.745 47.0492 222.422 48.0337 222.092C48.9542 219.048 50.0538 216.074 51.1146 213.205C51.4284 212.356 51.7388 211.517 52.0402 210.687C52.903 208.313 53.7948 205.95 54.6852 203.592C58.3101 193.991 61.911 184.453 63.4298 174.411C63.9364 171.061 64.6561 165.577 64.4711 160.306C64.3785 157.672 64.0609 155.136 63.4007 152.968C62.7388 150.795 61.7592 149.078 60.4043 147.97C59.0166 146.834 56.9508 146.465 54.5694 146.532C52.5366 146.589 50.467 146.953 48.6804 147.267C48.392 147.318 48.1111 147.367 47.8388 147.414C34.2008 149.75 23.2704 157.051 16.2454 168.943C15.9259 169.484 15.2282 169.664 14.687 169.344C14.1457 169.025 13.9659 168.328 14.2853 167.787C21.6629 155.298 33.1818 147.617 47.4543 145.173C47.7099 145.129 47.9795 145.081 48.2611 145.032C50.0376 144.718 52.2908 144.321 54.5056 144.259C57.0509 144.187 59.811 144.545 61.8465 146.211C63.674 147.706 64.8413 149.887 65.578 152.306C66.3165 154.73 66.6492 157.481 66.7456 160.227C66.9384 165.718 66.1907 171.375 65.6802 174.75C64.1218 185.054 60.4118 194.876 56.7778 204.497C55.8966 206.829 55.02 209.15 54.1796 211.463C53.8753 212.3 53.5655 213.14 53.2549 213.982C52.3761 216.363 51.4914 218.761 50.7087 221.172C67.6703 215.206 83.6136 207.028 99.69 198.782C100.566 198.333 101.442 197.883 102.319 197.434C102.597 197.291 102.875 197.148 103.154 197.006C111.2 192.88 119.509 188.619 128.475 186.309C129.545 186.033 131.282 185.591 133.052 185.411C134.757 185.237 136.793 185.267 138.267 186.214C139.048 186.715 139.475 187.494 139.706 188.256C139.937 189.017 140.005 189.858 140 190.647C139.99 192.147 139.712 193.692 139.553 194.572C139.545 194.617 139.537 194.66 139.53 194.702C138.023 203.098 132.64 210.099 126.228 215.949C120.3 221.357 113.378 225.882 107.582 229.67C107.105 229.982 106.635 230.289 106.174 230.592C91.4613 240.236 78.0516 247.444 59.9032 245.753L59.8784 245.751C56.8152 245.466 53.3997 245.148 50.7371 243.885C49.3707 243.237 48.155 242.322 47.2717 241.002C46.3874 239.68 45.8898 238.033 45.8311 236.009C45.7207 232.203 46.3316 228.425 47.2894 224.734C46.7798 224.9 46.2692 225.064 45.7576 225.227C40.27 226.967 32.1578 229.288 24.3935 229.57C16.6588 229.852 8.9068 228.113 4.65021 221.32C2.26234 217.509 1.08006 212.83 0.506595 208.156C-0.0679666 203.474 -0.0410959 198.706 0.0506061 194.675C0.392792 179.632 3.56718 164.823 10.0907 151.143C25.3281 119.19 52.0861 97.4311 78.561 75.9019C79.236 75.353 79.9108 74.8042 80.5853 74.2554C81.0726 73.8589 81.7894 73.9321 82.1862 74.419ZM49.8842 223.866C48.7429 227.86 47.9885 231.889 48.1061 235.943C48.1549 237.623 48.5597 238.835 49.1638 239.738C49.7689 240.642 50.6277 241.316 51.7131 241.831C53.9469 242.89 56.9328 243.193 60.1145 243.489C77.442 245.103 90.2847 238.288 104.926 228.691C105.382 228.391 105.846 228.088 106.316 227.781C112.134 223.977 118.908 219.548 124.693 214.27C130.947 208.564 135.911 201.983 137.29 194.301L137.307 194.201C137.468 193.305 137.716 191.931 137.724 190.633C137.728 189.96 137.667 189.372 137.528 188.916C137.39 188.461 137.207 188.236 137.037 188.127C136.265 187.631 134.927 187.505 133.283 187.673C131.704 187.834 130.118 188.233 129.043 188.51C120.328 190.756 112.22 194.914 104.11 199.071C103.859 199.2 103.608 199.328 103.358 199.457C102.465 199.915 101.572 200.373 100.679 200.831C84.152 209.308 67.5961 217.801 49.8842 223.866Z" fill="white"/>
<path fill-rule="evenodd" clip-rule="evenodd" d="M221.967 0.194819C222.048 0.365086 221.975 0.56878 221.805 0.64978C218.138 2.39567 214.468 4.08955 210.807 5.77968C202.072 9.81194 193.383 13.8228 184.878 18.4675C168.085 27.6384 152.186 38.1635 136.651 49.3518C113.348 66.1347 89.6106 83.3602 68.9786 103.397C62.2358 109.945 58.8883 113.672 55.0993 121.486C52.926 125.968 52.1233 129.943 53.0824 132.996C54.0296 136.011 56.7353 138.238 61.866 139.146C69.4805 140.495 77.3121 140.778 85.1105 141.061C87.918 141.162 90.7212 141.264 93.5085 141.415C94.1448 141.449 94.8654 141.483 95.657 141.52C101.584 141.799 111.488 142.266 119.753 144.545C124.435 145.836 128.645 147.721 131.307 150.528C132.484 151.768 133.36 153.19 133.838 154.818C143.096 153.984 152.539 154.914 162.181 157.98C170.891 160.75 179.635 165.086 181.819 174.7C181.861 174.884 181.746 175.067 181.562 175.109C181.378 175.151 181.196 175.036 181.154 174.852C179.06 165.634 170.673 161.397 161.975 158.631C152.466 155.608 143.15 154.679 134.009 155.488C134.009 155.489 134.009 155.489 134.009 155.49C134.427 157.401 134.31 159.56 133.55 161.997C131.3 169.2 125.359 175.253 118.374 179.962C111.381 184.675 103.299 188.07 96.6915 189.94C94.6189 190.527 89.6009 191.892 85.4294 191.994C83.3563 192.045 81.4109 191.787 80.1516 190.891C79.5096 190.434 79.0474 189.812 78.8452 188.998C78.6449 188.192 78.7066 187.225 79.0556 186.082C80.6837 180.75 84.227 176.439 88.4926 172.893C92.7577 169.348 97.7631 166.554 102.344 164.262C112.387 159.237 122.647 155.93 133.145 154.884C132.693 153.424 131.893 152.136 130.812 150.998C128.279 148.327 124.215 146.483 119.572 145.203C111.387 142.946 101.569 142.483 95.6325 142.203C94.8383 142.165 94.1136 142.131 93.4716 142.096C90.7118 141.947 87.9255 141.846 85.1279 141.745C77.3147 141.462 69.4124 141.176 61.7471 139.819C56.4687 138.884 53.4819 136.545 52.4315 133.201C51.393 129.896 52.2877 125.72 54.4854 121.188C58.3242 113.271 61.7352 109.48 68.5034 102.907C89.1768 82.83 112.955 65.5767 136.253 48.7976C151.801 37.5994 167.725 27.0571 184.551 17.8681C193.077 13.2119 201.799 9.18562 210.544 5.14913C214.2 3.46121 217.861 1.7715 221.512 0.0331883C221.682 -0.0478126 221.886 0.024552 221.967 0.194819ZM133.324 155.552C122.881 156.576 112.665 159.861 102.649 164.872C98.0831 167.157 93.1331 169.923 88.9286 173.418C84.7247 176.913 81.2843 181.12 79.7082 186.282C79.3823 187.349 79.3461 188.184 79.5074 188.833C79.6669 189.475 80.0258 189.964 80.547 190.334C81.6141 191.094 83.3632 191.361 85.4128 191.311C89.4867 191.212 94.4268 189.871 96.5057 189.283C103.055 187.429 111.069 184.062 117.992 179.396C124.922 174.725 130.716 168.782 132.898 161.793C133.63 159.449 133.731 157.411 133.343 155.636C133.337 155.608 133.33 155.58 133.324 155.552Z" fill="#45F7E1"/>
<path fill-rule="evenodd" clip-rule="evenodd" d="M30.1617 41.3099C24.6671 43.5161 19.5452 47.1881 15.9366 50.6858C15.485 51.1236 14.7626 51.1137 14.3232 50.6638C13.8838 50.2139 13.8937 49.4943 14.3453 49.0566C18.1253 45.3928 23.4904 41.5376 29.3087 39.2015C35.1159 36.8699 41.5337 35.9927 47.274 38.558C51.4342 40.4171 54.0016 43.9721 55.6081 47.8946C56.8839 51.0095 57.5828 54.4234 57.9936 57.5625C74.9753 50.5786 92.6538 47.8314 110.736 45.8735C111.362 45.8056 111.925 46.2565 111.993 46.8806C112.061 47.5046 111.609 48.0655 110.982 48.1334C92.7277 50.11 75.1087 52.875 58.2579 59.915C58.258 59.9169 58.2582 59.9187 58.2584 59.9206C59.2771 70.6227 58.4891 81.8821 50.8663 90.6069C49.4252 92.2563 46.6156 93.9824 43.3869 95.4167C40.1181 96.8689 36.258 98.0929 32.5857 98.6604C28.9549 99.2215 25.3186 99.1708 22.6313 97.8698C21.2584 97.2052 20.1198 96.2062 19.3931 94.803C18.6709 93.4083 18.403 91.7066 18.6036 89.7078C19.065 85.1123 22.2732 81.4434 25.1328 78.6182C33.2854 70.5637 43.3474 64.172 53.687 59.4335C54.3933 59.1097 55.1009 58.794 55.8098 58.4859C55.4246 55.28 54.7548 51.8284 53.4953 48.7533C52.0191 45.149 49.7792 42.1689 46.3401 40.632C41.3884 38.4192 35.6674 39.0993 30.1617 41.3099ZM56.0529 60.8628C55.5816 61.0712 55.1108 61.2831 54.6407 61.4986C44.486 66.1524 34.6624 72.4049 26.7396 80.2322C23.8824 83.055 21.2472 86.2183 20.8742 89.934C20.706 91.6101 20.9482 92.8478 21.421 93.7608C21.8894 94.6653 22.6308 95.3422 23.6287 95.8253C25.6831 96.8199 28.7516 96.9525 32.2359 96.4141C35.6786 95.8821 39.3439 94.7238 42.4576 93.3406C45.6115 91.9395 48.0418 90.3772 49.145 89.1145C55.9742 81.2981 56.946 71.1412 56.0529 60.8628Z" fill="#45F7E1"/>
<path fill-rule="evenodd" clip-rule="evenodd" d="M170.408 91.0058C170.486 91.634 170.039 92.2063 169.41 92.284C155.288 94.0267 141.75 99.8274 128.567 105.517C127.485 105.984 126.338 106.452 125.153 106.936C122.64 107.96 119.958 109.055 117.365 110.357C113.563 112.267 110.188 114.52 108.144 117.392C107.455 118.36 107.273 119.068 107.298 119.566C107.322 120.041 107.542 120.501 108.049 120.974C109.137 121.989 111.253 122.783 113.908 123.351C118.479 124.33 123.895 124.502 126.117 124.572C126.435 124.582 126.687 124.59 126.862 124.598C158.108 126.02 188.369 113.386 216.366 100.34C216.941 100.073 217.624 100.321 217.892 100.894C218.16 101.468 217.912 102.15 217.337 102.418C189.362 115.453 158.631 128.338 126.758 126.888C126.604 126.881 126.374 126.874 126.079 126.865C123.913 126.798 118.234 126.622 113.427 125.593C110.738 125.017 108.067 124.127 106.482 122.65C105.653 121.877 105.066 120.89 105.005 119.681C104.946 118.496 105.403 117.285 106.272 116.064C108.647 112.727 112.434 110.268 116.333 108.309C119.006 106.967 121.842 105.809 124.396 104.767C125.555 104.294 126.656 103.845 127.656 103.413C140.786 97.7461 154.624 91.7986 169.128 90.0088C169.757 89.9311 170.33 90.3775 170.408 91.0058Z" fill="#BEF745"/>
</svg>
