<svg width="601" height="91" viewBox="0 0 601 91" fill="none" xmlns="http://www.w3.org/2000/svg">
<path d="M1.386 14H2.88V6.998H3.042L6.282 14H7.614L10.854 6.998H11.034V14H12.528V4.91H10.35L7.02 12.128H6.84L3.546 4.91H1.386V14ZM19.4843 14.36C22.3283 14.36 24.3623 12.326 24.3623 9.446C24.3623 6.584 22.3283 4.55 19.4843 4.55C16.6223 4.55 14.6063 6.584 14.6063 9.446C14.6063 12.326 16.6223 14.36 19.4843 14.36ZM19.4843 13.01C17.5043 13.01 16.1003 11.516 16.1003 9.446C16.1003 7.394 17.5043 5.9 19.4843 5.9C21.4463 5.9 22.8683 7.394 22.8683 9.446C22.8683 11.516 21.4463 13.01 19.4843 13.01ZM28.5713 14H30.0653V6.26H33.3413V4.91H25.2773V6.26H28.5713V14ZM34.9111 14H36.7291L41.5531 7.052H41.7331V14H43.2271V4.91H41.4091L36.5671 11.876H36.4051V4.91H34.9111V14ZM45.7874 14H50.4134C52.1774 14 53.4194 12.92 53.4194 11.372C53.4194 10.22 52.7174 9.518 51.7634 9.32V9.14C52.5374 8.87 53.1494 8.15 53.1494 7.178C53.1494 5.882 51.9794 4.91 50.3414 4.91H45.7874V14ZM47.2814 8.6V6.188H50.1794C51.0434 6.188 51.6734 6.746 51.6734 7.412C51.6734 8.078 51.0434 8.6 50.1794 8.6H47.2814ZM47.2814 12.722V9.896H50.1614C51.2054 9.896 51.9254 10.472 51.9254 11.264C51.9254 12.056 51.2054 12.722 50.1614 12.722H47.2814ZM58.0414 14.288C59.4994 14.288 60.5614 13.712 61.2094 12.668H61.3714V14H62.8654V7.97C62.8654 5.9 61.3714 4.568 59.0134 4.568C56.7274 4.568 55.2334 5.792 55.2334 7.718H56.7454C56.7274 6.584 57.6274 5.918 58.9954 5.918C60.4894 5.918 61.3714 6.71 61.3714 7.934V8.294L58.8514 8.6C56.1514 8.906 54.7834 10.094 54.7834 11.696C54.7834 13.262 56.0794 14.288 58.0414 14.288ZM58.2574 13.046C57.0334 13.046 56.2774 12.524 56.2774 11.66C56.2774 10.814 56.9974 10.094 58.8514 9.86L61.3714 9.572V10.382C61.3714 11.912 60.1114 13.046 58.2574 13.046ZM73.5706 16.7H74.9206V12.65H73.3726V4.91H71.8786V12.65H66.7486V4.91H65.2546V14H73.5706V16.7ZM76.6582 14H78.4762L83.3002 7.052H83.4802V14H84.9742V4.91H83.1562L78.3142 11.876H78.1522V4.91H76.6582V14ZM87.0484 14H88.8844L91.6024 10.652H93.1864V14H94.6804V4.91H90.6484C88.4884 4.91 87.0664 6.08 87.0664 7.772C87.0664 9.212 88.0384 10.454 89.9464 10.634L87.0484 14ZM90.6484 9.302C89.3704 9.302 88.5604 8.69 88.5604 7.772C88.5604 6.854 89.3884 6.26 90.6484 6.26H93.1864V9.302H90.6484ZM101.535 14H103.353L108.177 7.052H108.357V14H109.851V4.91H108.033L103.191 11.876H103.029V4.91H101.535V14ZM115.687 16.7H117.019V14H125.209V16.7H126.541V12.65H125.011V4.91H118.675L118.171 9.248C117.955 11.12 117.649 12.11 116.875 12.65H115.687V16.7ZM118.423 12.65V12.47C119.089 11.876 119.359 11.192 119.521 9.878L119.953 6.26H123.517V12.65H118.423ZM132.421 14.36C135.265 14.36 137.299 12.326 137.299 9.446C137.299 6.584 135.265 4.55 132.421 4.55C129.559 4.55 127.543 6.584 127.543 9.446C127.543 12.326 129.559 14.36 132.421 14.36ZM132.421 13.01C130.441 13.01 129.037 11.516 129.037 9.446C129.037 7.394 130.441 5.9 132.421 5.9C134.383 5.9 135.805 7.394 135.805 9.446C135.805 11.516 134.383 13.01 132.421 13.01ZM143.682 14.432C146.328 14.432 148.2 12.56 148.2 9.878C148.2 7.232 146.58 5.27 143.934 5.27C142.566 5.27 141.522 5.81 140.928 6.8H140.748C140.928 3.668 141.756 2.75 144.438 2.75C146.616 2.75 147.66 2.066 147.66 0.499999H146.346C146.346 1.112 145.752 1.346 144.294 1.346C140.28 1.346 139.164 3.2 139.164 9.878C139.164 12.56 141.036 14.432 143.682 14.432ZM143.682 13.082C141.918 13.082 140.658 11.714 140.658 9.824C140.658 7.898 141.954 6.62 143.682 6.62C145.464 6.62 146.706 7.952 146.706 9.824C146.706 11.714 145.464 13.082 143.682 13.082ZM155.277 4.55C153.783 4.55 152.613 5.198 151.947 6.296H151.785V4.91H150.291V18.14H151.785V12.65H151.947C152.613 13.73 153.837 14.36 155.295 14.36C157.941 14.36 159.975 12.29 159.975 9.446C159.975 6.602 157.923 4.55 155.277 4.55ZM155.115 5.9C157.059 5.9 158.481 7.412 158.481 9.446C158.481 11.444 157.059 13.01 155.115 13.01C153.153 13.01 151.731 11.444 151.731 9.446C151.731 7.448 153.153 5.9 155.115 5.9ZM166.473 14.36C169.317 14.36 171.351 12.326 171.351 9.446C171.351 6.584 169.317 4.55 166.473 4.55C163.611 4.55 161.595 6.584 161.595 9.446C161.595 12.326 163.611 14.36 166.473 14.36ZM166.473 13.01C164.493 13.01 163.089 11.516 163.089 9.446C163.089 7.394 164.493 5.9 166.473 5.9C168.435 5.9 169.857 7.394 169.857 9.446C169.857 11.516 168.435 13.01 166.473 13.01ZM177.878 14.36C179.894 14.36 181.532 13.424 182.252 11.876L181.01 11.246C180.452 12.326 179.264 13.01 177.896 13.01C176.06 13.01 174.728 11.786 174.512 9.95H182.558C182.576 9.752 182.576 9.536 182.576 9.356C182.576 6.566 180.56 4.55 177.788 4.55C174.98 4.55 172.964 6.566 172.964 9.338C172.964 12.254 175.034 14.36 177.878 14.36ZM174.53 8.636C174.782 6.998 176.042 5.9 177.734 5.9C179.444 5.9 180.74 6.998 180.992 8.636H174.53ZM1.386 32H2.88V28.076H8.19V32H9.684V22.91H8.19V26.726H2.88V22.91H1.386V32ZM14.7826 32.288C16.2406 32.288 17.3026 31.712 17.9506 30.668H18.1126V32H19.6066V25.97C19.6066 23.9 18.1126 22.568 15.7546 22.568C13.4686 22.568 11.9746 23.792 11.9746 25.718H13.4866C13.4686 24.584 14.3686 23.918 15.7366 23.918C17.2306 23.918 18.1126 24.71 18.1126 25.934V26.294L15.5926 26.6C12.8926 26.906 11.5246 28.094 11.5246 29.696C11.5246 31.262 12.8206 32.288 14.7826 32.288ZM14.9986 31.046C13.7746 31.046 13.0186 30.524 13.0186 29.66C13.0186 28.814 13.7386 28.094 15.5926 27.86L18.1126 27.572V28.382C18.1126 29.912 16.8526 31.046 14.9986 31.046ZM21.9959 32H23.4899V24.998H23.6519L26.8919 32H28.2239L31.4639 24.998H31.6439V32H33.1379V22.91H30.9599L27.6299 30.128H27.4499L24.1559 22.91H21.9959V32ZM40.1482 32.36C42.1642 32.36 43.8022 31.424 44.5222 29.876L43.2802 29.246C42.7222 30.326 41.5342 31.01 40.1662 31.01C38.3302 31.01 36.9982 29.786 36.7822 27.95H44.8282C44.8462 27.752 44.8462 27.536 44.8462 27.356C44.8462 24.566 42.8302 22.55 40.0582 22.55C37.2502 22.55 35.2342 24.566 35.2342 27.338C35.2342 30.254 37.3042 32.36 40.1482 32.36ZM36.8002 26.636C37.0522 24.998 38.3122 23.9 40.0042 23.9C41.7142 23.9 43.0102 24.998 43.2622 26.636H36.8002ZM51.9159 22.55C50.4219 22.55 49.2519 23.198 48.5859 24.296H48.4239V22.91H46.9299V36.14H48.4239V30.65H48.5859C49.2519 31.73 50.4759 32.36 51.9339 32.36C54.5799 32.36 56.6139 30.29 56.6139 27.446C56.6139 24.602 54.5619 22.55 51.9159 22.55ZM51.7539 23.9C53.6979 23.9 55.1199 25.412 55.1199 27.446C55.1199 29.444 53.6979 31.01 51.7539 31.01C49.7919 31.01 48.3699 29.444 48.3699 27.446C48.3699 25.448 49.7919 23.9 51.7539 23.9ZM63.1662 32.36C65.1822 32.36 66.8202 31.424 67.5402 29.876L66.2982 29.246C65.7402 30.326 64.5522 31.01 63.1842 31.01C61.3482 31.01 60.0162 29.786 59.8002 27.95H67.8462C67.8642 27.752 67.8642 27.536 67.8642 27.356C67.8642 24.566 65.8482 22.55 63.0762 22.55C60.2682 22.55 58.2522 24.566 58.2522 27.338C58.2522 30.254 60.3222 32.36 63.1662 32.36ZM59.8182 26.636C60.0702 24.998 61.3302 23.9 63.0222 23.9C64.7322 23.9 66.0282 24.998 66.2802 26.636H59.8182ZM69.948 32H71.442V28.076H76.752V32H78.246V22.91H76.752V26.726H71.442V22.91H69.948V32ZM80.8066 32H82.6246L87.4486 25.052H87.6286V32H89.1226V22.91H87.3046L82.4626 29.876H82.3006V22.91H80.8066V32ZM96.1289 32.36C98.1449 32.36 99.7829 31.424 100.503 29.876L99.2609 29.246C98.7029 30.326 97.5149 31.01 96.1469 31.01C94.3109 31.01 92.9789 29.786 92.7629 27.95H100.809C100.827 27.752 100.827 27.536 100.827 27.356C100.827 24.566 98.8109 22.55 96.0389 22.55C93.2309 22.55 91.2149 24.566 91.2149 27.338C91.2149 30.254 93.2849 32.36 96.1289 32.36ZM92.7809 26.636C93.0329 24.998 94.2929 23.9 95.9849 23.9C97.6949 23.9 98.9909 24.998 99.2429 26.636H92.7809ZM102.776 34.484L103.856 32C104 31.712 104.054 31.496 104.054 31.244C104.054 30.668 103.658 30.254 103.064 30.254C102.488 30.254 102.074 30.668 102.074 31.244C102.074 31.73 102.38 32.108 102.848 32.216L102.02 34.304L102.776 34.484ZM110.46 32H111.954V24.26H117.426V32H118.92V22.91H110.46V32ZM125.886 32.36C128.73 32.36 130.764 30.326 130.764 27.446C130.764 24.584 128.73 22.55 125.886 22.55C123.024 22.55 121.008 24.584 121.008 27.446C121.008 30.326 123.024 32.36 125.886 32.36ZM125.886 31.01C123.906 31.01 122.502 29.516 122.502 27.446C122.502 25.394 123.906 23.9 125.886 23.9C127.848 23.9 129.27 25.394 129.27 27.446C129.27 29.516 127.848 31.01 125.886 31.01ZM136.823 32.36C139.577 32.36 141.557 30.29 141.557 27.446C141.557 24.602 139.559 22.55 136.823 22.55C134.591 22.55 132.719 23.954 132.395 25.898L133.835 26.096C134.177 24.782 135.419 23.9 136.805 23.9C138.461 23.9 139.775 25.052 140.009 26.816H135.401V28.076H140.009C139.775 29.822 138.461 31.01 136.823 31.01C135.383 31.01 134.177 30.128 133.817 28.85L132.359 29.03C132.773 30.974 134.645 32.36 136.823 32.36ZM145.779 32H147.273V24.26H150.549V22.91H142.485V24.26H145.779V32ZM156.335 32.36C159.179 32.36 161.213 30.326 161.213 27.446C161.213 24.584 159.179 22.55 156.335 22.55C153.473 22.55 151.457 24.584 151.457 27.446C151.457 30.326 153.473 32.36 156.335 32.36ZM156.335 31.01C154.355 31.01 152.951 29.516 152.951 27.446C152.951 25.394 154.355 23.9 156.335 23.9C158.297 23.9 159.719 25.394 159.719 27.446C159.719 29.516 158.297 31.01 156.335 31.01ZM163.294 32H164.788V24.998H164.95L168.19 32H169.522L172.762 24.998H172.942V32H174.436V22.91H172.258L168.928 30.128H168.748L165.454 22.91H163.294V32ZM177.882 36.032C179.844 36.032 180.564 34.16 181.374 32.144L184.974 22.91H183.372L180.708 30.02H180.528L177.414 22.91H175.848L179.898 31.982C179.358 33.26 178.998 34.7 177.648 34.7C177.306 34.7 176.856 34.592 176.442 34.43V35.744C176.856 35.924 177.432 36.032 177.882 36.032ZM0.198 50C1.746 50 3.024 49.208 3.33 46.994L3.996 42.26H7.308V50H8.802V40.91H2.664L2.016 46.13C1.8 47.84 1.476 48.74 0.198 48.74V50ZM11.3657 50H13.1837L18.0077 43.052H18.1877V50H19.6817V40.91H17.8637L13.0217 47.876H12.8597V40.91H11.3657V50ZM22.242 50H23.736V46.076H29.046V50H30.54V40.91H29.046V44.726H23.736V40.91H22.242V50ZM33.1006 50H34.9186L39.7426 43.052H39.9226V50H41.4166V40.91H39.5986L34.7566 47.876H34.5946V40.91H33.1006V50ZM43.9768 50H45.7948L50.6188 43.052H50.7988V50H52.2928V40.91H50.4748L45.6328 47.876H45.4708V40.91H43.9768V50ZM58.021 50H59.677L62.287 46.292H62.467L65.077 50H66.733L63.313 45.266L66.553 40.91H64.951L62.467 44.294H62.287L59.803 40.91H58.201L61.441 45.266L58.021 50ZM72.2084 50.36C75.0524 50.36 77.0864 48.326 77.0864 45.446C77.0864 42.584 75.0524 40.55 72.2084 40.55C69.3464 40.55 67.3304 42.584 67.3304 45.446C67.3304 48.326 69.3464 50.36 72.2084 50.36ZM72.2084 49.01C70.2284 49.01 68.8244 47.516 68.8244 45.446C68.8244 43.394 70.2284 41.9 72.2084 41.9C74.1704 41.9 75.5924 43.394 75.5924 45.446C75.5924 47.516 74.1704 49.01 72.2084 49.01ZM81.2955 50H82.7895V42.26H86.0655V40.91H78.0015V42.26H81.2955V50ZM87.6353 50H91.6313C93.8273 50 95.2673 48.758 95.2673 46.832C95.2673 44.96 93.8273 43.7 91.6313 43.7H89.1293V40.91H87.6353V50ZM89.1293 48.65V45.05H91.6313C92.9273 45.05 93.7913 45.752 93.7913 46.85C93.7913 47.948 92.9453 48.65 91.6313 48.65H89.1293ZM101.46 50H103.278L108.102 43.052H108.282V50H109.776V40.91H107.958L103.116 47.876H102.954V40.91H101.46V50ZM116.638 50H118.132V45.77H118.312L122.29 50H124.288L119.698 45.266L124.18 40.91H122.2L118.312 44.798H118.132V40.91H116.638V50ZM129.41 50.36C132.254 50.36 134.288 48.326 134.288 45.446C134.288 42.584 132.254 40.55 129.41 40.55C126.548 40.55 124.532 42.584 124.532 45.446C124.532 48.326 126.548 50.36 129.41 50.36ZM129.41 49.01C127.43 49.01 126.026 47.516 126.026 45.446C126.026 43.394 127.43 41.9 129.41 41.9C131.372 41.9 132.794 43.394 132.794 45.446C132.794 47.516 131.372 49.01 129.41 49.01ZM136.369 50H137.863V46.076H143.173V50H144.667V40.91H143.173V44.726H137.863V40.91H136.369V50ZM149.532 50H151.026V42.26H154.302V40.91H146.238V42.26H149.532V50ZM160.858 40.55C159.364 40.55 158.194 41.198 157.528 42.296H157.366V40.91H155.872V54.14H157.366V48.65H157.528C158.194 49.73 159.418 50.36 160.876 50.36C163.522 50.36 165.556 48.29 165.556 45.446C165.556 42.602 163.504 40.55 160.858 40.55ZM160.696 41.9C162.64 41.9 164.062 43.412 164.062 45.446C164.062 47.444 162.64 49.01 160.696 49.01C158.734 49.01 157.312 47.444 157.312 45.446C157.312 43.448 158.734 41.9 160.696 41.9ZM170.2 50.288C171.658 50.288 172.72 49.712 173.368 48.668H173.53V50H175.024V43.97C175.024 41.9 173.53 40.568 171.172 40.568C168.886 40.568 167.392 41.792 167.392 43.718H168.904C168.886 42.584 169.786 41.918 171.154 41.918C172.648 41.918 173.53 42.71 173.53 43.934V44.294L171.01 44.6C168.31 44.906 166.942 46.094 166.942 47.696C166.942 49.262 168.238 50.288 170.2 50.288ZM170.416 49.046C169.192 49.046 168.436 48.524 168.436 47.66C168.436 46.814 169.156 46.094 171.01 45.86L173.53 45.572V46.382C173.53 47.912 172.27 49.046 170.416 49.046ZM181.679 50.36C183.839 50.36 185.729 48.974 186.143 47.03L184.685 46.85C184.307 48.128 183.101 49.01 181.679 49.01C179.825 49.01 178.439 47.552 178.439 45.446C178.421 43.358 179.843 41.9 181.697 41.9C183.083 41.9 184.325 42.782 184.667 44.096L186.107 43.898C185.783 41.954 183.911 40.55 181.679 40.55C178.943 40.55 176.945 42.602 176.945 45.446C176.927 48.29 178.925 50.36 181.679 50.36ZM190.365 50H191.859V42.26H195.135V40.91H187.071V42.26H190.365V50ZM196.705 50H198.199V46.076H203.509V50H205.003V40.91H203.509V44.726H198.199V40.91H196.705V50ZM207.563 50H211.001C213.197 50 214.637 48.758 214.637 46.832C214.637 44.96 213.197 43.7 211.001 43.7H209.057V40.91H207.563V50ZM215.951 50H217.445V40.91H215.951V50ZM209.057 48.65V45.05H211.001C212.297 45.05 213.161 45.752 213.161 46.85C213.161 47.948 212.315 48.65 211.001 48.65H209.057ZM224.467 50.36C226.483 50.36 228.121 49.424 228.841 47.876L227.599 47.246C227.041 48.326 225.853 49.01 224.485 49.01C222.649 49.01 221.317 47.786 221.101 45.95H229.147C229.165 45.752 229.165 45.536 229.165 45.356C229.165 42.566 227.149 40.55 224.377 40.55C221.569 40.55 219.553 42.566 219.553 45.338C219.553 48.254 221.623 50.36 224.467 50.36ZM221.119 44.636C221.371 42.998 222.631 41.9 224.323 41.9C226.033 41.9 227.329 42.998 227.581 44.636H221.119ZM231.115 52.484L232.195 50C232.339 49.712 232.393 49.496 232.393 49.244C232.393 48.668 231.997 48.254 231.403 48.254C230.827 48.254 230.413 48.668 230.413 49.244C230.413 49.73 230.719 50.108 231.187 50.216L230.359 52.304L231.115 52.484ZM1.386 68H2.88V64.076H8.19V68H9.684V58.91H8.19V62.726H2.88V58.91H1.386V68ZM16.6366 68.36C19.4806 68.36 21.5146 66.326 21.5146 63.446C21.5146 60.584 19.4806 58.55 16.6366 58.55C13.7746 58.55 11.7586 60.584 11.7586 63.446C11.7586 66.326 13.7746 68.36 16.6366 68.36ZM16.6366 67.01C14.6566 67.01 13.2526 65.516 13.2526 63.446C13.2526 61.394 14.6566 59.9 16.6366 59.9C18.5986 59.9 20.0206 61.394 20.0206 63.446C20.0206 65.516 18.5986 67.01 16.6366 67.01ZM32.2355 68.432C34.8815 68.432 36.7535 66.56 36.7535 63.878C36.7535 61.232 35.1335 59.27 32.4875 59.27C31.1195 59.27 30.0755 59.81 29.4815 60.8H29.3015C29.4815 57.668 30.3095 56.75 32.9915 56.75C35.1695 56.75 36.2135 56.066 36.2135 54.5H34.8995C34.8995 55.112 34.3055 55.346 32.8475 55.346C28.8335 55.346 27.7175 57.2 27.7175 63.878C27.7175 66.56 29.5895 68.432 32.2355 68.432ZM32.2355 67.082C30.4715 67.082 29.2115 65.714 29.2115 63.824C29.2115 61.898 30.5075 60.62 32.2355 60.62C34.0175 60.62 35.2595 61.952 35.2595 63.824C35.2595 65.714 34.0175 67.082 32.2355 67.082ZM43.29 68.36C45.306 68.36 46.944 67.424 47.664 65.876L46.422 65.246C45.864 66.326 44.676 67.01 43.308 67.01C41.472 67.01 40.14 65.786 39.924 63.95H47.97C47.988 63.752 47.988 63.536 47.988 63.356C47.988 60.566 45.972 58.55 43.2 58.55C40.392 58.55 38.376 60.566 38.376 63.338C38.376 66.254 40.446 68.36 43.29 68.36ZM39.942 62.636C40.194 60.998 41.454 59.9 43.146 59.9C44.856 59.9 46.152 60.998 46.404 62.636H39.942ZM53.5818 68.36C55.7058 68.36 57.2358 67.19 57.2358 65.48C57.2358 64.364 56.5698 63.554 55.4898 63.32V63.14C56.4258 62.906 56.9838 62.258 56.9838 61.268C56.9838 59.648 55.4898 58.55 53.4558 58.55C51.2598 58.55 49.7118 59.846 49.7298 61.646H51.1698C51.1698 60.62 52.0878 59.9 53.4198 59.9C54.6438 59.9 55.5258 60.476 55.5258 61.34C55.5258 62.096 54.8418 62.618 53.8878 62.618H52.2498V63.968H53.8698C54.9498 63.968 55.7418 64.436 55.7418 65.372C55.7418 66.344 54.8418 67.01 53.5638 67.01C52.1058 67.01 51.0798 66.146 51.0798 64.94H49.5858C49.5858 66.92 51.2598 68.36 53.5818 68.36ZM63.457 68H65.275L70.099 61.052H70.279V68H71.773V58.91H69.955L65.113 65.876H64.951V58.91H63.457V68ZM77.8433 68.36C79.9673 68.36 81.4973 67.19 81.4973 65.48C81.4973 64.364 80.8313 63.554 79.7513 63.32V63.14C80.6873 62.906 81.2453 62.258 81.2453 61.268C81.2453 59.648 79.7513 58.55 77.7173 58.55C75.5213 58.55 73.9733 59.846 73.9913 61.646H75.4313C75.4313 60.62 76.3493 59.9 77.6813 59.9C78.9053 59.9 79.7873 60.476 79.7873 61.34C79.7873 62.096 79.1033 62.618 78.1493 62.618H76.5113V63.968H78.1313C79.2113 63.968 80.0033 64.436 80.0033 65.372C80.0033 66.344 79.1033 67.01 77.8253 67.01C76.3673 67.01 75.3413 66.146 75.3413 64.94H73.8473C73.8473 66.92 75.5213 68.36 77.8433 68.36ZM82.2285 68C83.7765 68 85.0545 67.208 85.3605 64.994L86.0265 60.26H89.3385V68H90.8325V58.91H84.6945L84.0465 64.13C83.8305 65.84 83.5065 66.74 82.2285 66.74V68ZM97.7882 68.36C100.632 68.36 102.666 66.326 102.666 63.446C102.666 60.584 100.632 58.55 97.7882 58.55C94.9262 58.55 92.9102 60.584 92.9102 63.446C92.9102 66.326 94.9262 68.36 97.7882 68.36ZM97.7882 67.01C95.8082 67.01 94.4042 65.516 94.4042 63.446C94.4042 61.394 95.8082 59.9 97.7882 59.9C99.7502 59.9 101.172 61.394 101.172 63.446C101.172 65.516 99.7502 67.01 97.7882 67.01ZM104.747 68H106.241V60.998H106.403L109.643 68H110.975L114.215 60.998H114.395V68H115.889V58.91H113.711L110.381 66.128H110.201L106.907 58.91H104.747V68ZM122.845 68.36C125.689 68.36 127.723 66.326 127.723 63.446C127.723 60.584 125.689 58.55 122.845 58.55C119.983 58.55 117.967 60.584 117.967 63.446C117.967 66.326 119.983 68.36 122.845 68.36ZM122.845 67.01C120.865 67.01 119.461 65.516 119.461 63.446C119.461 61.394 120.865 59.9 122.845 59.9C124.807 59.9 126.229 61.394 126.229 63.446C126.229 65.516 124.807 67.01 122.845 67.01ZM129.804 68H134.43C136.194 68 137.436 66.92 137.436 65.372C137.436 64.22 136.734 63.518 135.78 63.32V63.14C136.554 62.87 137.166 62.15 137.166 61.178C137.166 59.882 135.996 58.91 134.358 58.91H129.804V68ZM131.298 62.6V60.188H134.196C135.06 60.188 135.69 60.746 135.69 61.412C135.69 62.078 135.06 62.6 134.196 62.6H131.298ZM131.298 66.722V63.896H134.178C135.222 63.896 135.942 64.472 135.942 65.264C135.942 66.056 135.222 66.722 134.178 66.722H131.298ZM139.614 70.484L140.694 68C140.838 67.712 140.892 67.496 140.892 67.244C140.892 66.668 140.496 66.254 139.902 66.254C139.326 66.254 138.912 66.668 138.912 67.244C138.912 67.73 139.218 68.108 139.686 68.216L138.858 70.304L139.614 70.484ZM1.386 86H2.88V78.26H8.352V86H9.846V76.91H1.386V86ZM16.8664 86.36C18.8824 86.36 20.5204 85.424 21.2404 83.876L19.9984 83.246C19.4404 84.326 18.2524 85.01 16.8844 85.01C15.0484 85.01 13.7164 83.786 13.5004 81.95H21.5464C21.5644 81.752 21.5644 81.536 21.5644 81.356C21.5644 78.566 19.5484 76.55 16.7764 76.55C13.9684 76.55 11.9524 78.566 11.9524 81.338C11.9524 84.254 14.0224 86.36 16.8664 86.36ZM13.5184 80.636C13.7704 78.998 15.0304 77.9 16.7224 77.9C18.4324 77.9 19.7284 78.998 19.9804 80.636H13.5184ZM28.6342 76.55C27.1402 76.55 25.9702 77.198 25.3042 78.296H25.1422V76.91H23.6482V90.14H25.1422V84.65H25.3042C25.9702 85.73 27.1942 86.36 28.6522 86.36C31.2982 86.36 33.3322 84.29 33.3322 81.446C33.3322 78.602 31.2802 76.55 28.6342 76.55ZM28.4722 77.9C30.4162 77.9 31.8382 79.412 31.8382 81.446C31.8382 83.444 30.4162 85.01 28.4722 85.01C26.5102 85.01 25.0882 83.444 25.0882 81.446C25.0882 79.448 26.5102 77.9 28.4722 77.9ZM39.8845 86.36C41.9005 86.36 43.5385 85.424 44.2585 83.876L43.0165 83.246C42.4585 84.326 41.2705 85.01 39.9025 85.01C38.0665 85.01 36.7345 83.786 36.5185 81.95H44.5645C44.5825 81.752 44.5825 81.536 44.5825 81.356C44.5825 78.566 42.5665 76.55 39.7945 76.55C36.9865 76.55 34.9705 78.566 34.9705 81.338C34.9705 84.254 37.0405 86.36 39.8845 86.36ZM36.5365 80.636C36.7885 78.998 38.0485 77.9 39.7405 77.9C41.4505 77.9 42.7465 78.998 42.9985 80.636H36.5365ZM50.9323 86.36C53.0923 86.36 54.9823 84.974 55.3963 83.03L53.9383 82.85C53.5603 84.128 52.3543 85.01 50.9323 85.01C49.0783 85.01 47.6923 83.552 47.6923 81.446C47.6743 79.358 49.0963 77.9 50.9503 77.9C52.3363 77.9 53.5783 78.782 53.9203 80.096L55.3603 79.898C55.0363 77.954 53.1643 76.55 50.9323 76.55C48.1963 76.55 46.1983 78.602 46.1983 81.446C46.1803 84.29 48.1783 86.36 50.9323 86.36ZM61.9357 86.36C63.9517 86.36 65.5897 85.424 66.3097 83.876L65.0677 83.246C64.5097 84.326 63.3217 85.01 61.9537 85.01C60.1177 85.01 58.7857 83.786 58.5697 81.95H66.6157C66.6337 81.752 66.6337 81.536 66.6337 81.356C66.6337 78.566 64.6177 76.55 61.8457 76.55C59.0377 76.55 57.0217 78.566 57.0217 81.338C57.0217 84.254 59.0917 86.36 61.9357 86.36ZM58.5877 80.636C58.8397 78.998 60.0997 77.9 61.7917 77.9C63.5017 77.9 64.7977 78.998 65.0497 80.636H58.5877ZM68.7175 86H70.2115V81.77H70.3915L74.3695 86H76.3675L71.7775 81.266L76.2595 76.91H74.2795L70.3915 80.798H70.2115V76.91H68.7175V86ZM80.1103 86.288C81.5683 86.288 82.6303 85.712 83.2783 84.668H83.4403V86H84.9343V79.97C84.9343 77.9 83.4403 76.568 81.0823 76.568C78.7963 76.568 77.3023 77.792 77.3023 79.718H78.8143C78.7963 78.584 79.6963 77.918 81.0643 77.918C82.5583 77.918 83.4403 78.71 83.4403 79.934V80.294L80.9203 80.6C78.2203 80.906 76.8523 82.094 76.8523 83.696C76.8523 85.262 78.1483 86.288 80.1103 86.288ZM80.3263 85.046C79.1023 85.046 78.3463 84.524 78.3463 83.66C78.3463 82.814 79.0663 82.094 80.9203 81.86L83.4403 81.572V82.382C83.4403 83.912 82.1803 85.046 80.3263 85.046ZM94.8115 86.378C97.4575 86.378 99.3115 84.398 99.3115 81.482C99.3115 78.602 97.4575 76.55 94.8115 76.55C92.3635 76.55 90.6355 78.26 90.3475 80.798H88.8175V76.91H87.3235V86.018H88.8175V82.148H90.3655C90.5815 84.704 92.3635 86.378 94.8115 86.378ZM94.8115 85.028C92.9215 85.028 91.7695 83.642 91.7695 81.482C91.7695 79.34 92.9215 77.9 94.8115 77.9C96.6835 77.9 97.8175 79.34 97.8175 81.482C97.8175 83.642 96.6835 85.028 94.8115 85.028ZM103.527 86H105.021V78.26H108.297V76.91H100.233V78.26H103.527V86ZM113.957 86.36C116.117 86.36 118.007 84.974 118.421 83.03L116.963 82.85C116.585 84.128 115.379 85.01 113.957 85.01C112.103 85.01 110.717 83.552 110.717 81.446C110.699 79.358 112.121 77.9 113.975 77.9C115.361 77.9 116.603 78.782 116.945 80.096L118.385 79.898C118.061 77.954 116.189 76.55 113.957 76.55C111.221 76.55 109.223 78.602 109.223 81.446C109.205 84.29 111.203 86.36 113.957 86.36ZM120.029 86H121.865L124.583 82.652H126.167V86H127.661V76.91H123.629C121.469 76.91 120.047 78.08 120.047 79.772C120.047 81.212 121.019 82.454 122.927 82.634L120.029 86ZM123.629 81.302C122.351 81.302 121.541 80.69 121.541 79.772C121.541 78.854 122.369 78.26 123.629 78.26H126.167V81.302H123.629ZM139.501 76.55C138.007 76.55 136.837 77.198 136.171 78.296H136.009V76.91H134.515V90.14H136.009V84.65H136.171C136.837 85.73 138.061 86.36 139.519 86.36C142.165 86.36 144.199 84.29 144.199 81.446C144.199 78.602 142.147 76.55 139.501 76.55ZM139.339 77.9C141.283 77.9 142.705 79.412 142.705 81.446C142.705 83.444 141.283 85.01 139.339 85.01C137.377 85.01 135.955 83.444 135.955 81.446C135.955 79.448 137.377 77.9 139.339 77.9ZM150.751 86.36C152.767 86.36 154.405 85.424 155.125 83.876L153.883 83.246C153.325 84.326 152.137 85.01 150.769 85.01C148.933 85.01 147.601 83.786 147.385 81.95H155.431C155.449 81.752 155.449 81.536 155.449 81.356C155.449 78.566 153.433 76.55 150.661 76.55C147.853 76.55 145.837 78.566 145.837 81.338C145.837 84.254 147.907 86.36 150.751 86.36ZM147.403 80.636C147.655 78.998 148.915 77.9 150.607 77.9C152.317 77.9 153.613 78.998 153.865 80.636H147.403ZM156.173 88.7H157.505V86H165.695V88.7H167.027V84.65H165.497V76.91H159.161L158.657 81.248C158.441 83.12 158.135 84.11 157.361 84.65H156.173V88.7ZM158.909 84.65V84.47C159.575 83.876 159.845 83.192 160.007 81.878L160.439 78.26H164.003V84.65H158.909ZM168.937 86H170.431V81.77H170.611L174.589 86H176.587L171.997 81.266L176.479 76.91H174.499L170.611 80.798H170.431V76.91H168.937V86ZM181.709 86.36C184.553 86.36 186.587 84.326 186.587 81.446C186.587 78.584 184.553 76.55 181.709 76.55C178.847 76.55 176.831 78.584 176.831 81.446C176.831 84.326 178.847 86.36 181.709 86.36ZM181.709 85.01C179.729 85.01 178.325 83.516 178.325 81.446C178.325 79.394 179.729 77.9 181.709 77.9C183.671 77.9 185.093 79.394 185.093 81.446C185.093 83.516 183.671 85.01 181.709 85.01Z" fill="white"/>
<path d="M349.386 14H350.88V10.076H356.19V14H357.684V4.91H356.19V8.726H350.88V4.91H349.386V14ZM362.783 14.288C364.241 14.288 365.303 13.712 365.951 12.668H366.113V14H367.607V7.97C367.607 5.9 366.113 4.568 363.755 4.568C361.469 4.568 359.975 5.792 359.975 7.718H361.487C361.469 6.584 362.369 5.918 363.737 5.918C365.231 5.918 366.113 6.71 366.113 7.934V8.294L363.593 8.6C360.893 8.906 359.525 10.094 359.525 11.696C359.525 13.262 360.821 14.288 362.783 14.288ZM362.999 13.046C361.775 13.046 361.019 12.524 361.019 11.66C361.019 10.814 361.739 10.094 363.593 9.86L366.113 9.572V10.382C366.113 11.912 364.853 13.046 362.999 13.046ZM369.996 14H371.49V6.26H376.962V14H378.456V4.91H369.996V14ZM386.016 4.55C384.522 4.55 383.352 5.198 382.686 6.296H382.524V4.91H381.03V18.14H382.524V12.65H382.686C383.352 13.73 384.576 14.36 386.034 14.36C388.68 14.36 390.714 12.29 390.714 9.446C390.714 6.602 388.662 4.55 386.016 4.55ZM385.854 5.9C387.798 5.9 389.22 7.412 389.22 9.446C389.22 11.444 387.798 13.01 385.854 13.01C383.892 13.01 382.47 11.444 382.47 9.446C382.47 7.448 383.892 5.9 385.854 5.9ZM392.335 14H394.171L396.889 10.652H398.473V14H399.967V4.91H395.935C393.775 4.91 392.353 6.08 392.353 7.772C392.353 9.212 393.325 10.454 395.233 10.634L392.335 14ZM395.935 9.302C394.657 9.302 393.847 8.69 393.847 7.772C393.847 6.854 394.675 6.26 395.935 6.26H398.473V9.302H395.935ZM401.205 14H402.987L406.497 9.698H406.677V14H408.171V9.698H408.333L411.861 14H413.625L409.683 9.266L413.463 4.91H411.735L408.333 8.852H408.171V4.91H406.677V8.852H406.497L403.095 4.91H401.385L405.147 9.266L401.205 14ZM418.966 14.36C420.982 14.36 422.62 13.424 423.34 11.876L422.098 11.246C421.54 12.326 420.352 13.01 418.984 13.01C417.148 13.01 415.816 11.786 415.6 9.95H423.646C423.664 9.752 423.664 9.536 423.664 9.356C423.664 6.566 421.648 4.55 418.876 4.55C416.068 4.55 414.052 6.566 414.052 9.338C414.052 12.254 416.122 14.36 418.966 14.36ZM415.618 8.636C415.87 6.998 417.13 5.9 418.822 5.9C420.532 5.9 421.828 6.998 422.08 8.636H415.618ZM425.748 14H427.242V10.076H432.552V14H434.046V4.91H432.552V8.726H427.242V4.91H425.748V14ZM436.607 14H438.101V10.076H443.411V14H444.905V4.91H443.411V8.726H438.101V4.91H436.607V14ZM447.465 14H450.903C453.099 14 454.539 12.758 454.539 10.832C454.539 8.96 453.099 7.7 450.903 7.7H448.959V4.91H447.465V14ZM455.853 14H457.347V4.91H455.853V14ZM448.959 12.65V9.05H450.903C452.199 9.05 453.063 9.752 453.063 10.85C453.063 11.948 452.217 12.65 450.903 12.65H448.959ZM464.01 3.182C465.414 3.182 466.422 2.174 466.422 0.77H465.162C465.162 1.544 464.73 2.084 464.01 2.084C463.29 2.084 462.876 1.544 462.876 0.77H461.616C461.616 2.174 462.606 3.182 464.01 3.182ZM459.924 14H461.742L466.566 7.052H466.746V14H468.24V4.91H466.422L461.58 11.876H461.418V4.91H459.924V14ZM475.102 14H476.596V6.26H482.068V14H483.562V4.91H475.102V14ZM490.528 14.36C493.372 14.36 495.406 12.326 495.406 9.446C495.406 6.584 493.372 4.55 490.528 4.55C487.666 4.55 485.65 6.584 485.65 9.446C485.65 12.326 487.666 14.36 490.528 14.36ZM490.528 13.01C488.548 13.01 487.144 11.516 487.144 9.446C487.144 7.394 488.548 5.9 490.528 5.9C492.49 5.9 493.912 7.394 493.912 9.446C493.912 11.516 492.49 13.01 490.528 13.01ZM501.753 14.36C503.913 14.36 505.803 12.974 506.217 11.03L504.759 10.85C504.381 12.128 503.175 13.01 501.753 13.01C499.899 13.01 498.513 11.552 498.513 9.446C498.495 7.358 499.917 5.9 501.771 5.9C503.157 5.9 504.399 6.782 504.741 8.096L506.181 7.898C505.857 5.954 503.985 4.55 501.753 4.55C499.017 4.55 497.019 6.602 497.019 9.446C497.001 12.29 498.999 14.36 501.753 14.36ZM508.311 14H511.749C513.945 14 515.385 12.758 515.385 10.832C515.385 8.96 513.945 7.7 511.749 7.7H509.805V4.91H508.311V14ZM516.699 14H518.193V4.91H516.699V14ZM509.805 12.65V9.05H511.749C513.045 9.05 513.909 9.752 513.909 10.85C513.909 11.948 513.063 12.65 511.749 12.65H509.805ZM519.581 14C521.129 14 522.407 13.208 522.713 10.994L523.379 6.26H526.691V14H528.185V4.91H522.047L521.399 10.13C521.183 11.84 520.859 12.74 519.581 12.74V14ZM531.001 16.484L532.081 14C532.225 13.712 532.279 13.496 532.279 13.244C532.279 12.668 531.883 12.254 531.289 12.254C530.713 12.254 530.299 12.668 530.299 13.244C530.299 13.73 530.605 14.108 531.073 14.216L530.245 16.304L531.001 16.484ZM354.372 22.55C352.878 22.55 351.708 23.198 351.042 24.296H350.88V22.91H349.386V36.14H350.88V30.65H351.042C351.708 31.73 352.932 32.36 354.39 32.36C357.036 32.36 359.07 30.29 359.07 27.446C359.07 24.602 357.018 22.55 354.372 22.55ZM354.21 23.9C356.154 23.9 357.576 25.412 357.576 27.446C357.576 29.444 356.154 31.01 354.21 31.01C352.248 31.01 350.826 29.444 350.826 27.446C350.826 25.448 352.248 23.9 354.21 23.9ZM363.714 32.288C365.172 32.288 366.234 31.712 366.882 30.668H367.044V32H368.538V25.97C368.538 23.9 367.044 22.568 364.686 22.568C362.4 22.568 360.906 23.792 360.906 25.718H362.418C362.4 24.584 363.3 23.918 364.668 23.918C366.162 23.918 367.044 24.71 367.044 25.934V26.294L364.524 26.6C361.824 26.906 360.456 28.094 360.456 29.696C360.456 31.262 361.752 32.288 363.714 32.288ZM363.93 31.046C362.706 31.046 361.95 30.524 361.95 29.66C361.95 28.814 362.67 28.094 364.524 27.86L367.044 27.572V28.382C367.044 29.912 365.784 31.046 363.93 31.046ZM374.438 32.36C376.562 32.36 378.092 31.19 378.092 29.48C378.092 28.364 377.426 27.554 376.346 27.32V27.14C377.282 26.906 377.84 26.258 377.84 25.268C377.84 23.648 376.346 22.55 374.312 22.55C372.116 22.55 370.568 23.846 370.586 25.646H372.026C372.026 24.62 372.944 23.9 374.276 23.9C375.5 23.9 376.382 24.476 376.382 25.34C376.382 26.096 375.698 26.618 374.744 26.618H373.106V27.968H374.726C375.806 27.968 376.598 28.436 376.598 29.372C376.598 30.344 375.698 31.01 374.42 31.01C372.962 31.01 371.936 30.146 371.936 28.94H370.442C370.442 30.92 372.116 32.36 374.438 32.36ZM380.011 32H384.637C386.401 32 387.643 30.92 387.643 29.372C387.643 28.22 386.941 27.518 385.987 27.32V27.14C386.761 26.87 387.373 26.15 387.373 25.178C387.373 23.882 386.203 22.91 384.565 22.91H380.011V32ZM381.505 26.6V24.188H384.403C385.267 24.188 385.897 24.746 385.897 25.412C385.897 26.078 385.267 26.6 384.403 26.6H381.505ZM381.505 30.722V27.896H384.385C385.429 27.896 386.149 28.472 386.149 29.264C386.149 30.056 385.429 30.722 384.385 30.722H381.505ZM394.015 32.36C396.031 32.36 397.669 31.424 398.389 29.876L397.147 29.246C396.589 30.326 395.401 31.01 394.033 31.01C392.197 31.01 390.865 29.786 390.649 27.95H398.695C398.713 27.752 398.713 27.536 398.713 27.356C398.713 24.566 396.697 22.55 393.925 22.55C391.117 22.55 389.101 24.566 389.101 27.338C389.101 30.254 391.171 32.36 394.015 32.36ZM390.667 26.636C390.919 24.998 392.179 23.9 393.871 23.9C395.581 23.9 396.877 24.998 397.129 26.636H390.667ZM400.796 32H402.614L407.438 25.052H407.618V32H409.112V22.91H407.294L402.452 29.876H402.29V22.91H400.796V32ZM411.673 32H416.299C418.063 32 419.305 30.92 419.305 29.372C419.305 28.22 418.603 27.518 417.649 27.32V27.14C418.423 26.87 419.035 26.15 419.035 25.178C419.035 23.882 417.865 22.91 416.227 22.91H411.673V32ZM413.167 26.6V24.188H416.065C416.929 24.188 417.559 24.746 417.559 25.412C417.559 26.078 416.929 26.6 416.065 26.6H413.167ZM413.167 30.722V27.896H416.047C417.091 27.896 417.811 28.472 417.811 29.264C417.811 30.056 417.091 30.722 416.047 30.722H413.167ZM423.927 32.288C425.385 32.288 426.447 31.712 427.095 30.668H427.257V32H428.751V25.97C428.751 23.9 427.257 22.568 424.899 22.568C422.613 22.568 421.119 23.792 421.119 25.718H422.631C422.613 24.584 423.513 23.918 424.881 23.918C426.375 23.918 427.257 24.71 427.257 25.934V26.294L424.737 26.6C422.037 26.906 420.669 28.094 420.669 29.696C420.669 31.262 421.965 32.288 423.927 32.288ZM424.143 31.046C422.919 31.046 422.163 30.524 422.163 29.66C422.163 28.814 422.883 28.094 424.737 27.86L427.257 27.572V28.382C427.257 29.912 425.997 31.046 424.143 31.046ZM431.14 32H432.634V28.076H437.944V32H439.438V22.91H437.944V26.726H432.634V22.91H431.14V32ZM441.999 32H443.817L448.641 25.052H448.821V32H450.315V22.91H448.497L443.655 29.876H443.493V22.91H441.999V32ZM457.321 32.36C459.337 32.36 460.975 31.424 461.695 29.876L460.453 29.246C459.895 30.326 458.707 31.01 457.339 31.01C455.503 31.01 454.171 29.786 453.955 27.95H462.001C462.019 27.752 462.019 27.536 462.019 27.356C462.019 24.566 460.003 22.55 457.231 22.55C454.423 22.55 452.407 24.566 452.407 27.338C452.407 30.254 454.477 32.36 457.321 32.36ZM453.973 26.636C454.225 24.998 455.485 23.9 457.177 23.9C458.887 23.9 460.183 24.998 460.435 26.636H453.973ZM472.671 32.36C474.831 32.36 476.721 30.974 477.135 29.03L475.677 28.85C475.299 30.128 474.093 31.01 472.671 31.01C470.817 31.01 469.431 29.552 469.431 27.446C469.413 25.358 470.835 23.9 472.689 23.9C474.075 23.9 475.317 24.782 475.659 26.096L477.099 25.898C476.775 23.954 474.903 22.55 472.671 22.55C469.935 22.55 467.937 24.602 467.937 27.446C467.919 30.29 469.917 32.36 472.671 32.36ZM481.356 32H482.85V24.26H486.126V22.91H478.062V24.26H481.356V32ZM491.966 32.36C493.982 32.36 495.62 31.424 496.34 29.876L495.098 29.246C494.54 30.326 493.352 31.01 491.984 31.01C490.148 31.01 488.816 29.786 488.6 27.95H496.646C496.664 27.752 496.664 27.536 496.664 27.356C496.664 24.566 494.648 22.55 491.876 22.55C489.068 22.55 487.052 24.566 487.052 27.338C487.052 30.254 489.122 32.36 491.966 32.36ZM488.618 26.636C488.87 24.998 490.13 23.9 491.822 23.9C493.532 23.9 494.828 24.998 495.08 26.636H488.618ZM503.734 22.55C502.24 22.55 501.07 23.198 500.404 24.296H500.242V22.91H498.748V36.14H500.242V30.65H500.404C501.07 31.73 502.294 32.36 503.752 32.36C506.398 32.36 508.432 30.29 508.432 27.446C508.432 24.602 506.38 22.55 503.734 22.55ZM503.572 23.9C505.516 23.9 506.938 25.412 506.938 27.446C506.938 29.444 505.516 31.01 503.572 31.01C501.61 31.01 500.188 29.444 500.188 27.446C500.188 25.448 501.61 23.9 503.572 23.9ZM514.984 32.36C517 32.36 518.638 31.424 519.358 29.876L518.116 29.246C517.558 30.326 516.37 31.01 515.002 31.01C513.166 31.01 511.834 29.786 511.618 27.95H519.664C519.682 27.752 519.682 27.536 519.682 27.356C519.682 24.566 517.666 22.55 514.894 22.55C512.086 22.55 510.07 24.566 510.07 27.338C510.07 30.254 512.14 32.36 514.984 32.36ZM511.636 26.636C511.888 24.998 513.148 23.9 514.84 23.9C516.55 23.9 517.846 24.998 518.098 26.636H511.636ZM526.158 32.36C529.002 32.36 531.036 30.326 531.036 27.446C531.036 24.584 529.002 22.55 526.158 22.55C523.296 22.55 521.28 24.584 521.28 27.446C521.28 30.326 523.296 32.36 526.158 32.36ZM526.158 31.01C524.178 31.01 522.774 29.516 522.774 27.446C522.774 25.394 524.178 23.9 526.158 23.9C528.12 23.9 529.542 25.394 529.542 27.446C529.542 29.516 528.12 31.01 526.158 31.01ZM535.245 32H536.739V24.26H540.015V22.91H531.951V24.26H535.245V32ZM541.585 32H543.403L548.227 25.052H548.407V32H549.901V22.91H548.083L543.241 29.876H543.079V22.91H541.585V32ZM552.461 32H553.955V24.26H559.427V32H560.921V22.91H552.461V32ZM567.888 32.36C570.732 32.36 572.766 30.326 572.766 27.446C572.766 24.584 570.732 22.55 567.888 22.55C565.026 22.55 563.01 24.584 563.01 27.446C563.01 30.326 565.026 32.36 567.888 32.36ZM567.888 31.01C565.908 31.01 564.504 29.516 564.504 27.446C564.504 25.394 565.908 23.9 567.888 23.9C569.85 23.9 571.272 25.394 571.272 27.446C571.272 29.516 569.85 31.01 567.888 31.01ZM574.846 32H579.472C581.236 32 582.478 30.92 582.478 29.372C582.478 28.22 581.776 27.518 580.822 27.32V27.14C581.596 26.87 582.208 26.15 582.208 25.178C582.208 23.882 581.038 22.91 579.4 22.91H574.846V32ZM576.34 26.6V24.188H579.238C580.102 24.188 580.732 24.746 580.732 25.412C580.732 26.078 580.102 26.6 579.238 26.6H576.34ZM576.34 30.722V27.896H579.22C580.264 27.896 580.984 28.472 580.984 29.264C580.984 30.056 580.264 30.722 579.22 30.722H576.34ZM584.656 34.484L585.736 32C585.88 31.712 585.934 31.496 585.934 31.244C585.934 30.668 585.538 30.254 584.944 30.254C584.368 30.254 583.954 30.668 583.954 31.244C583.954 31.73 584.26 32.108 584.728 32.216L583.9 34.304L584.656 34.484ZM349.386 50H351.204L356.028 43.052H356.208V50H357.702V40.91H355.884L351.042 47.876H350.88V40.91H349.386V50ZM363.772 50.36C365.896 50.36 367.426 49.19 367.426 47.48C367.426 46.364 366.76 45.554 365.68 45.32V45.14C366.616 44.906 367.174 44.258 367.174 43.268C367.174 41.648 365.68 40.55 363.646 40.55C361.45 40.55 359.902 41.846 359.92 43.646H361.36C361.36 42.62 362.278 41.9 363.61 41.9C364.834 41.9 365.716 42.476 365.716 43.34C365.716 44.096 365.032 44.618 364.078 44.618H362.44V45.968H364.06C365.14 45.968 365.932 46.436 365.932 47.372C365.932 48.344 365.032 49.01 363.754 49.01C362.296 49.01 361.27 48.146 361.27 46.94H359.776C359.776 48.92 361.45 50.36 363.772 50.36ZM368.877 45.068H376.257V43.718H368.877V45.068ZM381.868 50.36C383.992 50.36 385.522 49.19 385.522 47.48C385.522 46.364 384.856 45.554 383.776 45.32V45.14C384.712 44.906 385.27 44.258 385.27 43.268C385.27 41.648 383.776 40.55 381.742 40.55C379.546 40.55 377.998 41.846 378.016 43.646H379.456C379.456 42.62 380.374 41.9 381.706 41.9C382.93 41.9 383.812 42.476 383.812 43.34C383.812 44.096 383.128 44.618 382.174 44.618H380.536V45.968H382.156C383.236 45.968 384.028 46.436 384.028 47.372C384.028 48.344 383.128 49.01 381.85 49.01C380.392 49.01 379.366 48.146 379.366 46.94H377.872C377.872 48.92 379.546 50.36 381.868 50.36ZM389.98 50.288C391.438 50.288 392.5 49.712 393.148 48.668H393.31V50H394.804V43.97C394.804 41.9 393.31 40.568 390.952 40.568C388.666 40.568 387.172 41.792 387.172 43.718H388.684C388.666 42.584 389.566 41.918 390.934 41.918C392.428 41.918 393.31 42.71 393.31 43.934V44.294L390.79 44.6C388.09 44.906 386.722 46.094 386.722 47.696C386.722 49.262 388.018 50.288 389.98 50.288ZM390.196 49.046C388.972 49.046 388.216 48.524 388.216 47.66C388.216 46.814 388.936 46.094 390.79 45.86L393.31 45.572V46.382C393.31 47.912 392.05 49.046 390.196 49.046ZM405.473 50.36C408.227 50.36 410.207 48.29 410.207 45.446C410.207 42.602 408.209 40.55 405.473 40.55C403.241 40.55 401.369 41.954 401.045 43.898L402.485 44.096C402.827 42.782 404.069 41.9 405.455 41.9C407.111 41.9 408.425 43.052 408.659 44.816H404.051V46.076H408.659C408.425 47.822 407.111 49.01 405.473 49.01C404.033 49.01 402.827 48.128 402.467 46.85L401.009 47.03C401.423 48.974 403.295 50.36 405.473 50.36ZM414.429 50H415.923V42.26H419.199V40.91H411.135V42.26H414.429V50ZM424.985 50.36C427.829 50.36 429.863 48.326 429.863 45.446C429.863 42.584 427.829 40.55 424.985 40.55C422.123 40.55 420.107 42.584 420.107 45.446C420.107 48.326 422.123 50.36 424.985 50.36ZM424.985 49.01C423.005 49.01 421.601 47.516 421.601 45.446C421.601 43.394 423.005 41.9 424.985 41.9C426.947 41.9 428.369 43.394 428.369 45.446C428.369 47.516 426.947 49.01 424.985 49.01ZM431.944 50H433.438V42.26H438.262V40.91H431.944V50ZM444.066 50.36C446.91 50.36 448.944 48.326 448.944 45.446C448.944 42.584 446.91 40.55 444.066 40.55C441.204 40.55 439.188 42.584 439.188 45.446C439.188 48.326 441.204 50.36 444.066 50.36ZM444.066 49.01C442.086 49.01 440.682 47.516 440.682 45.446C440.682 43.394 442.086 41.9 444.066 41.9C446.028 41.9 447.45 43.394 447.45 45.446C447.45 47.516 446.028 49.01 444.066 49.01ZM455.326 50H457.144L461.968 43.052H462.148V50H463.642V40.91H461.824L456.982 47.876H456.82V40.91H455.326V50ZM470.469 50.36C472.629 50.36 474.519 48.974 474.933 47.03L473.475 46.85C473.097 48.128 471.891 49.01 470.469 49.01C468.615 49.01 467.229 47.552 467.229 45.446C467.211 43.358 468.633 41.9 470.487 41.9C471.873 41.9 473.115 42.782 473.457 44.096L474.897 43.898C474.573 41.954 472.701 40.55 470.469 40.55C467.733 40.55 465.735 42.602 465.735 45.446C465.717 48.29 467.715 50.36 470.469 50.36ZM477.026 50H478.52V42.26H483.992V50H485.486V40.91H477.026V50ZM492.453 50.36C495.297 50.36 497.331 48.326 497.331 45.446C497.331 42.584 495.297 40.55 492.453 40.55C489.591 40.55 487.575 42.584 487.575 45.446C487.575 48.326 489.591 50.36 492.453 50.36ZM492.453 49.01C490.473 49.01 489.069 47.516 489.069 45.446C489.069 43.394 490.473 41.9 492.453 41.9C494.415 41.9 495.837 43.394 495.837 45.446C495.837 47.516 494.415 49.01 492.453 49.01ZM498.065 50C499.613 50 500.891 49.208 501.197 46.994L501.863 42.26H505.175V50H506.669V40.91H500.531L499.883 46.13C499.667 47.84 499.343 48.74 498.065 48.74V50ZM509.233 50H513.229C515.425 50 516.865 48.758 516.865 46.832C516.865 44.96 515.425 43.7 513.229 43.7H510.727V40.91H509.233V50ZM510.727 48.65V45.05H513.229C514.525 45.05 515.389 45.752 515.389 46.85C515.389 47.948 514.543 48.65 513.229 48.65H510.727ZM522.266 50.36C524.39 50.36 525.92 49.19 525.92 47.48C525.92 46.364 525.254 45.554 524.174 45.32V45.14C525.11 44.906 525.668 44.258 525.668 43.268C525.668 41.648 524.174 40.55 522.14 40.55C519.944 40.55 518.396 41.846 518.414 43.646H519.854C519.854 42.62 520.772 41.9 522.104 41.9C523.328 41.9 524.21 42.476 524.21 43.34C524.21 44.096 523.526 44.618 522.572 44.618H520.934V45.968H522.554C523.634 45.968 524.426 46.436 524.426 47.372C524.426 48.344 523.526 49.01 522.248 49.01C520.79 49.01 519.764 48.146 519.764 46.94H518.27C518.27 48.92 519.944 50.36 522.266 50.36ZM528.721 54.032C530.683 54.032 531.403 52.16 532.213 50.144L535.813 40.91H534.211L531.547 48.02H531.367L528.253 40.91H526.687L530.737 49.982C530.197 51.26 529.837 52.7 528.487 52.7C528.145 52.7 527.695 52.592 527.281 52.43V53.744C527.695 53.924 528.271 54.032 528.721 54.032ZM541.509 50.36C543.525 50.36 545.163 49.424 545.883 47.876L544.641 47.246C544.083 48.326 542.895 49.01 541.527 49.01C539.691 49.01 538.359 47.786 538.143 45.95H546.189C546.207 45.752 546.207 45.536 546.207 45.356C546.207 42.566 544.191 40.55 541.419 40.55C538.611 40.55 536.595 42.566 536.595 45.338C536.595 48.254 538.665 50.36 541.509 50.36ZM538.161 44.636C538.413 42.998 539.673 41.9 541.365 41.9C543.075 41.9 544.371 42.998 544.623 44.636H538.161ZM548.29 50H549.784V42.998H549.946L553.186 50H554.518L557.758 42.998H557.938V50H559.432V40.91H557.254L553.924 48.128H553.744L550.45 40.91H548.29V50ZM348.198 68C349.746 68 351.024 67.208 351.33 64.994L351.996 60.26H355.308V68H356.802V58.91H350.664L350.016 64.13C349.8 65.84 349.476 66.74 348.198 66.74V68ZM363.758 68.36C366.602 68.36 368.636 66.326 368.636 63.446C368.636 60.584 366.602 58.55 363.758 58.55C360.896 58.55 358.88 60.584 358.88 63.446C358.88 66.326 360.896 68.36 363.758 68.36ZM363.758 67.01C361.778 67.01 360.374 65.516 360.374 63.446C360.374 61.394 361.778 59.9 363.758 59.9C365.72 59.9 367.142 61.394 367.142 63.446C367.142 65.516 365.72 67.01 363.758 67.01ZM370.717 68H372.211V60.998H372.373L375.613 68H376.945L380.185 60.998H380.365V68H381.859V58.91H379.681L376.351 66.128H376.171L372.877 58.91H370.717V68ZM386.961 68.288C388.419 68.288 389.481 67.712 390.129 66.668H390.291V68H391.785V61.97C391.785 59.9 390.291 58.568 387.933 58.568C385.647 58.568 384.153 59.792 384.153 61.718H385.665C385.647 60.584 386.547 59.918 387.915 59.918C389.409 59.918 390.291 60.71 390.291 61.934V62.294L387.771 62.6C385.071 62.906 383.703 64.094 383.703 65.696C383.703 67.262 384.999 68.288 386.961 68.288ZM387.177 67.046C385.953 67.046 385.197 66.524 385.197 65.66C385.197 64.814 385.917 64.094 387.771 63.86L390.291 63.572V64.382C390.291 65.912 389.031 67.046 387.177 67.046ZM394.174 68H395.668V64.076H400.978V68H402.472V58.91H400.978V62.726H395.668V58.91H394.174V68ZM405.033 68H406.527V64.076H411.837V68H413.331V58.91H411.837V62.726H406.527V58.91H405.033V68ZM415.891 68H419.329C421.525 68 422.965 66.758 422.965 64.832C422.965 62.96 421.525 61.7 419.329 61.7H417.385V58.91H415.891V68ZM424.279 68H425.773V58.91H424.279V68ZM417.385 66.65V63.05H419.329C420.625 63.05 421.489 63.752 421.489 64.85C421.489 65.948 420.643 66.65 419.329 66.65H417.385ZM432.796 68.36C434.812 68.36 436.45 67.424 437.17 65.876L435.928 65.246C435.37 66.326 434.182 67.01 432.814 67.01C430.978 67.01 429.646 65.786 429.43 63.95H437.476C437.494 63.752 437.494 63.536 437.494 63.356C437.494 60.566 435.478 58.55 432.706 58.55C429.898 58.55 427.882 60.566 427.882 63.338C427.882 66.254 429.952 68.36 432.796 68.36ZM429.448 62.636C429.7 60.998 430.96 59.9 432.652 59.9C434.362 59.9 435.658 60.998 435.91 62.636H429.448ZM349.386 86H350.88V78.26H356.352V86H357.846V76.91H349.386V86ZM364.866 86.36C366.882 86.36 368.52 85.424 369.24 83.876L367.998 83.246C367.44 84.326 366.252 85.01 364.884 85.01C363.048 85.01 361.716 83.786 361.5 81.95H369.546C369.564 81.752 369.564 81.536 369.564 81.356C369.564 78.566 367.548 76.55 364.776 76.55C361.968 76.55 359.952 78.566 359.952 81.338C359.952 84.254 362.022 86.36 364.866 86.36ZM361.518 80.636C361.77 78.998 363.03 77.9 364.722 77.9C366.432 77.9 367.728 78.998 367.98 80.636H361.518ZM376.634 76.55C375.14 76.55 373.97 77.198 373.304 78.296H373.142V76.91H371.648V90.14H373.142V84.65H373.304C373.97 85.73 375.194 86.36 376.652 86.36C379.298 86.36 381.332 84.29 381.332 81.446C381.332 78.602 379.28 76.55 376.634 76.55ZM376.472 77.9C378.416 77.9 379.838 79.412 379.838 81.446C379.838 83.444 378.416 85.01 376.472 85.01C374.51 85.01 373.088 83.444 373.088 81.446C373.088 79.448 374.51 77.9 376.472 77.9ZM387.884 86.36C389.9 86.36 391.538 85.424 392.258 83.876L391.016 83.246C390.458 84.326 389.27 85.01 387.902 85.01C386.066 85.01 384.734 83.786 384.518 81.95H392.564C392.582 81.752 392.582 81.536 392.582 81.356C392.582 78.566 390.566 76.55 387.794 76.55C384.986 76.55 382.97 78.566 382.97 81.338C382.97 84.254 385.04 86.36 387.884 86.36ZM384.536 80.636C384.788 78.998 386.048 77.9 387.74 77.9C389.45 77.9 390.746 78.998 390.998 80.636H384.536ZM398.932 86.36C401.092 86.36 402.982 84.974 403.396 83.03L401.938 82.85C401.56 84.128 400.354 85.01 398.932 85.01C397.078 85.01 395.692 83.552 395.692 81.446C395.674 79.358 397.096 77.9 398.95 77.9C400.336 77.9 401.578 78.782 401.92 80.096L403.36 79.898C403.036 77.954 401.164 76.55 398.932 76.55C396.196 76.55 394.198 78.602 394.198 81.446C394.18 84.29 396.178 86.36 398.932 86.36ZM409.936 86.36C411.952 86.36 413.59 85.424 414.31 83.876L413.068 83.246C412.51 84.326 411.322 85.01 409.954 85.01C408.118 85.01 406.786 83.786 406.57 81.95H414.616C414.634 81.752 414.634 81.536 414.634 81.356C414.634 78.566 412.618 76.55 409.846 76.55C407.038 76.55 405.022 78.566 405.022 81.338C405.022 84.254 407.092 86.36 409.936 86.36ZM406.588 80.636C406.84 78.998 408.1 77.9 409.792 77.9C411.502 77.9 412.798 78.998 413.05 80.636H406.588ZM416.718 86H418.212V81.77H418.392L422.37 86H424.368L419.778 81.266L424.26 76.91H422.28L418.392 80.798H418.212V76.91H416.718V86ZM428.11 86.288C429.568 86.288 430.63 85.712 431.278 84.668H431.44V86H432.934V79.97C432.934 77.9 431.44 76.568 429.082 76.568C426.796 76.568 425.302 77.792 425.302 79.718H426.814C426.796 78.584 427.696 77.918 429.064 77.918C430.558 77.918 431.44 78.71 431.44 79.934V80.294L428.92 80.6C426.22 80.906 424.852 82.094 424.852 83.696C424.852 85.262 426.148 86.288 428.11 86.288ZM428.326 85.046C427.102 85.046 426.346 84.524 426.346 83.66C426.346 82.814 427.066 82.094 428.92 81.86L431.44 81.572V82.382C431.44 83.912 430.18 85.046 428.326 85.046ZM442.811 86.378C445.457 86.378 447.311 84.398 447.311 81.482C447.311 78.602 445.457 76.55 442.811 76.55C440.363 76.55 438.635 78.26 438.347 80.798H436.817V76.91H435.323V86.018H436.817V82.148H438.365C438.581 84.704 440.363 86.378 442.811 86.378ZM442.811 85.028C440.921 85.028 439.769 83.642 439.769 81.482C439.769 79.34 440.921 77.9 442.811 77.9C444.683 77.9 445.817 79.34 445.817 81.482C445.817 83.642 444.683 85.028 442.811 85.028ZM462.053 88.7H463.403V84.65H461.855V76.91H460.361V84.65H456.365V76.91H454.871V84.65H450.893V76.91H449.399V86H462.053V88.7ZM465.144 86H466.962L471.786 79.052H471.966V86H473.46V76.91H471.642L466.8 83.876H466.638V76.91H465.144V86ZM480.466 86.36C482.482 86.36 484.12 85.424 484.84 83.876L483.598 83.246C483.04 84.326 481.852 85.01 480.484 85.01C478.648 85.01 477.316 83.786 477.1 81.95H485.146C485.164 81.752 485.164 81.536 485.164 81.356C485.164 78.566 483.148 76.55 480.376 76.55C477.568 76.55 475.552 78.566 475.552 81.338C475.552 84.254 477.622 86.36 480.466 86.36ZM477.118 80.636C477.37 78.998 478.63 77.9 480.322 77.9C482.032 77.9 483.328 78.998 483.58 80.636H477.118ZM491.514 86.36C493.674 86.36 495.564 84.974 495.978 83.03L494.52 82.85C494.142 84.128 492.936 85.01 491.514 85.01C489.66 85.01 488.274 83.552 488.274 81.446C488.256 79.358 489.678 77.9 491.532 77.9C492.918 77.9 494.16 78.782 494.502 80.096L495.942 79.898C495.618 77.954 493.746 76.55 491.514 76.55C488.778 76.55 486.78 78.602 486.78 81.446C486.762 84.29 488.76 86.36 491.514 86.36ZM497.586 86H499.422L502.14 82.652H503.724V86H505.218V76.91H501.186C499.026 76.91 497.604 78.08 497.604 79.772C497.604 81.212 498.576 82.454 500.484 82.634L497.586 86ZM501.186 81.302C499.908 81.302 499.098 80.69 499.098 79.772C499.098 78.854 499.926 78.26 501.186 78.26H503.724V81.302H501.186ZM510.884 86C512.432 86 513.71 85.208 514.016 82.994L514.682 78.26H517.994V86H519.488V76.91H513.35L512.702 82.13C512.486 83.84 512.162 84.74 510.884 84.74V86ZM522.052 86H523.87L528.694 79.052H528.874V86H530.368V76.91H528.55L523.708 83.876H523.546V76.91H522.052V86ZM532.928 86H534.422V82.076H539.732V86H541.226V76.91H539.732V80.726H534.422V76.91H532.928V86ZM543.787 86H545.605L550.429 79.052H550.609V86H552.103V76.91H550.285L545.443 83.876H545.281V76.91H543.787V86ZM554.663 86H556.481L561.305 79.052H561.485V86H562.979V76.91H561.161L556.319 83.876H556.157V76.91H554.663V86Z" fill="white"/>
</svg>
