<svg width="538" height="25" viewBox="0 0 538 25" fill="none" xmlns="http://www.w3.org/2000/svg">
<path d="M2.28 19H4.464V11.056H4.704L11.928 19H14.688L6.576 10.264L14.448 2.08H11.712L4.704 9.472H4.464V2.08H2.28V19ZM19.9446 19.384C21.8886 19.384 23.3046 18.616 24.1686 17.224H24.3846V19H26.3766V10.96C26.3766 8.2 24.3846 6.424 21.2406 6.424C18.1926 6.424 16.2006 8.056 16.2006 10.624H18.2166C18.1926 9.112 19.3926 8.224 21.2166 8.224C23.2086 8.224 24.3846 9.28 24.3846 10.912V11.392L21.0246 11.8C17.4246 12.208 15.6006 13.792 15.6006 15.928C15.6006 18.016 17.3286 19.384 19.9446 19.384ZM20.2326 17.728C18.6006 17.728 17.5926 17.032 17.5926 15.88C17.5926 14.752 18.5526 13.792 21.0246 13.48L24.3846 13.096V14.176C24.3846 16.216 22.7046 17.728 20.2326 17.728ZM36.2102 6.4C34.2182 6.4 32.6582 7.264 31.7702 8.728H31.5542V6.88H29.5622V24.52H31.5542V17.2H31.7702C32.6582 18.64 34.2902 19.48 36.2342 19.48C39.7622 19.48 42.4742 16.72 42.4742 12.928C42.4742 9.136 39.7382 6.4 36.2102 6.4ZM35.9942 8.2C38.5862 8.2 40.4822 10.216 40.4822 12.928C40.4822 15.592 38.5862 17.68 35.9942 17.68C33.3782 17.68 31.4822 15.592 31.4822 12.928C31.4822 10.264 33.3782 8.2 35.9942 8.2ZM46.0133 24.376C48.6293 24.376 49.5893 21.88 50.6693 19.192L55.4693 6.88H53.3333L49.7813 16.36H49.5413L45.3893 6.88H43.3013L48.7013 18.976C47.9813 20.68 47.5013 22.6 45.7013 22.6C45.2453 22.6 44.6453 22.456 44.0933 22.24V23.992C44.6453 24.232 45.4133 24.376 46.0133 24.376ZM62.8238 19.48C65.7038 19.48 68.2238 17.632 68.7758 15.04L66.8318 14.8C66.3278 16.504 64.7198 17.68 62.8238 17.68C60.3518 17.68 58.5038 15.736 58.5038 12.928C58.4798 10.144 60.3758 8.2 62.8478 8.2C64.6958 8.2 66.3518 9.376 66.8078 11.128L68.7278 10.864C68.2958 8.272 65.7998 6.4 62.8238 6.4C59.1758 6.4 56.5118 9.136 56.5118 12.928C56.4878 16.72 59.1518 19.48 62.8238 19.48ZM77.4951 19.48C80.1831 19.48 82.3671 18.232 83.3271 16.168L81.6711 15.328C80.9271 16.768 79.3431 17.68 77.5191 17.68C75.0711 17.68 73.2951 16.048 73.0071 13.6H83.7351C83.7591 13.336 83.7591 13.048 83.7591 12.808C83.7591 9.088 81.0711 6.4 77.3751 6.4C73.6311 6.4 70.9431 9.088 70.9431 12.784C70.9431 16.672 73.7031 19.48 77.4951 19.48ZM73.0311 11.848C73.3671 9.664 75.0471 8.2 77.3031 8.2C79.5831 8.2 81.3111 9.664 81.6471 11.848H73.0311ZM84.7425 19C86.8065 19 88.5105 17.944 88.9185 14.992L89.8065 8.68H94.2225V19H96.2145V6.88H88.0305L87.1665 13.84C86.8785 16.12 86.4465 17.32 84.7425 17.32V19ZM99.6328 19H104.961C107.889 19 109.809 17.344 109.809 14.776C109.809 12.28 107.889 10.6 104.961 10.6H101.625V6.88H99.6328V19ZM101.625 17.2V12.4H104.961C106.689 12.4 107.841 13.336 107.841 14.8C107.841 16.264 106.713 17.2 104.961 17.2H101.625Z" fill="white"/>
<path d="M236.256 19H238.464V3.88H247.536V19H249.72V2.08H236.256V19ZM251.977 19C254.041 19 255.745 17.944 256.153 14.992L257.041 8.68H261.457V19H263.449V6.88H255.265L254.401 13.84C254.113 16.12 253.681 17.32 251.977 17.32V19ZM272.795 19.48C275.483 19.48 277.667 18.232 278.627 16.168L276.971 15.328C276.227 16.768 274.643 17.68 272.819 17.68C270.371 17.68 268.595 16.048 268.307 13.6H279.035C279.059 13.336 279.059 13.048 279.059 12.808C279.059 9.088 276.371 6.4 272.675 6.4C268.931 6.4 266.243 9.088 266.243 12.784C266.243 16.672 269.003 19.48 272.795 19.48ZM268.331 11.848C268.667 9.664 270.347 8.2 272.603 8.2C274.883 8.2 276.611 9.664 276.947 11.848H268.331ZM287.285 4.576C289.157 4.576 290.501 3.232 290.501 1.36H288.821C288.821 2.392 288.245 3.112 287.285 3.112C286.325 3.112 285.773 2.392 285.773 1.36H284.093C284.093 3.232 285.413 4.576 287.285 4.576ZM281.837 19H284.261L290.693 9.736H290.933V19H292.925V6.88H290.501L284.045 16.168H283.829V6.88H281.837V19ZM294.755 19C296.819 19 298.523 17.944 298.931 14.992L299.819 8.68H304.235V19H306.227V6.88H298.043L297.179 13.84C296.891 16.12 296.459 17.32 294.755 17.32V19ZM309.645 19H312.069L318.501 9.736H318.741V19H320.733V6.88H318.309L311.853 16.168H311.637V6.88H309.645V19ZM329.835 19.48C332.715 19.48 335.235 17.632 335.787 15.04L333.843 14.8C333.339 16.504 331.731 17.68 329.835 17.68C327.363 17.68 325.515 15.736 325.515 12.928C325.491 10.144 327.387 8.2 329.859 8.2C331.707 8.2 333.363 9.376 333.819 11.128L335.739 10.864C335.307 8.272 332.811 6.4 329.835 6.4C326.187 6.4 323.523 9.136 323.523 12.928C323.499 16.72 326.163 19.48 329.835 19.48ZM341.416 19H343.408V8.68H347.776V6.88H337.024V8.68H341.416V19ZM349.869 19H354.453C357.381 19 359.301 17.344 359.301 14.776C359.301 12.28 357.381 10.6 354.453 10.6H351.861V6.88H349.869V19ZM361.053 19H363.045V6.88H361.053V19ZM351.861 17.2V12.4H354.453C356.181 12.4 357.333 13.336 357.333 14.8C357.333 16.264 356.205 17.2 354.453 17.2H351.861Z" fill="white"/>
<path d="M468.856 19.72H471.04V17.728C475.864 17.656 478.96 14.464 478.96 10.456C478.96 6.424 475.888 3.232 471.064 3.16V1.36H468.88V3.16C464.032 3.304 460.984 6.496 460.984 10.456C460.984 14.368 464.056 17.56 468.856 17.728V19.72ZM468.88 15.808C465.472 15.688 463.168 13.216 463.168 10.432C463.168 7.648 465.424 5.2 468.88 5.104V15.808ZM471.064 15.808V5.104C474.472 5.104 476.776 7.6 476.776 10.432C476.776 13.336 474.472 15.808 471.064 15.808ZM488.177 6.4C486.185 6.4 484.625 7.264 483.737 8.728H483.521V6.88H481.529V24.52H483.521V17.2H483.737C484.625 18.64 486.257 19.48 488.201 19.48C491.729 19.48 494.441 16.72 494.441 12.928C494.441 9.136 491.705 6.4 488.177 6.4ZM487.961 8.2C490.553 8.2 492.449 10.216 492.449 12.928C492.449 15.592 490.553 17.68 487.961 17.68C485.345 17.68 483.449 15.592 483.449 12.928C483.449 10.264 485.345 8.2 487.961 8.2ZM500.634 19.384C502.578 19.384 503.994 18.616 504.858 17.224H505.074V19H507.066V10.96C507.066 8.2 505.074 6.424 501.93 6.424C498.882 6.424 496.89 8.056 496.89 10.624H498.906C498.882 9.112 500.082 8.224 501.906 8.224C503.898 8.224 505.074 9.28 505.074 10.912V11.392L501.714 11.8C498.114 12.208 496.29 13.792 496.29 15.928C496.29 18.016 498.018 19.384 500.634 19.384ZM500.922 17.728C499.29 17.728 498.282 17.032 498.282 15.88C498.282 14.752 499.242 13.792 501.714 13.48L505.074 13.096V14.176C505.074 16.216 503.394 17.728 500.922 17.728ZM514.931 19.48C517.763 19.48 519.803 17.92 519.803 15.64C519.803 14.152 518.915 13.072 517.475 12.76V12.52C518.723 12.208 519.467 11.344 519.467 10.024C519.467 7.864 517.475 6.4 514.763 6.4C511.835 6.4 509.771 8.128 509.795 10.528H511.715C511.715 9.16 512.939 8.2 514.715 8.2C516.347 8.2 517.523 8.968 517.523 10.12C517.523 11.128 516.611 11.824 515.339 11.824H513.155V13.624H515.315C516.755 13.624 517.811 14.248 517.811 15.496C517.811 16.792 516.611 17.68 514.907 17.68C512.963 17.68 511.595 16.528 511.595 14.92H509.603C509.603 17.56 511.835 19.48 514.931 19.48ZM522.362 19H526.946C529.874 19 531.794 17.344 531.794 14.776C531.794 12.28 529.874 10.6 526.946 10.6H524.354V6.88H522.362V19ZM533.546 19H535.538V6.88H533.546V19ZM524.354 17.2V12.4H526.946C528.674 12.4 529.826 13.336 529.826 14.8C529.826 16.264 528.698 17.2 526.946 17.2H524.354Z" fill="white"/>
</svg>
