<svg width="232" height="232" viewBox="0 0 232 232" fill="none" xmlns="http://www.w3.org/2000/svg">
<rect width="232" height="232" rx="47" fill="url(#paint0_linear_192:868)"/>
<path d="M39.8706 90.4307C-9.38595 90.4307 67.6945 141.258 39.8706 174.884C12.0467 208.511 107.553 199.922 113.193 174.884C118.832 149.847 216.219 215.617 198.171 164.795C180.123 113.973 150.418 128.921 198.171 90.4307C245.923 51.9406 133.874 77.7252 130.865 33.2561C127.856 -11.2129 89.1271 90.4307 39.8706 90.4307Z" fill="url(#paint1_linear_192:868)"/>
<path d="M16.7736 120.469C-12.9589 141.089 33.4033 138.575 46.506 170.762C59.6087 202.95 122.852 179.815 143.514 202.95C164.177 226.085 171.986 161.71 204.239 170.762C236.492 179.815 122.852 45.5321 121.593 93.3107C120.334 141.089 46.506 99.8489 16.7736 120.469Z" fill="url(#paint2_linear_192:868)"/>
<defs>
<linearGradient id="paint0_linear_192:868" x1="116" y1="0" x2="116" y2="232" gradientUnits="userSpaceOnUse">
<stop stop-color="#3300FF"/>
<stop offset="1" stop-color="white" stop-opacity="0"/>
</linearGradient>
<linearGradient id="paint1_linear_192:868" x1="116.5" y1="22" x2="116.5" y2="197" gradientUnits="userSpaceOnUse">
<stop stop-color="#45F7E1"/>
<stop offset="1" stop-color="white" stop-opacity="0"/>
</linearGradient>
<linearGradient id="paint2_linear_192:868" x1="108.5" y1="83" x2="108.5" y2="208" gradientUnits="userSpaceOnUse">
<stop stop-color="#3300FF"/>
<stop offset="1" stop-color="#3300FF" stop-opacity="0"/>
</linearGradient>
</defs>
</svg>
