<svg width="233" height="232" viewBox="0 0 233 232" fill="none" xmlns="http://www.w3.org/2000/svg">
<rect width="232" height="232" rx="47" fill="url(#paint0_linear_280:237)"/>
<path d="M34.1936 79.8149C-6.78411 76.6836 44.7136 114.034 38.6443 161.228C32.575 208.422 87.0388 194.553 100.746 149.15C114.454 103.748 151.365 166.371 145.495 209.092C139.625 251.813 233.635 158.096 196.881 130.81C160.127 103.524 235.772 55.2109 181.127 61.6982C126.481 68.1855 150.412 59.6852 109.505 33.5167C68.599 7.34812 75.1713 82.9462 34.1936 79.8149Z" fill="url(#paint1_linear_280:237)"/>
<path d="M84.9609 178.431C87.3212 204.781 106.204 184.811 109.154 206.723C112.105 228.635 165.212 196.46 151.345 181.205C137.478 165.95 129.807 127.674 150.46 142.374C171.113 157.074 205.338 157.074 225.106 134.33C244.873 111.586 215.959 89.1199 215.959 89.1199C215.959 89.1199 184.98 66.6533 122.431 89.1199C59.8823 111.586 82.6005 152.082 84.9609 178.431Z" fill="url(#paint2_linear_280:237)"/>
<defs>
<linearGradient id="paint0_linear_280:237" x1="116" y1="0" x2="116" y2="232" gradientUnits="userSpaceOnUse">
<stop stop-color="#45F7E1"/>
<stop offset="1" stop-color="white" stop-opacity="0"/>
</linearGradient>
<linearGradient id="paint1_linear_280:237" x1="94.625" y1="27.9952" x2="113.718" y2="208.533" gradientUnits="userSpaceOnUse">
<stop stop-color="#3300FF"/>
<stop offset="1" stop-color="white" stop-opacity="0"/>
</linearGradient>
<linearGradient id="paint2_linear_280:237" x1="155.518" y1="79.1348" x2="155.518" y2="214.135" gradientUnits="userSpaceOnUse">
<stop stop-color="#45F7E1"/>
<stop offset="1" stop-color="#45F7E1" stop-opacity="0"/>
</linearGradient>
</defs>
</svg>
