<svg width="250" height="232" viewBox="0 0 250 232" fill="none" xmlns="http://www.w3.org/2000/svg">
<rect x="9" width="232" height="232" rx="47" fill="url(#paint0_linear_192:872)"/>
<path d="M31.3612 113.924C75.2626 106.818 -6.12212 156.802 31.3612 164.888C68.8445 172.973 58.06 145.531 91.1789 172.973C124.298 200.415 135.078 146.511 165.887 172.973C196.695 199.435 156.13 107.798 205.166 122.01C254.202 136.221 267.039 63.9402 223.394 68.1055C179.749 72.2709 223.394 21.3071 178.723 31.3528C134.052 41.3986 91.179 -3.19639 40.09 31.3528C-10.999 65.902 -12.5402 121.029 31.3612 113.924Z" fill="url(#paint1_radial_192:872)"/>
<path d="M103.066 196.169C63.5159 201.327 27.4126 182.695 42.5103 133.801C48.5727 114.167 68.5269 107.271 88.1034 107.264C83.4639 89.2228 88.5148 69.3154 111.436 68.1056C158.699 65.6108 130.144 108.189 185.612 105.693C241.081 103.197 233.86 148.933 180.525 154.258C127.19 159.582 142.616 191.011 103.066 196.169Z" fill="url(#paint2_linear_192:872)"/>
<defs>
<linearGradient id="paint0_linear_192:872" x1="125" y1="0" x2="125" y2="232" gradientUnits="userSpaceOnUse">
<stop stop-color="#45F7E1"/>
<stop offset="1" stop-color="white" stop-opacity="0"/>
</linearGradient>
<radialGradient id="paint1_radial_192:872" cx="0" cy="0" r="1" gradientUnits="userSpaceOnUse" gradientTransform="translate(125 99.5) rotate(90) scale(81.5 125)">
<stop stop-color="#3300FF"/>
<stop offset="1" stop-color="#3300FF" stop-opacity="0"/>
</radialGradient>
<linearGradient id="paint2_linear_192:872" x1="131.5" y1="68" x2="131.5" y2="197" gradientUnits="userSpaceOnUse">
<stop stop-color="#45F7E1"/>
<stop offset="1" stop-color="#45F7E1" stop-opacity="0"/>
</linearGradient>
</defs>
</svg>
