<svg width="232" height="232" viewBox="0 0 232 232" fill="none" xmlns="http://www.w3.org/2000/svg">
<rect width="232" height="232" rx="47" fill="url(#paint0_linear_192:830)"/>
<path d="M32.926 95.1095C-26.0604 139.443 83.8093 136.396 32.926 178.513C-17.9573 220.631 111.068 245.632 104.757 178.513C98.4459 111.394 146.431 230.132 196.528 164.443C246.626 98.7532 109.497 100.323 188.007 95.1095C266.517 89.8962 188.793 69.9689 122.119 25.3126C55.4445 -19.3437 91.9124 50.7763 32.926 95.1095Z" fill="url(#paint1_linear_192:830)"/>
<path d="M18.5448 62.3625C-22.3648 76.1054 71.1429 87.4582 39.859 121.636C8.5752 155.814 56.1886 241.259 89.0193 207.081C121.85 172.903 218.452 210.547 169.292 172.903C120.131 135.259 98.9078 111.781 161.041 127.372C223.174 142.962 231.987 -34.8023 161.041 30.4543C90.0947 95.711 100.536 24.7189 77.5028 30.4551C54.4697 36.1912 59.4544 48.6196 18.5448 62.3625Z" fill="url(#paint2_linear_192:830)"/>
<defs>
<linearGradient id="paint0_linear_192:830" x1="116" y1="0" x2="116" y2="232" gradientUnits="userSpaceOnUse">
<stop stop-color="#45F7E1"/>
<stop offset="1" stop-color="white" stop-opacity="0"/>
</linearGradient>
<linearGradient id="paint1_linear_192:830" x1="118" y1="11" x2="118" y2="220" gradientUnits="userSpaceOnUse">
<stop stop-color="#3300FF"/>
<stop offset="1" stop-color="white" stop-opacity="0"/>
</linearGradient>
<linearGradient id="paint2_linear_192:830" x1="164.452" y1="180.969" x2="54.2074" y2="50.3182" gradientUnits="userSpaceOnUse">
<stop stop-color="#45F7E1"/>
<stop offset="1" stop-color="#45F7E1" stop-opacity="0"/>
</linearGradient>
</defs>
</svg>
