<svg width="1440" height="10162" viewBox="0 0 1440 10162" fill="none" xmlns="http://www.w3.org/2000/svg">
<mask id="mask0_285:6" style="mask-type:alpha" maskUnits="userSpaceOnUse" x="0" y="0" width="1440" height="10162">
<rect width="1440" height="10162" fill="black"/>
</mask>
<g mask="url(#mask0_285:6)">
<rect width="1440" height="10162" fill="black"/>
<path d="M1025.32 5675.14C1161.57 5811.16 1034.41 5883.11 787.025 5972.77C630.082 6008.13 718.402 5792.22 630.082 5823.41C519.682 5862.39 490.801 5945.42 280.907 5703.46C58 5446.5 246.682 5653.66 586 5411C668.5 5352 787.025 5372.5 821.5 5446.5C893.231 5600.47 889.082 5539.13 1025.32 5675.14Z" fill="url(#paint0_linear_285:6)"/>
<path d="M183.542 5210.13C69.2954 5178.7 91.8489 5101.58 265.622 4975.11C430.274 4929.79 794.334 4855.45 933.352 4920.65C1107.12 5002.16 782.503 5313.94 832.786 5517.53C883.069 5721.11 343.634 5562.85 302.225 5431.63C260.815 5300.41 297.788 5241.57 183.542 5210.13Z" fill="url(#paint1_radial_285:6)"/>
<path d="M681.189 5394.76C565.894 5363.06 588.655 5285.3 764.022 5157.78C930.185 5112.08 1297.58 5037.12 1437.88 5102.87C1613.25 5185.05 1285.65 5499.43 1336.39 5704.71C1387.13 5910 842.75 5750.41 800.961 5618.1C759.171 5485.79 796.483 5426.46 681.189 5394.76Z" fill="url(#paint2_radial_285:6)"/>
<path d="M-636.027 1079.5C-309.407 1014.06 -49.3489 857.165 59.1988 1137.78C167.747 1418.39 367.311 925.762 693.242 937.997C1019.17 950.232 757.124 725.481 620.731 188.796C484.338 -347.888 130.306 -113.908 -222.952 -125.028C-576.21 -136.149 -358.844 -37.2367 -333.021 164.504C-307.198 366.244 -613.608 120.491 -613.608 120.491C-613.608 120.491 -754.4 104.888 -631.683 398.527C-508.966 692.166 -962.647 1144.93 -636.027 1079.5Z" fill="url(#paint3_linear_285:6)"/>
<path d="M-256.344 359.865C-588.43 219.612 503.915 269.959 583.144 100.936C803.973 63.7745 1171.12 63.5347 873.088 359.865C500.544 730.278 866.345 895.705 787.116 992.804C707.887 1089.9 583.144 895.705 476.944 926.273C391.984 950.728 313.429 1182.21 284.772 1294.89C143.172 1422.55 203.858 937.062 284.772 753.654C365.687 570.245 75.7427 500.118 -256.344 359.865Z" fill="url(#paint4_radial_285:6)"/>
<path d="M485.472 1094.83C456.695 912.02 99.0064 740.857 -76.2405 678.128C-159.252 678.128 -337.451 645.328 -386.151 514.13C-447.026 350.132 81.4817 627.043 289.011 468.427C496.54 309.811 -167.553 54.4174 -1.52997 -370.351C164.493 -795.119 100.851 299.062 665.331 371.649C1229.81 444.237 958.639 643.179 742.808 707.7C526.978 772.222 521.444 1323.35 485.472 1094.83Z" fill="url(#paint5_diamond_285:6)"/>
<path d="M299.466 2543.72C129.398 2404.58 1.84196 2615.55 -202.791 2794.11C-407.423 2972.67 -245.337 2487.09 -429.638 2345.28C-613.939 2203.46 -510.943 2155.25 -510.943 2155.25C-510.943 2155.25 -360.912 1964.07 -446.934 1842.36C-532.957 1720.64 -243.898 1464.22 5.06716 1324.85C254.032 1185.48 -25.6926 1692.33 250.142 1988.02C431.884 2182.84 771.574 2065.67 916.282 1999.48C922.615 1995.34 928.946 1991.51 935.273 1988.02C1013.86 1944.59 991.201 1965.2 916.282 1999.48C692.021 2145.95 464.864 2679.05 299.466 2543.72Z" fill="url(#paint6_linear_285:6)"/>
<ellipse cx="459.687" cy="2330.67" rx="810.218" ry="783.147" transform="rotate(117.748 459.687 2330.67)" fill="url(#paint7_diamond_285:6)"/>
<path d="M-193.148 2806.02C-442.406 2674.89 -534.566 2359.61 -398.945 2101.82C-263.324 1844.03 48.6936 1741.39 297.952 1872.52C547.21 2003.65 639.37 2318.92 503.75 2576.71C368.129 2834.51 56.1108 2937.15 -193.148 2806.02Z" stroke="url(#paint8_linear_285:6)"/>
<path d="M-227.469 2764.65C-461.92 2641.31 -548.66 2344.87 -421.161 2102.51C-293.661 1860.16 -0.230656 1763.72 234.221 1887.06C468.672 2010.4 555.412 2306.84 427.912 2549.2C300.413 2791.55 6.98248 2888 -227.469 2764.65Z" stroke="url(#paint9_linear_285:6)"/>
<path d="M-222.767 2704.49C-443.041 2588.61 -524.469 2309.96 -404.593 2082.1C-284.718 1854.23 -8.96061 1763.49 211.313 1879.38C431.588 1995.26 513.015 2273.91 393.14 2501.77C273.265 2729.64 -2.49287 2820.38 -222.767 2704.49Z" stroke="url(#paint10_linear_285:6)"/>
<path d="M-276.458 2623.81C-496.732 2507.92 -578.16 2229.27 -458.285 2001.41C-338.409 1773.55 -62.652 1682.81 157.622 1798.69C377.896 1914.58 459.324 2193.22 339.449 2421.09C219.573 2648.95 -56.1843 2739.69 -276.458 2623.81Z" stroke="url(#paint11_linear_285:6)"/>
<path d="M695.985 7473.69C522.876 7486.95 -100.205 7306.68 -281 7372.5C-461.795 7438.33 -510.365 8256.98 -404.812 8319.4C-299.258 8381.82 -311.64 8190.57 -181.29 8302.4C-50.9405 8414.22 -242.274 8555.2 -97.7438 8588.9C46.7865 8622.59 -86.7567 8336.49 544.985 8297.14C1176.73 8257.8 462.079 8034.24 695.985 8040.14C929.891 8046.05 -12.1451 7802.87 330.485 7847.48C673.116 7892.1 906.74 7749.94 510.693 7702.64C114.647 7655.35 869.095 7460.42 695.985 7473.69Z" fill="url(#paint12_linear_285:6)"/>
<path d="M601.484 7487.83C355.3 7506.7 32.3615 7341.98 -224.501 7435.5C-481.364 7529.02 -526.704 8239.7 -427.073 8298.62C-327.442 8357.53 -339.13 8177.02 -216.094 8282.57C-93.0578 8388.12 -273.656 8521.18 -137.235 8552.99C-0.81456 8584.79 -412.488 8295.74 379.248 8289.15C1170.98 8282.57 445.984 8043.65 613.984 8035.15C781.984 8026.65 -31.5156 7826.14 278.484 7826.14C588.484 7826.14 867.484 7789.64 469.817 7716.87C72.1502 7644.09 847.669 7468.97 601.484 7487.83Z" stroke="white"/>
<path d="M525.319 7503.64C298.676 7521.01 -29.3953 7398.3 -186.5 7455.5C-343.605 7512.7 -524.825 8205.25 -433.102 8259.49C-341.379 8313.73 -352.139 8147.54 -238.869 8244.71C-125.6 8341.88 -291.862 8464.39 -166.27 8493.67C-40.6784 8522.95 -528.284 8222.28 287.984 8255.64C1104.25 8289.01 420.752 7998.01 504.088 8021.8C587.423 8045.6 -38.9089 7801.14 246.484 7801.14C531.877 7801.14 791.585 7794.64 425.484 7727.64C59.3824 7660.64 751.963 7486.27 525.319 7503.64Z" stroke="white"/>
<path d="M461.984 7525.79C248.693 7542.13 -104.427 7412.92 -243 7525.79C-381.574 7638.65 -560.302 8181.22 -473.983 8232.27C-387.664 8283.31 -397.79 8126.91 -291.193 8218.36C-184.596 8309.81 -341.064 8425.1 -222.871 8452.65C-104.678 8480.21 -484.194 8213.74 283.985 8245.14C1052.16 8276.54 408.931 8002.69 487.357 8025.08C565.783 8047.47 -107.597 7822.57 167.985 7777.64C443.566 7732.71 707.018 7800.04 362.485 7736.99C17.9513 7673.93 675.276 7509.44 461.984 7525.79Z" stroke="white"/>
<path d="M1574 10268.2C1644.5 10535.2 1271.8 10417.7 1036.3 10464.7C1062.47 10375.7 1081.8 10191.4 949.799 10166.2C784.799 10134.7 705.799 10213.2 603.799 9765.18C501.799 9317.18 698.299 9757.18 1263.8 9561.18C1829.3 9365.18 1574 9600.18 1487.5 9828.18C1401 10056.2 1503.5 10001.2 1574 10268.2Z" fill="url(#paint13_linear_285:6)"/>
<ellipse cx="-61.5" cy="9327" rx="523.5" ry="506" fill="url(#paint14_diamond_285:6)"/>
<path d="M-408.571 9664.65C-640.863 9600.65 -595.006 9443.62 -241.681 9186.12C93.1 9093.84 833.327 8942.46 1115.99 9075.23C1469.31 9241.19 809.271 9876 911.51 10290.5C1013.75 10705.1 -83.061 10382.8 -167.257 10115.6C-251.454 9848.47 -176.279 9728.65 -408.571 9664.65Z" fill="url(#paint15_radial_285:6)"/>
</g>
<defs>
<linearGradient id="paint0_linear_285:6" x1="1131.5" y1="6184" x2="477.915" y2="5364.81" gradientUnits="userSpaceOnUse">
<stop stop-color="#45F7E1"/>
<stop offset="1" stop-color="white" stop-opacity="0"/>
</linearGradient>
<radialGradient id="paint1_radial_285:6" cx="0" cy="0" r="1" gradientUnits="userSpaceOnUse" gradientTransform="translate(-54.5 4751.5) rotate(55.0503) scale(1053.49 1275.9)">
<stop stop-color="#3300FF"/>
<stop offset="1" stop-color="white" stop-opacity="0"/>
</radialGradient>
<radialGradient id="paint2_radial_285:6" cx="0" cy="0" r="1" gradientUnits="userSpaceOnUse" gradientTransform="translate(1779.5 4853) rotate(127.52) scale(1197.78 1451.85)">
<stop stop-color="#3300FF"/>
<stop offset="1" stop-color="white" stop-opacity="0"/>
</radialGradient>
<linearGradient id="paint3_linear_285:6" x1="-838.473" y1="782.831" x2="683.751" y2="303.195" gradientUnits="userSpaceOnUse">
<stop stop-color="#45F7E1"/>
<stop offset="1" stop-color="#45F7E1" stop-opacity="0"/>
</linearGradient>
<radialGradient id="paint4_radial_285:6" cx="0" cy="0" r="1" gradientUnits="userSpaceOnUse" gradientTransform="translate(333 700) rotate(90) scale(616 652)">
<stop stop-color="#45F7E1"/>
<stop offset="1" stop-color="white" stop-opacity="0"/>
</radialGradient>
<radialGradient id="paint5_diamond_285:6" cx="0" cy="0" r="1" gradientUnits="userSpaceOnUse" gradientTransform="translate(305 341) rotate(90) scale(809 696)">
<stop stop-color="#3300FF"/>
<stop offset="1" stop-color="#3300FF" stop-opacity="0"/>
</radialGradient>
<linearGradient id="paint6_linear_285:6" x1="-443.457" y1="2683.41" x2="451.28" y2="1736.55" gradientUnits="userSpaceOnUse">
<stop stop-color="#45F7E1"/>
<stop offset="1" stop-color="#45F7E1" stop-opacity="0"/>
</linearGradient>
<radialGradient id="paint7_diamond_285:6" cx="0" cy="0" r="1" gradientUnits="userSpaceOnUse" gradientTransform="translate(913.924 2449.91) rotate(124.38) scale(804.424 832.442)">
<stop stop-color="#3300FF"/>
<stop offset="1" stop-color="#00FFE0" stop-opacity="0"/>
</radialGradient>
<linearGradient id="paint8_linear_285:6" x1="37.3703" y1="2718.1" x2="33.5004" y2="1802.5" gradientUnits="userSpaceOnUse">
<stop stop-color="white"/>
<stop offset="1" stop-color="white" stop-opacity="0"/>
</linearGradient>
<linearGradient id="paint9_linear_285:6" x1="134.035" y1="2546.81" x2="133" y2="1879" gradientUnits="userSpaceOnUse">
<stop stop-color="white"/>
<stop offset="1" stop-color="white" stop-opacity="0"/>
</linearGradient>
<linearGradient id="paint10_linear_285:6" x1="183.246" y1="2593.1" x2="127" y2="1865.5" gradientUnits="userSpaceOnUse">
<stop stop-color="white"/>
<stop offset="1" stop-color="white" stop-opacity="0"/>
</linearGradient>
<linearGradient id="paint11_linear_285:6" x1="129.555" y1="2512.41" x2="138.499" y2="1796.5" gradientUnits="userSpaceOnUse">
<stop stop-color="white"/>
<stop offset="1" stop-color="white" stop-opacity="0"/>
</linearGradient>
<linearGradient id="paint12_linear_285:6" x1="1804" y1="7547" x2="26.4859" y2="8374.14" gradientUnits="userSpaceOnUse">
<stop stop-color="#45F7E1"/>
<stop offset="0.897518" stop-color="#45F7E1" stop-opacity="0"/>
</linearGradient>
<linearGradient id="paint13_linear_285:6" x1="1356.5" y1="10195" x2="1093" y2="9607" gradientUnits="userSpaceOnUse">
<stop stop-color="#3300FF"/>
<stop offset="0.963542" stop-color="white" stop-opacity="0"/>
</linearGradient>
<radialGradient id="paint14_diamond_285:6" cx="0" cy="0" r="1" gradientUnits="userSpaceOnUse" gradientTransform="translate(268 9374) rotate(125.673) scale(565.023 584.707)">
<stop stop-color="#3300FF"/>
<stop offset="1" stop-color="white" stop-opacity="0"/>
</radialGradient>
<radialGradient id="paint15_radial_285:6" cx="0" cy="0" r="1" gradientUnits="userSpaceOnUse" gradientTransform="translate(708.5 9948.5) rotate(124.681) scale(657.279 794.923)">
<stop stop-color="#00FFDF"/>
<stop offset="1" stop-color="white" stop-opacity="0"/>
</radialGradient>
</defs>
</svg>
