<svg width="321" height="144" viewBox="0 0 321 144" fill="none" xmlns="http://www.w3.org/2000/svg">
<rect x="0.5" y="29.5" width="233" height="85" stroke="white"/>
<rect x="0.5" y="114.5" width="233" height="29" stroke="white"/>
<rect x="0.5" y="0.5" width="233" height="29" stroke="white"/>
<rect x="205.5" y="143.5" width="142" height="28" transform="rotate(-90 205.5 143.5)" stroke="white"/>
<rect x="0.5" y="143.5" width="143" height="29" transform="rotate(-90 0.5 143.5)" stroke="white"/>
<rect x="291.5" y="59.5" width="29" height="30" stroke="white"/>
<path d="M55.4636 74.8252V64.0312H48.1816V74.8252H30V103.625H48.1816V114.465H55.4636V103.625H73.6451V74.8252H55.4636ZM48.1816 96.4598H37.235V82.0368H48.1816V96.4598ZM66.3631 96.4598H55.4636V82.0368H66.3631V96.4598Z" fill="#45F7E1"/>
<path d="M81.4579 74.8252V91.0162C81.4579 94.0404 79.0149 96.4598 76.0081 96.4598V103.625C83.0082 103.625 88.7399 97.9951 88.7399 91.0162V82.0368H99.6394V103.625H106.921V74.8252H81.4579Z" fill="#45F7E1"/>
<path d="M133.465 89.2483C133.465 93.203 130.223 96.4598 126.183 96.4598C123.505 96.4598 121.156 94.9709 119.887 92.8307H126.183V85.6192H118.901V82.0368H137.129V74.8252H111.666V89.2483C111.666 97.2042 118.149 103.625 126.183 103.625C134.217 103.625 140.747 97.2042 140.747 89.2483H133.465Z" fill="#45F7E1"/>
<path d="M161.274 85.6192C163.576 82.5951 164.938 78.873 164.938 74.8252H157.656C157.656 79.5244 154.649 83.5256 150.374 85.0144V74.8252H143.139V103.625H150.374V92.8307H164.938V103.625H172.22V85.6192H161.274Z" fill="#45F7E1"/>
<path d="M190.53 96.4598C186.537 96.4598 183.248 93.203 183.248 89.2483C183.248 85.247 186.537 82.0368 190.53 82.0368C193.913 82.0368 196.778 84.3165 197.577 87.4338H205C204.107 80.3153 197.953 74.8252 190.53 74.8252C182.496 74.8252 176.013 81.2923 176.013 89.2483C176.013 97.2042 182.496 103.625 190.53 103.625C197.953 103.625 204.107 98.1347 205 91.0162H197.577C196.778 94.1335 193.913 96.4598 190.53 96.4598Z" fill="#45F7E1"/>
<path d="M51.5041 30V44.6069C51.5041 48.612 48.3063 51.9103 44.3207 51.9103C40.3813 51.9103 37.1372 48.612 37.1372 44.6069V30H30V44.6069C30 52.6642 36.3956 59.1667 44.3207 59.1667C46.9623 59.1667 49.4186 58.4599 51.5041 57.2348V59.1667H58.6876V30H51.5041Z" fill="#45F7E1"/>
<path d="M84.86 40.9316C87.0845 37.8689 88.4749 34.0994 88.4749 30H63.3558V37.3034H78.5107C76.5642 39.518 73.6908 40.9316 70.493 40.9316V48.2351H84.86V51.9103H63.3558V59.1667H92.0435V40.9316H84.86Z" fill="#45F7E1"/>
<path d="M118.216 30V44.6069C118.216 48.612 115.018 51.9103 111.032 51.9103C107.093 51.9103 103.849 48.612 103.849 44.6069V30H96.7117V44.6069C96.7117 52.6642 103.107 59.1667 111.032 59.1667C113.674 59.1667 116.13 58.4599 118.216 57.2348V59.1667H125.399V30H118.216Z" fill="#45F7E1"/>
<path d="M22.5041 54V68.6069C22.5041 72.612 19.3063 75.9103 15.3207 75.9103C11.3813 75.9103 8.13715 72.612 8.13715 68.6069V54H1V68.6069C1 76.6642 7.39563 83.1667 15.3207 83.1667C17.9623 83.1667 20.4186 82.4599 22.5041 81.2348V83.1667H29.6876V54H22.5041Z" fill="white"/>
<path d="M60.5041 114V128.607C60.5041 132.612 57.3063 135.91 53.3207 135.91C49.3813 135.91 46.1372 132.612 46.1372 128.607V114H39V128.607C39 136.664 45.3956 143.167 53.3207 143.167C55.9623 143.167 58.4186 142.46 60.5041 141.235V143.167H67.6876V114H60.5041Z" fill="white"/>
<path d="M313.504 60V74.6069C313.504 78.612 310.306 81.9103 306.321 81.9103C302.381 81.9103 299.137 78.612 299.137 74.6069V60H292V74.6069C292 82.6642 298.396 89.1667 306.321 89.1667C308.962 89.1667 311.419 88.4599 313.504 87.2348V89.1667H320.688V60H313.504Z" fill="white"/>
<path d="M226.504 75V89.6069C226.504 93.612 223.306 96.9103 219.321 96.9103C215.381 96.9103 212.137 93.612 212.137 89.6069V75H205V89.6069C205 97.6642 211.396 104.167 219.321 104.167C221.962 104.167 224.419 103.46 226.504 102.235V104.167H233.688V75H226.504Z" fill="white"/>
<path d="M161.504 1V15.6069C161.504 19.612 158.306 22.9103 154.321 22.9103C150.381 22.9103 147.137 19.612 147.137 15.6069V1H140V15.6069C140 23.6642 146.396 30.1667 154.321 30.1667C156.962 30.1667 159.419 29.4599 161.504 28.2348V30.1667H168.688V1H161.504Z" fill="white"/>
</svg>
